G04 #@! TF.GenerationSoftware,KiCad,Pcbnew,(5.1.2)-1*
G04 #@! TF.CreationDate,2019-06-03T23:01:36-07:00*
G04 #@! TF.ProjectId,USB-PD-Breakout,5553422d-5044-42d4-9272-65616b6f7574,rev?*
G04 #@! TF.SameCoordinates,PX60e4b00PY60e4b00*
G04 #@! TF.FileFunction,Legend,Bot*
G04 #@! TF.FilePolarity,Positive*
%FSLAX46Y46*%
G04 Gerber Fmt 4.6, Leading zero omitted, Abs format (unit mm)*
G04 Created by KiCad (PCBNEW (5.1.2)-1) date 2019-06-03 23:01:36*
%MOMM*%
%LPD*%
G04 APERTURE LIST*
%ADD10C,0.203200*%
%ADD11O,3.000000X1.500000*%
%ADD12O,2.500000X1.500000*%
%ADD13R,2.127200X2.127200*%
%ADD14O,2.127200X2.127200*%
%ADD15C,7.400000*%
%ADD16C,1.000000*%
%ADD17O,2.100000X2.100000*%
%ADD18R,2.100000X2.100000*%
G04 APERTURE END LIST*
D10*
X30886158Y18336381D02*
X30547491Y17320381D01*
X30208824Y18336381D01*
X29870158Y17320381D02*
X29870158Y18336381D01*
X29628253Y18336381D01*
X29483110Y18288000D01*
X29386348Y18191239D01*
X29337967Y18094477D01*
X29289586Y17900953D01*
X29289586Y17755810D01*
X29337967Y17562286D01*
X29386348Y17465524D01*
X29483110Y17368762D01*
X29628253Y17320381D01*
X29870158Y17320381D01*
X28854158Y17320381D02*
X28854158Y18336381D01*
X28612253Y18336381D01*
X28467110Y18288000D01*
X28370348Y18191239D01*
X28321967Y18094477D01*
X28273586Y17900953D01*
X28273586Y17755810D01*
X28321967Y17562286D01*
X28370348Y17465524D01*
X28467110Y17368762D01*
X28612253Y17320381D01*
X28854158Y17320381D01*
X30208824Y15748000D02*
X30305586Y15796381D01*
X30450729Y15796381D01*
X30595872Y15748000D01*
X30692634Y15651239D01*
X30741015Y15554477D01*
X30789396Y15360953D01*
X30789396Y15215810D01*
X30741015Y15022286D01*
X30692634Y14925524D01*
X30595872Y14828762D01*
X30450729Y14780381D01*
X30353967Y14780381D01*
X30208824Y14828762D01*
X30160443Y14877143D01*
X30160443Y15215810D01*
X30353967Y15215810D01*
X29725015Y14780381D02*
X29725015Y15796381D01*
X29144443Y14780381D01*
X29144443Y15796381D01*
X28660634Y14780381D02*
X28660634Y15796381D01*
X28418729Y15796381D01*
X28273586Y15748000D01*
X28176824Y15651239D01*
X28128443Y15554477D01*
X28080062Y15360953D01*
X28080062Y15215810D01*
X28128443Y15022286D01*
X28176824Y14925524D01*
X28273586Y14828762D01*
X28418729Y14780381D01*
X28660634Y14780381D01*
X30789396Y7208762D02*
X30644253Y7160381D01*
X30402348Y7160381D01*
X30305586Y7208762D01*
X30257205Y7257143D01*
X30208824Y7353905D01*
X30208824Y7450667D01*
X30257205Y7547429D01*
X30305586Y7595810D01*
X30402348Y7644191D01*
X30595872Y7692572D01*
X30692634Y7740953D01*
X30741015Y7789334D01*
X30789396Y7886096D01*
X30789396Y7982858D01*
X30741015Y8079620D01*
X30692634Y8128000D01*
X30595872Y8176381D01*
X30353967Y8176381D01*
X30208824Y8128000D01*
X29773396Y7160381D02*
X29773396Y8176381D01*
X29531491Y8176381D01*
X29386348Y8128000D01*
X29289586Y8031239D01*
X29241205Y7934477D01*
X29192824Y7740953D01*
X29192824Y7595810D01*
X29241205Y7402286D01*
X29289586Y7305524D01*
X29386348Y7208762D01*
X29531491Y7160381D01*
X29773396Y7160381D01*
X28805777Y7450667D02*
X28321967Y7450667D01*
X28902539Y7160381D02*
X28563872Y8176381D01*
X28225205Y7160381D01*
X30741015Y12240381D02*
X30741015Y13256381D01*
X30257205Y12240381D02*
X30257205Y13256381D01*
X29676634Y12240381D01*
X29676634Y13256381D01*
X29337967Y13256381D02*
X28757396Y13256381D01*
X29047681Y12240381D02*
X29047681Y13256381D01*
X30886158Y20876381D02*
X30547491Y19860381D01*
X30208824Y20876381D01*
X29870158Y19860381D02*
X29870158Y20876381D01*
X29483110Y20876381D01*
X29386348Y20828000D01*
X29337967Y20779620D01*
X29289586Y20682858D01*
X29289586Y20537715D01*
X29337967Y20440953D01*
X29386348Y20392572D01*
X29483110Y20344191D01*
X29870158Y20344191D01*
X28854158Y20876381D02*
X28854158Y20053905D01*
X28805777Y19957143D01*
X28757396Y19908762D01*
X28660634Y19860381D01*
X28467110Y19860381D01*
X28370348Y19908762D01*
X28321967Y19957143D01*
X28273586Y20053905D01*
X28273586Y20876381D01*
X31267158Y23416381D02*
X30928491Y22400381D01*
X30589824Y23416381D01*
X29912491Y22932572D02*
X29767348Y22884191D01*
X29718967Y22835810D01*
X29670586Y22739048D01*
X29670586Y22593905D01*
X29718967Y22497143D01*
X29767348Y22448762D01*
X29864110Y22400381D01*
X30251158Y22400381D01*
X30251158Y23416381D01*
X29912491Y23416381D01*
X29815729Y23368000D01*
X29767348Y23319620D01*
X29718967Y23222858D01*
X29718967Y23126096D01*
X29767348Y23029334D01*
X29815729Y22980953D01*
X29912491Y22932572D01*
X30251158Y22932572D01*
X29235158Y23416381D02*
X29235158Y22593905D01*
X29186777Y22497143D01*
X29138396Y22448762D01*
X29041634Y22400381D01*
X28848110Y22400381D01*
X28751348Y22448762D01*
X28702967Y22497143D01*
X28654586Y22593905D01*
X28654586Y23416381D01*
X28219158Y22448762D02*
X28074015Y22400381D01*
X27832110Y22400381D01*
X27735348Y22448762D01*
X27686967Y22497143D01*
X27638586Y22593905D01*
X27638586Y22690667D01*
X27686967Y22787429D01*
X27735348Y22835810D01*
X27832110Y22884191D01*
X28025634Y22932572D01*
X28122396Y22980953D01*
X28170777Y23029334D01*
X28219158Y23126096D01*
X28219158Y23222858D01*
X28170777Y23319620D01*
X28122396Y23368000D01*
X28025634Y23416381D01*
X27783729Y23416381D01*
X27638586Y23368000D01*
X27445062Y22303620D02*
X26670967Y22303620D01*
X26477443Y22690667D02*
X25993634Y22690667D01*
X26574205Y22400381D02*
X26235539Y23416381D01*
X25896872Y22400381D01*
X30789396Y9748762D02*
X30644253Y9700381D01*
X30402348Y9700381D01*
X30305586Y9748762D01*
X30257205Y9797143D01*
X30208824Y9893905D01*
X30208824Y9990667D01*
X30257205Y10087429D01*
X30305586Y10135810D01*
X30402348Y10184191D01*
X30595872Y10232572D01*
X30692634Y10280953D01*
X30741015Y10329334D01*
X30789396Y10426096D01*
X30789396Y10522858D01*
X30741015Y10619620D01*
X30692634Y10668000D01*
X30595872Y10716381D01*
X30353967Y10716381D01*
X30208824Y10668000D01*
X29192824Y9797143D02*
X29241205Y9748762D01*
X29386348Y9700381D01*
X29483110Y9700381D01*
X29628253Y9748762D01*
X29725015Y9845524D01*
X29773396Y9942286D01*
X29821777Y10135810D01*
X29821777Y10280953D01*
X29773396Y10474477D01*
X29725015Y10571239D01*
X29628253Y10668000D01*
X29483110Y10716381D01*
X29386348Y10716381D01*
X29241205Y10668000D01*
X29192824Y10619620D01*
X28273586Y9700381D02*
X28757396Y9700381D01*
X28757396Y10716381D01*
X30208824Y5588000D02*
X30305586Y5636381D01*
X30450729Y5636381D01*
X30595872Y5588000D01*
X30692634Y5491239D01*
X30741015Y5394477D01*
X30789396Y5200953D01*
X30789396Y5055810D01*
X30741015Y4862286D01*
X30692634Y4765524D01*
X30595872Y4668762D01*
X30450729Y4620381D01*
X30353967Y4620381D01*
X30208824Y4668762D01*
X30160443Y4717143D01*
X30160443Y5055810D01*
X30353967Y5055810D01*
X29725015Y4620381D02*
X29725015Y5636381D01*
X29144443Y4620381D01*
X29144443Y5636381D01*
X28660634Y4620381D02*
X28660634Y5636381D01*
X28418729Y5636381D01*
X28273586Y5588000D01*
X28176824Y5491239D01*
X28128443Y5394477D01*
X28080062Y5200953D01*
X28080062Y5055810D01*
X28128443Y4862286D01*
X28176824Y4765524D01*
X28273586Y4668762D01*
X28418729Y4620381D01*
X28660634Y4620381D01*
X24645015Y25626181D02*
X24645015Y24803705D01*
X24596634Y24706943D01*
X24548253Y24658562D01*
X24451491Y24610181D01*
X24257967Y24610181D01*
X24161205Y24658562D01*
X24112824Y24706943D01*
X24064443Y24803705D01*
X24064443Y25626181D01*
X23629015Y24658562D02*
X23483872Y24610181D01*
X23241967Y24610181D01*
X23145205Y24658562D01*
X23096824Y24706943D01*
X23048443Y24803705D01*
X23048443Y24900467D01*
X23096824Y24997229D01*
X23145205Y25045610D01*
X23241967Y25093991D01*
X23435491Y25142372D01*
X23532253Y25190753D01*
X23580634Y25239134D01*
X23629015Y25335896D01*
X23629015Y25432658D01*
X23580634Y25529420D01*
X23532253Y25577800D01*
X23435491Y25626181D01*
X23193586Y25626181D01*
X23048443Y25577800D01*
X22274348Y25142372D02*
X22129205Y25093991D01*
X22080824Y25045610D01*
X22032443Y24948848D01*
X22032443Y24803705D01*
X22080824Y24706943D01*
X22129205Y24658562D01*
X22225967Y24610181D01*
X22613015Y24610181D01*
X22613015Y25626181D01*
X22274348Y25626181D01*
X22177586Y25577800D01*
X22129205Y25529420D01*
X22080824Y25432658D01*
X22080824Y25335896D01*
X22129205Y25239134D01*
X22177586Y25190753D01*
X22274348Y25142372D01*
X22613015Y25142372D01*
X20822920Y24610181D02*
X20822920Y25626181D01*
X20435872Y25626181D01*
X20339110Y25577800D01*
X20290729Y25529420D01*
X20242348Y25432658D01*
X20242348Y25287515D01*
X20290729Y25190753D01*
X20339110Y25142372D01*
X20435872Y25093991D01*
X20822920Y25093991D01*
X19661777Y24610181D02*
X19758539Y24658562D01*
X19806920Y24706943D01*
X19855300Y24803705D01*
X19855300Y25093991D01*
X19806920Y25190753D01*
X19758539Y25239134D01*
X19661777Y25287515D01*
X19516634Y25287515D01*
X19419872Y25239134D01*
X19371491Y25190753D01*
X19323110Y25093991D01*
X19323110Y24803705D01*
X19371491Y24706943D01*
X19419872Y24658562D01*
X19516634Y24610181D01*
X19661777Y24610181D01*
X18984443Y25287515D02*
X18790920Y24610181D01*
X18597396Y25093991D01*
X18403872Y24610181D01*
X18210348Y25287515D01*
X17436253Y24658562D02*
X17533015Y24610181D01*
X17726539Y24610181D01*
X17823300Y24658562D01*
X17871681Y24755324D01*
X17871681Y25142372D01*
X17823300Y25239134D01*
X17726539Y25287515D01*
X17533015Y25287515D01*
X17436253Y25239134D01*
X17387872Y25142372D01*
X17387872Y25045610D01*
X17871681Y24948848D01*
X16952443Y24610181D02*
X16952443Y25287515D01*
X16952443Y25093991D02*
X16904062Y25190753D01*
X16855681Y25239134D01*
X16758920Y25287515D01*
X16662158Y25287515D01*
X16323491Y24610181D02*
X16323491Y25626181D01*
X16081586Y25626181D01*
X15936443Y25577800D01*
X15839681Y25481039D01*
X15791300Y25384277D01*
X15742920Y25190753D01*
X15742920Y25045610D01*
X15791300Y24852086D01*
X15839681Y24755324D01*
X15936443Y24658562D01*
X16081586Y24610181D01*
X16323491Y24610181D01*
X14920443Y24658562D02*
X15017205Y24610181D01*
X15210729Y24610181D01*
X15307491Y24658562D01*
X15355872Y24755324D01*
X15355872Y25142372D01*
X15307491Y25239134D01*
X15210729Y25287515D01*
X15017205Y25287515D01*
X14920443Y25239134D01*
X14872062Y25142372D01*
X14872062Y25045610D01*
X15355872Y24948848D01*
X14291491Y24610181D02*
X14388253Y24658562D01*
X14436634Y24755324D01*
X14436634Y25626181D01*
X13904443Y24610181D02*
X13904443Y25287515D01*
X13904443Y25626181D02*
X13952824Y25577800D01*
X13904443Y25529420D01*
X13856062Y25577800D01*
X13904443Y25626181D01*
X13904443Y25529420D01*
X13517396Y25287515D02*
X13275491Y24610181D01*
X13033586Y25287515D01*
X12259491Y24658562D02*
X12356253Y24610181D01*
X12549777Y24610181D01*
X12646539Y24658562D01*
X12694920Y24755324D01*
X12694920Y25142372D01*
X12646539Y25239134D01*
X12549777Y25287515D01*
X12356253Y25287515D01*
X12259491Y25239134D01*
X12211110Y25142372D01*
X12211110Y25045610D01*
X12694920Y24948848D01*
X11775681Y24610181D02*
X11775681Y25287515D01*
X11775681Y25093991D02*
X11727300Y25190753D01*
X11678920Y25239134D01*
X11582158Y25287515D01*
X11485396Y25287515D01*
X11243491Y25287515D02*
X11001586Y24610181D01*
X10759681Y25287515D02*
X11001586Y24610181D01*
X11098348Y24368277D01*
X11146729Y24319896D01*
X11243491Y24271515D01*
X24306348Y23415172D02*
X24161205Y23366791D01*
X24112824Y23318410D01*
X24064443Y23221648D01*
X24064443Y23076505D01*
X24112824Y22979743D01*
X24161205Y22931362D01*
X24257967Y22882981D01*
X24645015Y22882981D01*
X24645015Y23898981D01*
X24306348Y23898981D01*
X24209586Y23850600D01*
X24161205Y23802220D01*
X24112824Y23705458D01*
X24112824Y23608696D01*
X24161205Y23511934D01*
X24209586Y23463553D01*
X24306348Y23415172D01*
X24645015Y23415172D01*
X23629015Y22882981D02*
X23629015Y23560315D01*
X23629015Y23366791D02*
X23580634Y23463553D01*
X23532253Y23511934D01*
X23435491Y23560315D01*
X23338729Y23560315D01*
X22613015Y22931362D02*
X22709777Y22882981D01*
X22903300Y22882981D01*
X23000062Y22931362D01*
X23048443Y23028124D01*
X23048443Y23415172D01*
X23000062Y23511934D01*
X22903300Y23560315D01*
X22709777Y23560315D01*
X22613015Y23511934D01*
X22564634Y23415172D01*
X22564634Y23318410D01*
X23048443Y23221648D01*
X21693777Y22882981D02*
X21693777Y23415172D01*
X21742158Y23511934D01*
X21838920Y23560315D01*
X22032443Y23560315D01*
X22129205Y23511934D01*
X21693777Y22931362D02*
X21790539Y22882981D01*
X22032443Y22882981D01*
X22129205Y22931362D01*
X22177586Y23028124D01*
X22177586Y23124886D01*
X22129205Y23221648D01*
X22032443Y23270029D01*
X21790539Y23270029D01*
X21693777Y23318410D01*
X21209967Y22882981D02*
X21209967Y23898981D01*
X21113205Y23270029D02*
X20822920Y22882981D01*
X20822920Y23560315D02*
X21209967Y23173267D01*
X20242348Y22882981D02*
X20339110Y22931362D01*
X20387491Y22979743D01*
X20435872Y23076505D01*
X20435872Y23366791D01*
X20387491Y23463553D01*
X20339110Y23511934D01*
X20242348Y23560315D01*
X20097205Y23560315D01*
X20000443Y23511934D01*
X19952062Y23463553D01*
X19903681Y23366791D01*
X19903681Y23076505D01*
X19952062Y22979743D01*
X20000443Y22931362D01*
X20097205Y22882981D01*
X20242348Y22882981D01*
X19032824Y23560315D02*
X19032824Y22882981D01*
X19468253Y23560315D02*
X19468253Y23028124D01*
X19419872Y22931362D01*
X19323110Y22882981D01*
X19177967Y22882981D01*
X19081205Y22931362D01*
X19032824Y22979743D01*
X18694158Y23560315D02*
X18307110Y23560315D01*
X18549015Y23898981D02*
X18549015Y23028124D01*
X18500634Y22931362D01*
X18403872Y22882981D01*
X18307110Y22882981D01*
X16855681Y23415172D02*
X16710539Y23366791D01*
X16662158Y23318410D01*
X16613777Y23221648D01*
X16613777Y23076505D01*
X16662158Y22979743D01*
X16710539Y22931362D01*
X16807300Y22882981D01*
X17194348Y22882981D01*
X17194348Y23898981D01*
X16855681Y23898981D01*
X16758920Y23850600D01*
X16710539Y23802220D01*
X16662158Y23705458D01*
X16662158Y23608696D01*
X16710539Y23511934D01*
X16758920Y23463553D01*
X16855681Y23415172D01*
X17194348Y23415172D01*
X16033205Y22882981D02*
X16129967Y22931362D01*
X16178348Y22979743D01*
X16226729Y23076505D01*
X16226729Y23366791D01*
X16178348Y23463553D01*
X16129967Y23511934D01*
X16033205Y23560315D01*
X15888062Y23560315D01*
X15791300Y23511934D01*
X15742920Y23463553D01*
X15694539Y23366791D01*
X15694539Y23076505D01*
X15742920Y22979743D01*
X15791300Y22931362D01*
X15888062Y22882981D01*
X16033205Y22882981D01*
X14823681Y22882981D02*
X14823681Y23415172D01*
X14872062Y23511934D01*
X14968824Y23560315D01*
X15162348Y23560315D01*
X15259110Y23511934D01*
X14823681Y22931362D02*
X14920443Y22882981D01*
X15162348Y22882981D01*
X15259110Y22931362D01*
X15307491Y23028124D01*
X15307491Y23124886D01*
X15259110Y23221648D01*
X15162348Y23270029D01*
X14920443Y23270029D01*
X14823681Y23318410D01*
X14339872Y22882981D02*
X14339872Y23560315D01*
X14339872Y23366791D02*
X14291491Y23463553D01*
X14243110Y23511934D01*
X14146348Y23560315D01*
X14049586Y23560315D01*
X13275491Y22882981D02*
X13275491Y23898981D01*
X13275491Y22931362D02*
X13372253Y22882981D01*
X13565777Y22882981D01*
X13662539Y22931362D01*
X13710920Y22979743D01*
X13759300Y23076505D01*
X13759300Y23366791D01*
X13710920Y23463553D01*
X13662539Y23511934D01*
X13565777Y23560315D01*
X13372253Y23560315D01*
X13275491Y23511934D01*
X24064443Y21155781D02*
X24403110Y21639591D01*
X24645015Y21155781D02*
X24645015Y22171781D01*
X24257967Y22171781D01*
X24161205Y22123400D01*
X24112824Y22075020D01*
X24064443Y21978258D01*
X24064443Y21833115D01*
X24112824Y21736353D01*
X24161205Y21687972D01*
X24257967Y21639591D01*
X24645015Y21639591D01*
X23241967Y21204162D02*
X23338729Y21155781D01*
X23532253Y21155781D01*
X23629015Y21204162D01*
X23677396Y21300924D01*
X23677396Y21687972D01*
X23629015Y21784734D01*
X23532253Y21833115D01*
X23338729Y21833115D01*
X23241967Y21784734D01*
X23193586Y21687972D01*
X23193586Y21591210D01*
X23677396Y21494448D01*
X22854920Y21833115D02*
X22613015Y21155781D01*
X22371110Y21833115D01*
X20774539Y21833115D02*
X20774539Y21155781D01*
X21016443Y22220162D02*
X21258348Y21494448D01*
X20629396Y21494448D01*
X24064443Y19428581D02*
X24403110Y19912391D01*
X24645015Y19428581D02*
X24645015Y20444581D01*
X24257967Y20444581D01*
X24161205Y20396200D01*
X24112824Y20347820D01*
X24064443Y20251058D01*
X24064443Y20105915D01*
X24112824Y20009153D01*
X24161205Y19960772D01*
X24257967Y19912391D01*
X24645015Y19912391D01*
X23241967Y19476962D02*
X23338729Y19428581D01*
X23532253Y19428581D01*
X23629015Y19476962D01*
X23677396Y19573724D01*
X23677396Y19960772D01*
X23629015Y20057534D01*
X23532253Y20105915D01*
X23338729Y20105915D01*
X23241967Y20057534D01*
X23193586Y19960772D01*
X23193586Y19864010D01*
X23677396Y19767248D01*
X22322729Y19476962D02*
X22419491Y19428581D01*
X22613015Y19428581D01*
X22709777Y19476962D01*
X22758158Y19525343D01*
X22806539Y19622105D01*
X22806539Y19912391D01*
X22758158Y20009153D01*
X22709777Y20057534D01*
X22613015Y20105915D01*
X22419491Y20105915D01*
X22322729Y20057534D01*
X21742158Y19428581D02*
X21838920Y19476962D01*
X21887300Y19573724D01*
X21887300Y20444581D01*
X20919681Y19428581D02*
X20919681Y19960772D01*
X20968062Y20057534D01*
X21064824Y20105915D01*
X21258348Y20105915D01*
X21355110Y20057534D01*
X20919681Y19476962D02*
X21016443Y19428581D01*
X21258348Y19428581D01*
X21355110Y19476962D01*
X21403491Y19573724D01*
X21403491Y19670486D01*
X21355110Y19767248D01*
X21258348Y19815629D01*
X21016443Y19815629D01*
X20919681Y19864010D01*
X20435872Y19428581D02*
X20435872Y20105915D01*
X20435872Y20444581D02*
X20484253Y20396200D01*
X20435872Y20347820D01*
X20387491Y20396200D01*
X20435872Y20444581D01*
X20435872Y20347820D01*
X19952062Y19428581D02*
X19952062Y20105915D01*
X19952062Y20009153D02*
X19903681Y20057534D01*
X19806920Y20105915D01*
X19661777Y20105915D01*
X19565015Y20057534D01*
X19516634Y19960772D01*
X19516634Y19428581D01*
X19516634Y19960772D02*
X19468253Y20057534D01*
X19371491Y20105915D01*
X19226348Y20105915D01*
X19129586Y20057534D01*
X19081205Y19960772D01*
X19081205Y19428581D01*
X18210348Y19476962D02*
X18307110Y19428581D01*
X18500634Y19428581D01*
X18597396Y19476962D01*
X18645777Y19573724D01*
X18645777Y19960772D01*
X18597396Y20057534D01*
X18500634Y20105915D01*
X18307110Y20105915D01*
X18210348Y20057534D01*
X18161967Y19960772D01*
X18161967Y19864010D01*
X18645777Y19767248D01*
X17726539Y19428581D02*
X17726539Y20105915D01*
X17726539Y19912391D02*
X17678158Y20009153D01*
X17629777Y20057534D01*
X17533015Y20105915D01*
X17436253Y20105915D01*
X16613777Y19428581D02*
X17097586Y19428581D01*
X17097586Y20444581D01*
X15839681Y19428581D02*
X15839681Y19960772D01*
X15888062Y20057534D01*
X15984824Y20105915D01*
X16178348Y20105915D01*
X16275110Y20057534D01*
X15839681Y19476962D02*
X15936443Y19428581D01*
X16178348Y19428581D01*
X16275110Y19476962D01*
X16323491Y19573724D01*
X16323491Y19670486D01*
X16275110Y19767248D01*
X16178348Y19815629D01*
X15936443Y19815629D01*
X15839681Y19864010D01*
X15355872Y19428581D02*
X15355872Y20444581D01*
X15355872Y20057534D02*
X15259110Y20105915D01*
X15065586Y20105915D01*
X14968824Y20057534D01*
X14920443Y20009153D01*
X14872062Y19912391D01*
X14872062Y19622105D01*
X14920443Y19525343D01*
X14968824Y19476962D01*
X15065586Y19428581D01*
X15259110Y19428581D01*
X15355872Y19476962D01*
X14485015Y19476962D02*
X14388253Y19428581D01*
X14194729Y19428581D01*
X14097967Y19476962D01*
X14049586Y19573724D01*
X14049586Y19622105D01*
X14097967Y19718867D01*
X14194729Y19767248D01*
X14339872Y19767248D01*
X14436634Y19815629D01*
X14485015Y19912391D01*
X14485015Y19960772D01*
X14436634Y20057534D01*
X14339872Y20105915D01*
X14194729Y20105915D01*
X14097967Y20057534D01*
X13614158Y19525343D02*
X13565777Y19476962D01*
X13614158Y19428581D01*
X13662539Y19476962D01*
X13614158Y19525343D01*
X13614158Y19428581D01*
X12694920Y19476962D02*
X12791681Y19428581D01*
X12985205Y19428581D01*
X13081967Y19476962D01*
X13130348Y19525343D01*
X13178729Y19622105D01*
X13178729Y19912391D01*
X13130348Y20009153D01*
X13081967Y20057534D01*
X12985205Y20105915D01*
X12791681Y20105915D01*
X12694920Y20057534D01*
X12114348Y19428581D02*
X12211110Y19476962D01*
X12259491Y19525343D01*
X12307872Y19622105D01*
X12307872Y19912391D01*
X12259491Y20009153D01*
X12211110Y20057534D01*
X12114348Y20105915D01*
X11969205Y20105915D01*
X11872443Y20057534D01*
X11824062Y20009153D01*
X11775681Y19912391D01*
X11775681Y19622105D01*
X11824062Y19525343D01*
X11872443Y19476962D01*
X11969205Y19428581D01*
X12114348Y19428581D01*
X11340253Y19428581D02*
X11340253Y20105915D01*
X11340253Y20009153D02*
X11291872Y20057534D01*
X11195110Y20105915D01*
X11049967Y20105915D01*
X10953205Y20057534D01*
X10904824Y19960772D01*
X10904824Y19428581D01*
X10904824Y19960772D02*
X10856443Y20057534D01*
X10759681Y20105915D01*
X10614539Y20105915D01*
X10517777Y20057534D01*
X10469396Y19960772D01*
X10469396Y19428581D01*
%LPC*%
D11*
X1770000Y9680000D03*
X1770000Y18320000D03*
D12*
X7130000Y9680000D03*
X7130000Y18320000D03*
D13*
X11430000Y5795000D03*
D14*
X11430000Y3255000D03*
X13970000Y5795000D03*
X13970000Y3255000D03*
X16510000Y5795000D03*
X16510000Y3255000D03*
D15*
X4000000Y3890000D03*
D16*
X6625000Y3890000D03*
X5856155Y2033845D03*
X4000000Y1265000D03*
X2143845Y2033845D03*
X1375000Y3890000D03*
X2143845Y5746155D03*
X4000000Y6515000D03*
X5856155Y5746155D03*
D15*
X4000000Y24000000D03*
D16*
X6625000Y24000000D03*
X5856155Y22143845D03*
X4000000Y21375000D03*
X2143845Y22143845D03*
X1375000Y24000000D03*
X2143845Y25856155D03*
X4000000Y26625000D03*
X5856155Y25856155D03*
D17*
X33020000Y5160000D03*
X33020000Y7700000D03*
X33020000Y10240000D03*
X33020000Y12780000D03*
X33020000Y15320000D03*
X33020000Y17860000D03*
X33020000Y20400000D03*
D18*
X33020000Y22940000D03*
M02*
