M48
;DRILL file {KiCad 4.0.6} date 03/18/17 14:34:36
;FORMAT={2:4/ absolute / inch / suppress leading zeros}
FMAT,2
INCH,TZ
T1C0.015
T2C0.020
T3C0.040
T4C0.138
%
G90
G05
M72
T1
X1700Y7700
X1700Y7350
X2050Y8850
X2050Y8550
X2050Y7350
X2050Y6350
X2050Y6050
X3350Y8850
X3399Y7699
X3400Y6300
X3400Y7349
X3550Y9350
X3550Y9050
X3700Y6300
X3700Y6000
X3737Y8081
X3850Y9350
X3850Y9050
X4000Y6300
X4000Y6000
X4300Y10800
X4300Y10450
X4650Y10800
X4650Y10450
X5000Y10800
X5000Y10450
X6500Y4500
X6750Y4250
X7000Y4000
X7100Y5100
X7350Y4850
X7600Y4600
X8500Y3950
X8550Y3050
X9000Y5100
X10450Y4500
X10550Y6000
X10550Y5650
X10800Y4500
X10900Y6000
X10900Y5650
X12250Y6000
X12250Y5650
X12300Y9750
X12600Y9750
X12600Y6000
X12600Y5650
T2
X541Y11417
X541Y1575
X844Y12148
X844Y10687
X844Y2306
X844Y844
X1575Y12451
X1575Y10384
X1575Y2608
X1575Y541
X2306Y12148
X2306Y10687
X2306Y2306
X2306Y844
X2608Y11417
X2608Y1575
X12352Y11417
X12352Y1575
X12655Y12148
X12655Y10687
X12655Y2306
X12655Y844
X13386Y12451
X13386Y10384
X13386Y2608
X13386Y541
X14117Y12148
X14117Y10687
X14117Y2306
X14117Y844
X14419Y11417
X14419Y1575
T3
X3500Y4250
X3500Y3250
X4500Y4250
X4500Y3250
X5500Y4250
X5500Y3250
X7750Y8000
X7750Y7000
X8750Y8000
X8750Y7000
X9750Y8000
X9750Y7000
X10750Y8000
X10750Y7000
X11750Y8000
X11750Y7000
X12750Y8000
X12750Y7000
T4
X1575Y11417
X1575Y1575
X13386Y11417
X13386Y1575
T0
M30
