G04 #@! TF.FileFunction,Soldermask,Bot*
%FSLAX46Y46*%
G04 Gerber Fmt 4.6, Leading zero omitted, Abs format (unit mm)*
G04 Created by KiCad (PCBNEW 4.0.6) date 03/18/17 14:34:34*
%MOMM*%
%LPD*%
G01*
G04 APERTURE LIST*
%ADD10C,0.254000*%
%ADD11R,2.127200X2.127200*%
%ADD12O,2.127200X2.127200*%
%ADD13C,7.400000*%
%ADD14C,1.000000*%
%ADD15O,2.500000X1.500000*%
%ADD16O,3.000000X1.500000*%
G04 APERTURE END LIST*
D10*
D11*
X32385000Y17780000D03*
D12*
X32385000Y20320000D03*
X29845000Y17780000D03*
X29845000Y20320000D03*
X27305000Y17780000D03*
X27305000Y20320000D03*
D11*
X8890000Y10795000D03*
D12*
X8890000Y8255000D03*
X11430000Y10795000D03*
X11430000Y8255000D03*
X13970000Y10795000D03*
X13970000Y8255000D03*
D11*
X19685000Y20320000D03*
D12*
X19685000Y17780000D03*
X22225000Y20320000D03*
X22225000Y17780000D03*
X24765000Y20320000D03*
X24765000Y17780000D03*
D13*
X4000000Y4000000D03*
D14*
X6625000Y4000000D03*
X5856155Y2143845D03*
X4000000Y1375000D03*
X2143845Y2143845D03*
X1375000Y4000000D03*
X2143845Y5856155D03*
X4000000Y6625000D03*
X5856155Y5856155D03*
D13*
X4000000Y29000000D03*
D14*
X6625000Y29000000D03*
X5856155Y27143845D03*
X4000000Y26375000D03*
X2143845Y27143845D03*
X1375000Y29000000D03*
X2143845Y30856155D03*
X4000000Y31625000D03*
X5856155Y30856155D03*
D13*
X34000000Y29000000D03*
D14*
X36625000Y29000000D03*
X35856155Y27143845D03*
X34000000Y26375000D03*
X32143845Y27143845D03*
X31375000Y29000000D03*
X32143845Y30856155D03*
X34000000Y31625000D03*
X35856155Y30856155D03*
D13*
X34000000Y4000000D03*
D14*
X36625000Y4000000D03*
X35856155Y2143845D03*
X34000000Y1375000D03*
X32143845Y2143845D03*
X31375000Y4000000D03*
X32143845Y5856155D03*
X34000000Y6625000D03*
X35856155Y5856155D03*
D15*
X7130000Y23320000D03*
X7130000Y14680000D03*
D16*
X1770000Y23320000D03*
X1770000Y14680000D03*
M02*
