G04 #@! TF.FileFunction,Legend,Top*
%FSLAX46Y46*%
G04 Gerber Fmt 4.6, Leading zero omitted, Abs format (unit mm)*
G04 Created by KiCad (PCBNEW 4.0.1-stable) date 1/20/2016 02:09:16*
%MOMM*%
G01*
G04 APERTURE LIST*
%ADD10C,0.254000*%
%ADD11C,0.203200*%
%ADD12C,0.150000*%
%ADD13C,0.100000*%
%ADD14R,1.200000X1.150000*%
%ADD15R,1.100000X1.700000*%
%ADD16R,1.150000X1.200000*%
%ADD17R,2.127200X2.127200*%
%ADD18O,2.127200X2.127200*%
%ADD19R,4.400000X1.400000*%
%ADD20C,2.700000*%
%ADD21R,2.127200X2.432000*%
%ADD22O,2.127200X2.432000*%
%ADD23R,1.700000X1.100000*%
%ADD24R,0.980000X0.700000*%
%ADD25R,0.700000X0.980000*%
%ADD26R,1.850000X1.850000*%
%ADD27R,2.432000X2.432000*%
%ADD28O,2.432000X2.432000*%
%ADD29O,2.300000X1.600000*%
%ADD30O,3.000000X1.700000*%
%ADD31R,1.250000X0.700000*%
%ADD32R,1.250000X0.650000*%
%ADD33O,1.500000X1.950000*%
%ADD34O,1.000000X1.250000*%
%ADD35C,1.000000*%
G04 APERTURE END LIST*
D10*
D11*
X62435619Y-94899238D02*
X63451619Y-94560571D01*
X62435619Y-94221905D01*
X62774286Y-93883238D02*
X63790286Y-93883238D01*
X62822667Y-93883238D02*
X62774286Y-93786476D01*
X62774286Y-93592953D01*
X62822667Y-93496191D01*
X62871048Y-93447810D01*
X62967810Y-93399429D01*
X63258095Y-93399429D01*
X63354857Y-93447810D01*
X63403238Y-93496191D01*
X63451619Y-93592953D01*
X63451619Y-93786476D01*
X63403238Y-93883238D01*
X62774286Y-92528572D02*
X63451619Y-92528572D01*
X62774286Y-92964000D02*
X63306476Y-92964000D01*
X63403238Y-92915619D01*
X63451619Y-92818857D01*
X63451619Y-92673715D01*
X63403238Y-92576953D01*
X63354857Y-92528572D01*
X59768619Y-95153238D02*
X60784619Y-94814571D01*
X59768619Y-94475905D01*
X60784619Y-94137238D02*
X59768619Y-94137238D01*
X60155667Y-94137238D02*
X60107286Y-94040476D01*
X60107286Y-93846953D01*
X60155667Y-93750191D01*
X60204048Y-93701810D01*
X60300810Y-93653429D01*
X60591095Y-93653429D01*
X60687857Y-93701810D01*
X60736238Y-93750191D01*
X60784619Y-93846953D01*
X60784619Y-94040476D01*
X60736238Y-94137238D01*
X60107286Y-92782572D02*
X60784619Y-92782572D01*
X60107286Y-93218000D02*
X60639476Y-93218000D01*
X60736238Y-93169619D01*
X60784619Y-93072857D01*
X60784619Y-92927715D01*
X60736238Y-92830953D01*
X60687857Y-92782572D01*
X60736238Y-92347143D02*
X60784619Y-92250381D01*
X60784619Y-92056857D01*
X60736238Y-91960096D01*
X60639476Y-91911715D01*
X60591095Y-91911715D01*
X60494333Y-91960096D01*
X60445952Y-92056857D01*
X60445952Y-92202000D01*
X60397571Y-92298762D01*
X60300810Y-92347143D01*
X60252429Y-92347143D01*
X60155667Y-92298762D01*
X60107286Y-92202000D01*
X60107286Y-92056857D01*
X60155667Y-91960096D01*
X92262476Y-96166819D02*
X91923810Y-95683010D01*
X91681905Y-96166819D02*
X91681905Y-95150819D01*
X92068952Y-95150819D01*
X92165714Y-95199200D01*
X92214095Y-95247581D01*
X92262476Y-95344343D01*
X92262476Y-95489486D01*
X92214095Y-95586248D01*
X92165714Y-95634629D01*
X92068952Y-95683010D01*
X91681905Y-95683010D01*
X93084952Y-96118438D02*
X92988190Y-96166819D01*
X92794667Y-96166819D01*
X92697905Y-96118438D01*
X92649524Y-96021676D01*
X92649524Y-95634629D01*
X92697905Y-95537867D01*
X92794667Y-95489486D01*
X92988190Y-95489486D01*
X93084952Y-95537867D01*
X93133333Y-95634629D01*
X93133333Y-95731390D01*
X92649524Y-95828152D01*
X94004190Y-96118438D02*
X93907428Y-96166819D01*
X93713905Y-96166819D01*
X93617143Y-96118438D01*
X93568762Y-96070057D01*
X93520381Y-95973295D01*
X93520381Y-95683010D01*
X93568762Y-95586248D01*
X93617143Y-95537867D01*
X93713905Y-95489486D01*
X93907428Y-95489486D01*
X94004190Y-95537867D01*
X94584762Y-96166819D02*
X94488000Y-96118438D01*
X94439619Y-96021676D01*
X94439619Y-95150819D01*
X95407237Y-96166819D02*
X95407237Y-95634629D01*
X95358856Y-95537867D01*
X95262094Y-95489486D01*
X95068571Y-95489486D01*
X94971809Y-95537867D01*
X95407237Y-96118438D02*
X95310475Y-96166819D01*
X95068571Y-96166819D01*
X94971809Y-96118438D01*
X94923428Y-96021676D01*
X94923428Y-95924914D01*
X94971809Y-95828152D01*
X95068571Y-95779771D01*
X95310475Y-95779771D01*
X95407237Y-95731390D01*
X95891047Y-96166819D02*
X95891047Y-95489486D01*
X95891047Y-95150819D02*
X95842666Y-95199200D01*
X95891047Y-95247581D01*
X95939428Y-95199200D01*
X95891047Y-95150819D01*
X95891047Y-95247581D01*
X96374857Y-96166819D02*
X96374857Y-95489486D01*
X96374857Y-95586248D02*
X96423238Y-95537867D01*
X96520000Y-95489486D01*
X96665142Y-95489486D01*
X96761904Y-95537867D01*
X96810285Y-95634629D01*
X96810285Y-96166819D01*
X96810285Y-95634629D02*
X96858666Y-95537867D01*
X96955428Y-95489486D01*
X97100571Y-95489486D01*
X97197333Y-95537867D01*
X97245714Y-95634629D01*
X97245714Y-96166819D01*
X98116571Y-96118438D02*
X98019809Y-96166819D01*
X97826286Y-96166819D01*
X97729524Y-96118438D01*
X97681143Y-96021676D01*
X97681143Y-95634629D01*
X97729524Y-95537867D01*
X97826286Y-95489486D01*
X98019809Y-95489486D01*
X98116571Y-95537867D01*
X98164952Y-95634629D01*
X98164952Y-95731390D01*
X97681143Y-95828152D01*
X98600381Y-96166819D02*
X98600381Y-95489486D01*
X98600381Y-95683010D02*
X98648762Y-95586248D01*
X98697143Y-95537867D01*
X98793905Y-95489486D01*
X98890666Y-95489486D01*
X100487237Y-96166819D02*
X100003428Y-96166819D01*
X100003428Y-95150819D01*
X101261332Y-96166819D02*
X101261332Y-95634629D01*
X101212951Y-95537867D01*
X101116189Y-95489486D01*
X100922666Y-95489486D01*
X100825904Y-95537867D01*
X101261332Y-96118438D02*
X101164570Y-96166819D01*
X100922666Y-96166819D01*
X100825904Y-96118438D01*
X100777523Y-96021676D01*
X100777523Y-95924914D01*
X100825904Y-95828152D01*
X100922666Y-95779771D01*
X101164570Y-95779771D01*
X101261332Y-95731390D01*
X101745142Y-96166819D02*
X101745142Y-95150819D01*
X101745142Y-95537867D02*
X101841904Y-95489486D01*
X102035427Y-95489486D01*
X102132189Y-95537867D01*
X102180570Y-95586248D01*
X102228951Y-95683010D01*
X102228951Y-95973295D01*
X102180570Y-96070057D01*
X102132189Y-96118438D01*
X102035427Y-96166819D01*
X101841904Y-96166819D01*
X101745142Y-96118438D01*
X102615999Y-96118438D02*
X102712761Y-96166819D01*
X102906285Y-96166819D01*
X103003046Y-96118438D01*
X103051427Y-96021676D01*
X103051427Y-95973295D01*
X103003046Y-95876533D01*
X102906285Y-95828152D01*
X102761142Y-95828152D01*
X102664380Y-95779771D01*
X102615999Y-95683010D01*
X102615999Y-95634629D01*
X102664380Y-95537867D01*
X102761142Y-95489486D01*
X102906285Y-95489486D01*
X103003046Y-95537867D01*
X103535237Y-96118438D02*
X103535237Y-96166819D01*
X103486856Y-96263581D01*
X103438475Y-96311962D01*
X105228570Y-96166819D02*
X104744761Y-96166819D01*
X104744761Y-95150819D01*
X106051046Y-96166819D02*
X105567237Y-96166819D01*
X105567237Y-95150819D01*
X106970284Y-96070057D02*
X106921903Y-96118438D01*
X106776760Y-96166819D01*
X106679998Y-96166819D01*
X106534856Y-96118438D01*
X106438094Y-96021676D01*
X106389713Y-95924914D01*
X106341332Y-95731390D01*
X106341332Y-95586248D01*
X106389713Y-95392724D01*
X106438094Y-95295962D01*
X106534856Y-95199200D01*
X106679998Y-95150819D01*
X106776760Y-95150819D01*
X106921903Y-95199200D01*
X106970284Y-95247581D01*
X91681905Y-97792419D02*
X91681905Y-97115086D01*
X91681905Y-97308610D02*
X91730286Y-97211848D01*
X91778667Y-97163467D01*
X91875429Y-97115086D01*
X91972190Y-97115086D01*
X92697904Y-97744038D02*
X92601142Y-97792419D01*
X92407619Y-97792419D01*
X92310857Y-97744038D01*
X92262476Y-97647276D01*
X92262476Y-97260229D01*
X92310857Y-97163467D01*
X92407619Y-97115086D01*
X92601142Y-97115086D01*
X92697904Y-97163467D01*
X92746285Y-97260229D01*
X92746285Y-97356990D01*
X92262476Y-97453752D01*
X93617142Y-97744038D02*
X93520380Y-97792419D01*
X93326857Y-97792419D01*
X93230095Y-97744038D01*
X93181714Y-97695657D01*
X93133333Y-97598895D01*
X93133333Y-97308610D01*
X93181714Y-97211848D01*
X93230095Y-97163467D01*
X93326857Y-97115086D01*
X93520380Y-97115086D01*
X93617142Y-97163467D01*
X94197714Y-97792419D02*
X94100952Y-97744038D01*
X94052571Y-97647276D01*
X94052571Y-96776419D01*
X95020189Y-97792419D02*
X95020189Y-97260229D01*
X94971808Y-97163467D01*
X94875046Y-97115086D01*
X94681523Y-97115086D01*
X94584761Y-97163467D01*
X95020189Y-97744038D02*
X94923427Y-97792419D01*
X94681523Y-97792419D01*
X94584761Y-97744038D01*
X94536380Y-97647276D01*
X94536380Y-97550514D01*
X94584761Y-97453752D01*
X94681523Y-97405371D01*
X94923427Y-97405371D01*
X95020189Y-97356990D01*
X95503999Y-97792419D02*
X95503999Y-97115086D01*
X95503999Y-96776419D02*
X95455618Y-96824800D01*
X95503999Y-96873181D01*
X95552380Y-96824800D01*
X95503999Y-96776419D01*
X95503999Y-96873181D01*
X95987809Y-97792419D02*
X95987809Y-97115086D01*
X95987809Y-97211848D02*
X96036190Y-97163467D01*
X96132952Y-97115086D01*
X96278094Y-97115086D01*
X96374856Y-97163467D01*
X96423237Y-97260229D01*
X96423237Y-97792419D01*
X96423237Y-97260229D02*
X96471618Y-97163467D01*
X96568380Y-97115086D01*
X96713523Y-97115086D01*
X96810285Y-97163467D01*
X96858666Y-97260229D01*
X96858666Y-97792419D01*
X97729523Y-97744038D02*
X97632761Y-97792419D01*
X97439238Y-97792419D01*
X97342476Y-97744038D01*
X97294095Y-97647276D01*
X97294095Y-97260229D01*
X97342476Y-97163467D01*
X97439238Y-97115086D01*
X97632761Y-97115086D01*
X97729523Y-97163467D01*
X97777904Y-97260229D01*
X97777904Y-97356990D01*
X97294095Y-97453752D01*
X98213333Y-97792419D02*
X98213333Y-97115086D01*
X98213333Y-97308610D02*
X98261714Y-97211848D01*
X98310095Y-97163467D01*
X98406857Y-97115086D01*
X98503618Y-97115086D01*
X98987428Y-97792419D02*
X98890666Y-97744038D01*
X98842285Y-97647276D01*
X98842285Y-96776419D01*
X99809903Y-97792419D02*
X99809903Y-97260229D01*
X99761522Y-97163467D01*
X99664760Y-97115086D01*
X99471237Y-97115086D01*
X99374475Y-97163467D01*
X99809903Y-97744038D02*
X99713141Y-97792419D01*
X99471237Y-97792419D01*
X99374475Y-97744038D01*
X99326094Y-97647276D01*
X99326094Y-97550514D01*
X99374475Y-97453752D01*
X99471237Y-97405371D01*
X99713141Y-97405371D01*
X99809903Y-97356990D01*
X100293713Y-97792419D02*
X100293713Y-96776419D01*
X100293713Y-97163467D02*
X100390475Y-97115086D01*
X100583998Y-97115086D01*
X100680760Y-97163467D01*
X100729141Y-97211848D01*
X100777522Y-97308610D01*
X100777522Y-97598895D01*
X100729141Y-97695657D01*
X100680760Y-97744038D01*
X100583998Y-97792419D01*
X100390475Y-97792419D01*
X100293713Y-97744038D01*
X101164570Y-97744038D02*
X101261332Y-97792419D01*
X101454856Y-97792419D01*
X101551617Y-97744038D01*
X101599998Y-97647276D01*
X101599998Y-97598895D01*
X101551617Y-97502133D01*
X101454856Y-97453752D01*
X101309713Y-97453752D01*
X101212951Y-97405371D01*
X101164570Y-97308610D01*
X101164570Y-97260229D01*
X101212951Y-97163467D01*
X101309713Y-97115086D01*
X101454856Y-97115086D01*
X101551617Y-97163467D01*
X102035427Y-97695657D02*
X102083808Y-97744038D01*
X102035427Y-97792419D01*
X101987046Y-97744038D01*
X102035427Y-97695657D01*
X102035427Y-97792419D01*
X102954665Y-97744038D02*
X102857903Y-97792419D01*
X102664380Y-97792419D01*
X102567618Y-97744038D01*
X102519237Y-97695657D01*
X102470856Y-97598895D01*
X102470856Y-97308610D01*
X102519237Y-97211848D01*
X102567618Y-97163467D01*
X102664380Y-97115086D01*
X102857903Y-97115086D01*
X102954665Y-97163467D01*
X103535237Y-97792419D02*
X103438475Y-97744038D01*
X103390094Y-97695657D01*
X103341713Y-97598895D01*
X103341713Y-97308610D01*
X103390094Y-97211848D01*
X103438475Y-97163467D01*
X103535237Y-97115086D01*
X103680379Y-97115086D01*
X103777141Y-97163467D01*
X103825522Y-97211848D01*
X103873903Y-97308610D01*
X103873903Y-97598895D01*
X103825522Y-97695657D01*
X103777141Y-97744038D01*
X103680379Y-97792419D01*
X103535237Y-97792419D01*
X104309332Y-97792419D02*
X104309332Y-97115086D01*
X104309332Y-97211848D02*
X104357713Y-97163467D01*
X104454475Y-97115086D01*
X104599617Y-97115086D01*
X104696379Y-97163467D01*
X104744760Y-97260229D01*
X104744760Y-97792419D01*
X104744760Y-97260229D02*
X104793141Y-97163467D01*
X104889903Y-97115086D01*
X105035046Y-97115086D01*
X105131808Y-97163467D01*
X105180189Y-97260229D01*
X105180189Y-97792419D01*
X82791905Y-74830819D02*
X82791905Y-75653295D01*
X82840286Y-75750057D01*
X82888667Y-75798438D01*
X82985429Y-75846819D01*
X83178952Y-75846819D01*
X83275714Y-75798438D01*
X83324095Y-75750057D01*
X83372476Y-75653295D01*
X83372476Y-74830819D01*
X83807905Y-75798438D02*
X83953048Y-75846819D01*
X84194952Y-75846819D01*
X84291714Y-75798438D01*
X84340095Y-75750057D01*
X84388476Y-75653295D01*
X84388476Y-75556533D01*
X84340095Y-75459771D01*
X84291714Y-75411390D01*
X84194952Y-75363010D01*
X84001429Y-75314629D01*
X83904667Y-75266248D01*
X83856286Y-75217867D01*
X83807905Y-75121105D01*
X83807905Y-75024343D01*
X83856286Y-74927581D01*
X83904667Y-74879200D01*
X84001429Y-74830819D01*
X84243333Y-74830819D01*
X84388476Y-74879200D01*
X85162571Y-75314629D02*
X85307714Y-75363010D01*
X85356095Y-75411390D01*
X85404476Y-75508152D01*
X85404476Y-75653295D01*
X85356095Y-75750057D01*
X85307714Y-75798438D01*
X85210952Y-75846819D01*
X84823905Y-75846819D01*
X84823905Y-74830819D01*
X85162571Y-74830819D01*
X85259333Y-74879200D01*
X85307714Y-74927581D01*
X85356095Y-75024343D01*
X85356095Y-75121105D01*
X85307714Y-75217867D01*
X85259333Y-75266248D01*
X85162571Y-75314629D01*
X84823905Y-75314629D01*
X86614000Y-75846819D02*
X86614000Y-74830819D01*
X87001047Y-74830819D01*
X87097809Y-74879200D01*
X87146190Y-74927581D01*
X87194571Y-75024343D01*
X87194571Y-75169486D01*
X87146190Y-75266248D01*
X87097809Y-75314629D01*
X87001047Y-75363010D01*
X86614000Y-75363010D01*
X87775143Y-75846819D02*
X87678381Y-75798438D01*
X87630000Y-75750057D01*
X87581619Y-75653295D01*
X87581619Y-75363010D01*
X87630000Y-75266248D01*
X87678381Y-75217867D01*
X87775143Y-75169486D01*
X87920285Y-75169486D01*
X88017047Y-75217867D01*
X88065428Y-75266248D01*
X88113809Y-75363010D01*
X88113809Y-75653295D01*
X88065428Y-75750057D01*
X88017047Y-75798438D01*
X87920285Y-75846819D01*
X87775143Y-75846819D01*
X88452476Y-75169486D02*
X88646000Y-75846819D01*
X88839523Y-75363010D01*
X89033047Y-75846819D01*
X89226571Y-75169486D01*
X90000666Y-75798438D02*
X89903904Y-75846819D01*
X89710381Y-75846819D01*
X89613619Y-75798438D01*
X89565238Y-75701676D01*
X89565238Y-75314629D01*
X89613619Y-75217867D01*
X89710381Y-75169486D01*
X89903904Y-75169486D01*
X90000666Y-75217867D01*
X90049047Y-75314629D01*
X90049047Y-75411390D01*
X89565238Y-75508152D01*
X90484476Y-75846819D02*
X90484476Y-75169486D01*
X90484476Y-75363010D02*
X90532857Y-75266248D01*
X90581238Y-75217867D01*
X90678000Y-75169486D01*
X90774761Y-75169486D01*
X91887523Y-75846819D02*
X91887523Y-74830819D01*
X92129428Y-74830819D01*
X92274570Y-74879200D01*
X92371332Y-74975962D01*
X92419713Y-75072724D01*
X92468094Y-75266248D01*
X92468094Y-75411390D01*
X92419713Y-75604914D01*
X92371332Y-75701676D01*
X92274570Y-75798438D01*
X92129428Y-75846819D01*
X91887523Y-75846819D01*
X93290570Y-75798438D02*
X93193808Y-75846819D01*
X93000285Y-75846819D01*
X92903523Y-75798438D01*
X92855142Y-75701676D01*
X92855142Y-75314629D01*
X92903523Y-75217867D01*
X93000285Y-75169486D01*
X93193808Y-75169486D01*
X93290570Y-75217867D01*
X93338951Y-75314629D01*
X93338951Y-75411390D01*
X92855142Y-75508152D01*
X93919523Y-75846819D02*
X93822761Y-75798438D01*
X93774380Y-75701676D01*
X93774380Y-74830819D01*
X94306570Y-75846819D02*
X94306570Y-75169486D01*
X94306570Y-74830819D02*
X94258189Y-74879200D01*
X94306570Y-74927581D01*
X94354951Y-74879200D01*
X94306570Y-74830819D01*
X94306570Y-74927581D01*
X94693618Y-75169486D02*
X94935523Y-75846819D01*
X95177427Y-75169486D01*
X95951522Y-75798438D02*
X95854760Y-75846819D01*
X95661237Y-75846819D01*
X95564475Y-75798438D01*
X95516094Y-75701676D01*
X95516094Y-75314629D01*
X95564475Y-75217867D01*
X95661237Y-75169486D01*
X95854760Y-75169486D01*
X95951522Y-75217867D01*
X95999903Y-75314629D01*
X95999903Y-75411390D01*
X95516094Y-75508152D01*
X96435332Y-75846819D02*
X96435332Y-75169486D01*
X96435332Y-75363010D02*
X96483713Y-75266248D01*
X96532094Y-75217867D01*
X96628856Y-75169486D01*
X96725617Y-75169486D01*
X96967522Y-75169486D02*
X97209427Y-75846819D01*
X97451331Y-75169486D02*
X97209427Y-75846819D01*
X97112665Y-76088724D01*
X97064284Y-76137105D01*
X96967522Y-76185486D01*
X98951140Y-75314629D02*
X99096283Y-75363010D01*
X99144664Y-75411390D01*
X99193045Y-75508152D01*
X99193045Y-75653295D01*
X99144664Y-75750057D01*
X99096283Y-75798438D01*
X98999521Y-75846819D01*
X98612474Y-75846819D01*
X98612474Y-74830819D01*
X98951140Y-74830819D01*
X99047902Y-74879200D01*
X99096283Y-74927581D01*
X99144664Y-75024343D01*
X99144664Y-75121105D01*
X99096283Y-75217867D01*
X99047902Y-75266248D01*
X98951140Y-75314629D01*
X98612474Y-75314629D01*
X99628474Y-75846819D02*
X99628474Y-75169486D01*
X99628474Y-75363010D02*
X99676855Y-75266248D01*
X99725236Y-75217867D01*
X99821998Y-75169486D01*
X99918759Y-75169486D01*
X100644473Y-75798438D02*
X100547711Y-75846819D01*
X100354188Y-75846819D01*
X100257426Y-75798438D01*
X100209045Y-75701676D01*
X100209045Y-75314629D01*
X100257426Y-75217867D01*
X100354188Y-75169486D01*
X100547711Y-75169486D01*
X100644473Y-75217867D01*
X100692854Y-75314629D01*
X100692854Y-75411390D01*
X100209045Y-75508152D01*
X101563711Y-75846819D02*
X101563711Y-75314629D01*
X101515330Y-75217867D01*
X101418568Y-75169486D01*
X101225045Y-75169486D01*
X101128283Y-75217867D01*
X101563711Y-75798438D02*
X101466949Y-75846819D01*
X101225045Y-75846819D01*
X101128283Y-75798438D01*
X101079902Y-75701676D01*
X101079902Y-75604914D01*
X101128283Y-75508152D01*
X101225045Y-75459771D01*
X101466949Y-75459771D01*
X101563711Y-75411390D01*
X102047521Y-75846819D02*
X102047521Y-74830819D01*
X102144283Y-75459771D02*
X102434568Y-75846819D01*
X102434568Y-75169486D02*
X102047521Y-75556533D01*
X103015140Y-75846819D02*
X102918378Y-75798438D01*
X102869997Y-75750057D01*
X102821616Y-75653295D01*
X102821616Y-75363010D01*
X102869997Y-75266248D01*
X102918378Y-75217867D01*
X103015140Y-75169486D01*
X103160282Y-75169486D01*
X103257044Y-75217867D01*
X103305425Y-75266248D01*
X103353806Y-75363010D01*
X103353806Y-75653295D01*
X103305425Y-75750057D01*
X103257044Y-75798438D01*
X103160282Y-75846819D01*
X103015140Y-75846819D01*
X104224663Y-75169486D02*
X104224663Y-75846819D01*
X103789235Y-75169486D02*
X103789235Y-75701676D01*
X103837616Y-75798438D01*
X103934378Y-75846819D01*
X104079520Y-75846819D01*
X104176282Y-75798438D01*
X104224663Y-75750057D01*
X104563330Y-75169486D02*
X104950378Y-75169486D01*
X104708473Y-74830819D02*
X104708473Y-75701676D01*
X104756854Y-75798438D01*
X104853616Y-75846819D01*
X104950378Y-75846819D01*
X83372476Y-77472419D02*
X83033810Y-76988610D01*
X82791905Y-77472419D02*
X82791905Y-76456419D01*
X83178952Y-76456419D01*
X83275714Y-76504800D01*
X83324095Y-76553181D01*
X83372476Y-76649943D01*
X83372476Y-76795086D01*
X83324095Y-76891848D01*
X83275714Y-76940229D01*
X83178952Y-76988610D01*
X82791905Y-76988610D01*
X84194952Y-77424038D02*
X84098190Y-77472419D01*
X83904667Y-77472419D01*
X83807905Y-77424038D01*
X83759524Y-77327276D01*
X83759524Y-76940229D01*
X83807905Y-76843467D01*
X83904667Y-76795086D01*
X84098190Y-76795086D01*
X84194952Y-76843467D01*
X84243333Y-76940229D01*
X84243333Y-77036990D01*
X83759524Y-77133752D01*
X84582000Y-76795086D02*
X84823905Y-77472419D01*
X85065809Y-76795086D01*
X86759142Y-77472419D02*
X86178571Y-77472419D01*
X86468857Y-77472419D02*
X86468857Y-76456419D01*
X86372095Y-76601562D01*
X86275333Y-76698324D01*
X86178571Y-76746705D01*
X95129045Y-76456419D02*
X95225806Y-76456419D01*
X95322568Y-76504800D01*
X95370949Y-76553181D01*
X95419330Y-76649943D01*
X95467711Y-76843467D01*
X95467711Y-77085371D01*
X95419330Y-77278895D01*
X95370949Y-77375657D01*
X95322568Y-77424038D01*
X95225806Y-77472419D01*
X95129045Y-77472419D01*
X95032283Y-77424038D01*
X94983902Y-77375657D01*
X94935521Y-77278895D01*
X94887140Y-77085371D01*
X94887140Y-76843467D01*
X94935521Y-76649943D01*
X94983902Y-76553181D01*
X95032283Y-76504800D01*
X95129045Y-76456419D01*
X96435330Y-77472419D02*
X95854759Y-77472419D01*
X96145045Y-77472419D02*
X96145045Y-76456419D01*
X96048283Y-76601562D01*
X95951521Y-76698324D01*
X95854759Y-76746705D01*
X97596473Y-76408038D02*
X96725616Y-77714324D01*
X97886759Y-76553181D02*
X97935140Y-76504800D01*
X98031902Y-76456419D01*
X98273806Y-76456419D01*
X98370568Y-76504800D01*
X98418949Y-76553181D01*
X98467330Y-76649943D01*
X98467330Y-76746705D01*
X98418949Y-76891848D01*
X97838378Y-77472419D01*
X98467330Y-77472419D01*
X99096283Y-76456419D02*
X99193044Y-76456419D01*
X99289806Y-76504800D01*
X99338187Y-76553181D01*
X99386568Y-76649943D01*
X99434949Y-76843467D01*
X99434949Y-77085371D01*
X99386568Y-77278895D01*
X99338187Y-77375657D01*
X99289806Y-77424038D01*
X99193044Y-77472419D01*
X99096283Y-77472419D01*
X98999521Y-77424038D01*
X98951140Y-77375657D01*
X98902759Y-77278895D01*
X98854378Y-77085371D01*
X98854378Y-76843467D01*
X98902759Y-76649943D01*
X98951140Y-76553181D01*
X98999521Y-76504800D01*
X99096283Y-76456419D01*
X100596092Y-76408038D02*
X99725235Y-77714324D01*
X100886378Y-76553181D02*
X100934759Y-76504800D01*
X101031521Y-76456419D01*
X101273425Y-76456419D01*
X101370187Y-76504800D01*
X101418568Y-76553181D01*
X101466949Y-76649943D01*
X101466949Y-76746705D01*
X101418568Y-76891848D01*
X100837997Y-77472419D01*
X101466949Y-77472419D01*
X102095902Y-76456419D02*
X102192663Y-76456419D01*
X102289425Y-76504800D01*
X102337806Y-76553181D01*
X102386187Y-76649943D01*
X102434568Y-76843467D01*
X102434568Y-77085371D01*
X102386187Y-77278895D01*
X102337806Y-77375657D01*
X102289425Y-77424038D01*
X102192663Y-77472419D01*
X102095902Y-77472419D01*
X101999140Y-77424038D01*
X101950759Y-77375657D01*
X101902378Y-77278895D01*
X101853997Y-77085371D01*
X101853997Y-76843467D01*
X101902378Y-76649943D01*
X101950759Y-76553181D01*
X101999140Y-76504800D01*
X102095902Y-76456419D01*
X103402187Y-77472419D02*
X102821616Y-77472419D01*
X103111902Y-77472419D02*
X103111902Y-76456419D01*
X103015140Y-76601562D01*
X102918378Y-76698324D01*
X102821616Y-76746705D01*
X104273044Y-76456419D02*
X104079521Y-76456419D01*
X103982759Y-76504800D01*
X103934378Y-76553181D01*
X103837616Y-76698324D01*
X103789235Y-76891848D01*
X103789235Y-77278895D01*
X103837616Y-77375657D01*
X103885997Y-77424038D01*
X103982759Y-77472419D01*
X104176282Y-77472419D01*
X104273044Y-77424038D01*
X104321425Y-77375657D01*
X104369806Y-77278895D01*
X104369806Y-77036990D01*
X104321425Y-76940229D01*
X104273044Y-76891848D01*
X104176282Y-76843467D01*
X103982759Y-76843467D01*
X103885997Y-76891848D01*
X103837616Y-76940229D01*
X103789235Y-77036990D01*
D10*
X70485000Y-75565000D02*
X69215000Y-75565000D01*
X70485000Y-78105000D02*
X66040000Y-78105000D01*
D11*
X66535905Y-75057000D02*
X66439143Y-75008619D01*
X66294000Y-75008619D01*
X66148858Y-75057000D01*
X66052096Y-75153762D01*
X66003715Y-75250524D01*
X65955334Y-75444048D01*
X65955334Y-75589190D01*
X66003715Y-75782714D01*
X66052096Y-75879476D01*
X66148858Y-75976238D01*
X66294000Y-76024619D01*
X66390762Y-76024619D01*
X66535905Y-75976238D01*
X66584286Y-75927857D01*
X66584286Y-75589190D01*
X66390762Y-75589190D01*
X67019715Y-76024619D02*
X67019715Y-75008619D01*
X67600286Y-76024619D01*
X67600286Y-75008619D01*
X68084096Y-76024619D02*
X68084096Y-75008619D01*
X68326001Y-75008619D01*
X68471143Y-75057000D01*
X68567905Y-75153762D01*
X68616286Y-75250524D01*
X68664667Y-75444048D01*
X68664667Y-75589190D01*
X68616286Y-75782714D01*
X68567905Y-75879476D01*
X68471143Y-75976238D01*
X68326001Y-76024619D01*
X68084096Y-76024619D01*
X64213619Y-78643238D02*
X65229619Y-78304571D01*
X64213619Y-77965905D01*
X65229619Y-77627238D02*
X64213619Y-77627238D01*
X64600667Y-77627238D02*
X64552286Y-77530476D01*
X64552286Y-77336953D01*
X64600667Y-77240191D01*
X64649048Y-77191810D01*
X64745810Y-77143429D01*
X65036095Y-77143429D01*
X65132857Y-77191810D01*
X65181238Y-77240191D01*
X65229619Y-77336953D01*
X65229619Y-77530476D01*
X65181238Y-77627238D01*
X64552286Y-76272572D02*
X65229619Y-76272572D01*
X64552286Y-76708000D02*
X65084476Y-76708000D01*
X65181238Y-76659619D01*
X65229619Y-76562857D01*
X65229619Y-76417715D01*
X65181238Y-76320953D01*
X65132857Y-76272572D01*
X65181238Y-75837143D02*
X65229619Y-75740381D01*
X65229619Y-75546857D01*
X65181238Y-75450096D01*
X65084476Y-75401715D01*
X65036095Y-75401715D01*
X64939333Y-75450096D01*
X64890952Y-75546857D01*
X64890952Y-75692000D01*
X64842571Y-75788762D01*
X64745810Y-75837143D01*
X64697429Y-75837143D01*
X64600667Y-75788762D01*
X64552286Y-75692000D01*
X64552286Y-75546857D01*
X64600667Y-75450096D01*
X64939333Y-75014667D02*
X64939333Y-74530858D01*
X65229619Y-75111429D02*
X64213619Y-74772762D01*
X65229619Y-74434096D01*
X62943619Y-78643238D02*
X63959619Y-78304571D01*
X62943619Y-77965905D01*
X63959619Y-77191810D02*
X62943619Y-77191810D01*
X63911238Y-77191810D02*
X63959619Y-77288572D01*
X63959619Y-77482095D01*
X63911238Y-77578857D01*
X63862857Y-77627238D01*
X63766095Y-77675619D01*
X63475810Y-77675619D01*
X63379048Y-77627238D01*
X63330667Y-77578857D01*
X63282286Y-77482095D01*
X63282286Y-77288572D01*
X63330667Y-77191810D01*
X63959619Y-76272572D02*
X62943619Y-76272572D01*
X63911238Y-76272572D02*
X63959619Y-76369334D01*
X63959619Y-76562857D01*
X63911238Y-76659619D01*
X63862857Y-76708000D01*
X63766095Y-76756381D01*
X63475810Y-76756381D01*
X63379048Y-76708000D01*
X63330667Y-76659619D01*
X63282286Y-76562857D01*
X63282286Y-76369334D01*
X63330667Y-76272572D01*
X61673619Y-78643238D02*
X62689619Y-78304571D01*
X61673619Y-77965905D01*
X62641238Y-77191810D02*
X62689619Y-77288572D01*
X62689619Y-77482095D01*
X62641238Y-77578857D01*
X62592857Y-77627238D01*
X62496095Y-77675619D01*
X62205810Y-77675619D01*
X62109048Y-77627238D01*
X62060667Y-77578857D01*
X62012286Y-77482095D01*
X62012286Y-77288572D01*
X62060667Y-77191810D01*
X62689619Y-76611238D02*
X62641238Y-76708000D01*
X62592857Y-76756381D01*
X62496095Y-76804762D01*
X62205810Y-76804762D01*
X62109048Y-76756381D01*
X62060667Y-76708000D01*
X62012286Y-76611238D01*
X62012286Y-76466096D01*
X62060667Y-76369334D01*
X62109048Y-76320953D01*
X62205810Y-76272572D01*
X62496095Y-76272572D01*
X62592857Y-76320953D01*
X62641238Y-76369334D01*
X62689619Y-76466096D01*
X62689619Y-76611238D01*
X62012286Y-75837143D02*
X62689619Y-75837143D01*
X62109048Y-75837143D02*
X62060667Y-75788762D01*
X62012286Y-75692000D01*
X62012286Y-75546858D01*
X62060667Y-75450096D01*
X62157429Y-75401715D01*
X62689619Y-75401715D01*
X62012286Y-74917905D02*
X62689619Y-74917905D01*
X62109048Y-74917905D02*
X62060667Y-74869524D01*
X62012286Y-74772762D01*
X62012286Y-74627620D01*
X62060667Y-74530858D01*
X62157429Y-74482477D01*
X62689619Y-74482477D01*
X60403619Y-78643238D02*
X61419619Y-78304571D01*
X60403619Y-77965905D01*
X61419619Y-77627238D02*
X60403619Y-77627238D01*
X60790667Y-77627238D02*
X60742286Y-77530476D01*
X60742286Y-77336953D01*
X60790667Y-77240191D01*
X60839048Y-77191810D01*
X60935810Y-77143429D01*
X61226095Y-77143429D01*
X61322857Y-77191810D01*
X61371238Y-77240191D01*
X61419619Y-77336953D01*
X61419619Y-77530476D01*
X61371238Y-77627238D01*
X60742286Y-76272572D02*
X61419619Y-76272572D01*
X60742286Y-76708000D02*
X61274476Y-76708000D01*
X61371238Y-76659619D01*
X61419619Y-76562857D01*
X61419619Y-76417715D01*
X61371238Y-76320953D01*
X61322857Y-76272572D01*
X61371238Y-75837143D02*
X61419619Y-75740381D01*
X61419619Y-75546857D01*
X61371238Y-75450096D01*
X61274476Y-75401715D01*
X61226095Y-75401715D01*
X61129333Y-75450096D01*
X61080952Y-75546857D01*
X61080952Y-75692000D01*
X61032571Y-75788762D01*
X60935810Y-75837143D01*
X60887429Y-75837143D01*
X60790667Y-75788762D01*
X60742286Y-75692000D01*
X60742286Y-75546857D01*
X60790667Y-75450096D01*
D10*
X77753981Y-86995000D02*
G75*
G03X77753981Y-86995000I-283981J0D01*
G01*
D11*
X78232000Y-94754095D02*
X78183619Y-94850857D01*
X78183619Y-94996000D01*
X78232000Y-95141142D01*
X78328762Y-95237904D01*
X78425524Y-95286285D01*
X78619048Y-95334666D01*
X78764190Y-95334666D01*
X78957714Y-95286285D01*
X79054476Y-95237904D01*
X79151238Y-95141142D01*
X79199619Y-94996000D01*
X79199619Y-94899238D01*
X79151238Y-94754095D01*
X79102857Y-94705714D01*
X78764190Y-94705714D01*
X78764190Y-94899238D01*
X79199619Y-94270285D02*
X78183619Y-94270285D01*
X79199619Y-93689714D01*
X78183619Y-93689714D01*
X79199619Y-93205904D02*
X78183619Y-93205904D01*
X78183619Y-92963999D01*
X78232000Y-92818857D01*
X78328762Y-92722095D01*
X78425524Y-92673714D01*
X78619048Y-92625333D01*
X78764190Y-92625333D01*
X78957714Y-92673714D01*
X79054476Y-92722095D01*
X79151238Y-92818857D01*
X79199619Y-92963999D01*
X79199619Y-93205904D01*
X74071238Y-95189523D02*
X74119619Y-95044380D01*
X74119619Y-94802476D01*
X74071238Y-94705714D01*
X74022857Y-94657333D01*
X73926095Y-94608952D01*
X73829333Y-94608952D01*
X73732571Y-94657333D01*
X73684190Y-94705714D01*
X73635810Y-94802476D01*
X73587429Y-94995999D01*
X73539048Y-95092761D01*
X73490667Y-95141142D01*
X73393905Y-95189523D01*
X73297143Y-95189523D01*
X73200381Y-95141142D01*
X73152000Y-95092761D01*
X73103619Y-94995999D01*
X73103619Y-94754095D01*
X73152000Y-94608952D01*
X74022857Y-93592952D02*
X74071238Y-93641333D01*
X74119619Y-93786476D01*
X74119619Y-93883238D01*
X74071238Y-94028380D01*
X73974476Y-94125142D01*
X73877714Y-94173523D01*
X73684190Y-94221904D01*
X73539048Y-94221904D01*
X73345524Y-94173523D01*
X73248762Y-94125142D01*
X73152000Y-94028380D01*
X73103619Y-93883238D01*
X73103619Y-93786476D01*
X73152000Y-93641333D01*
X73200381Y-93592952D01*
X74119619Y-92673714D02*
X74119619Y-93157523D01*
X73103619Y-93157523D01*
X76611238Y-95213714D02*
X76659619Y-95068571D01*
X76659619Y-94826667D01*
X76611238Y-94729905D01*
X76562857Y-94681524D01*
X76466095Y-94633143D01*
X76369333Y-94633143D01*
X76272571Y-94681524D01*
X76224190Y-94729905D01*
X76175810Y-94826667D01*
X76127429Y-95020190D01*
X76079048Y-95116952D01*
X76030667Y-95165333D01*
X75933905Y-95213714D01*
X75837143Y-95213714D01*
X75740381Y-95165333D01*
X75692000Y-95116952D01*
X75643619Y-95020190D01*
X75643619Y-94778286D01*
X75692000Y-94633143D01*
X76659619Y-94197714D02*
X75643619Y-94197714D01*
X75643619Y-93955809D01*
X75692000Y-93810667D01*
X75788762Y-93713905D01*
X75885524Y-93665524D01*
X76079048Y-93617143D01*
X76224190Y-93617143D01*
X76417714Y-93665524D01*
X76514476Y-93713905D01*
X76611238Y-93810667D01*
X76659619Y-93955809D01*
X76659619Y-94197714D01*
X76369333Y-93230095D02*
X76369333Y-92746286D01*
X76659619Y-93326857D02*
X75643619Y-92988190D01*
X76659619Y-92649524D01*
X71579619Y-94899238D02*
X70563619Y-94899238D01*
X71579619Y-94415428D02*
X70563619Y-94415428D01*
X71579619Y-93834857D01*
X70563619Y-93834857D01*
X70563619Y-93496190D02*
X70563619Y-92915619D01*
X71579619Y-93205904D02*
X70563619Y-93205904D01*
X70388480Y-95141143D02*
X70388480Y-92818857D01*
X68023619Y-95237904D02*
X69039619Y-94899237D01*
X68023619Y-94560571D01*
X68362286Y-94221904D02*
X69378286Y-94221904D01*
X68410667Y-94221904D02*
X68362286Y-94125142D01*
X68362286Y-93931619D01*
X68410667Y-93834857D01*
X68459048Y-93786476D01*
X68555810Y-93738095D01*
X68846095Y-93738095D01*
X68942857Y-93786476D01*
X68991238Y-93834857D01*
X69039619Y-93931619D01*
X69039619Y-94125142D01*
X68991238Y-94221904D01*
X68362286Y-92867238D02*
X69039619Y-92867238D01*
X68362286Y-93302666D02*
X68894476Y-93302666D01*
X68991238Y-93254285D01*
X69039619Y-93157523D01*
X69039619Y-93012381D01*
X68991238Y-92915619D01*
X68942857Y-92867238D01*
D10*
X78232000Y-85471000D02*
X77978000Y-85471000D01*
X78232000Y-85979000D02*
X77978000Y-85979000D01*
D12*
X74330000Y-90565000D02*
X75530000Y-90565000D01*
X75530000Y-92315000D02*
X74330000Y-92315000D01*
D10*
X75057000Y-89281000D02*
X74803000Y-89281000D01*
X75057000Y-89789000D02*
X74803000Y-89789000D01*
X70866000Y-86631780D02*
X70866000Y-86885780D01*
X71374000Y-86631780D02*
X71374000Y-86885780D01*
X71374000Y-83947000D02*
X71374000Y-83693000D01*
X70866000Y-83947000D02*
X70866000Y-83693000D01*
D12*
X78740000Y-79375000D02*
X71120000Y-79375000D01*
X71120000Y-79375000D02*
X71120000Y-74295000D01*
X71120000Y-74295000D02*
X81280000Y-74295000D01*
X81280000Y-74295000D02*
X81280000Y-76835000D01*
X80010000Y-79655000D02*
X81560000Y-79655000D01*
X81280000Y-76835000D02*
X78740000Y-76835000D01*
X78740000Y-76835000D02*
X78740000Y-79375000D01*
X81560000Y-79655000D02*
X81560000Y-78105000D01*
D10*
X94720000Y-91110000D02*
X94720000Y-92610000D01*
X94720000Y-92610000D02*
X96720000Y-92610000D01*
X96720000Y-80110000D02*
X94720000Y-80110000D01*
X94720000Y-80110000D02*
X94720000Y-81610000D01*
X109020000Y-80110000D02*
X100720000Y-80110000D01*
X100720000Y-92610000D02*
X109020000Y-92610000D01*
X109020000Y-80110000D02*
X109020000Y-92610000D01*
D12*
X69850000Y-98425000D02*
X80010000Y-98425000D01*
X80010000Y-98425000D02*
X80010000Y-95885000D01*
X80010000Y-95885000D02*
X69850000Y-95885000D01*
X67030000Y-98705000D02*
X68580000Y-98705000D01*
X69850000Y-98425000D02*
X69850000Y-95885000D01*
X68580000Y-95605000D02*
X67030000Y-95605000D01*
X67030000Y-95605000D02*
X67030000Y-98705000D01*
X84695000Y-95920000D02*
X84695000Y-97120000D01*
X82945000Y-97120000D02*
X82945000Y-95920000D01*
X87235000Y-95920000D02*
X87235000Y-97120000D01*
X85485000Y-97120000D02*
X85485000Y-95920000D01*
X89775000Y-95920000D02*
X89775000Y-97120000D01*
X88025000Y-97120000D02*
X88025000Y-95920000D01*
X77965560Y-87900000D02*
X78215560Y-87650000D01*
X80715560Y-87650000D02*
X80965560Y-87650000D01*
X80965560Y-87650000D02*
X80965560Y-87900000D01*
X78215560Y-90150000D02*
X77965560Y-90150000D01*
X77965560Y-90150000D02*
X77965560Y-89900000D01*
X80715560Y-90150000D02*
X80965560Y-90150000D01*
X80965560Y-90150000D02*
X80965560Y-89900000D01*
X77505000Y-82945000D02*
X78705000Y-82945000D01*
X78705000Y-84695000D02*
X77505000Y-84695000D01*
X64415000Y-95605000D02*
X62865000Y-95605000D01*
X59055000Y-95885000D02*
X61595000Y-95885000D01*
X61595000Y-95885000D02*
X61595000Y-98425000D01*
X62865000Y-98705000D02*
X64415000Y-98705000D01*
X64415000Y-98705000D02*
X64415000Y-95605000D01*
X61595000Y-98425000D02*
X59055000Y-98425000D01*
X59055000Y-98425000D02*
X59055000Y-95885000D01*
X89298780Y-89684860D02*
X89659460Y-91155520D01*
X89659460Y-91155520D02*
X89938860Y-90093800D01*
X89938860Y-90093800D02*
X90248740Y-91165680D01*
X90248740Y-91165680D02*
X90589100Y-89715340D01*
X87878920Y-90375740D02*
X88668860Y-90365580D01*
X88668860Y-90365580D02*
X88679020Y-90375740D01*
X88679020Y-90375740D02*
X88679020Y-90365580D01*
X88719660Y-89654380D02*
X88719660Y-91196160D01*
X87830660Y-89644220D02*
X87830660Y-91213940D01*
X87830660Y-91213940D02*
X87840820Y-91203780D01*
X87279480Y-89745820D02*
X86928960Y-89664540D01*
X86928960Y-89664540D02*
X86608920Y-89654380D01*
X86608920Y-89654380D02*
X86370160Y-89855040D01*
X86370160Y-89855040D02*
X86339680Y-90124280D01*
X86339680Y-90124280D02*
X86580980Y-90365580D01*
X86580980Y-90365580D02*
X86969600Y-90495120D01*
X86969600Y-90495120D02*
X87149940Y-90655140D01*
X87149940Y-90655140D02*
X87190580Y-90954860D01*
X87190580Y-90954860D02*
X86959440Y-91175840D01*
X86959440Y-91175840D02*
X86639400Y-91203780D01*
X86639400Y-91203780D02*
X86288880Y-91094560D01*
X85250020Y-89644220D02*
X85001100Y-89664540D01*
X85001100Y-89664540D02*
X84759800Y-89905840D01*
X84759800Y-89905840D02*
X84670900Y-90396060D01*
X84670900Y-90396060D02*
X84698840Y-90744040D01*
X84698840Y-90744040D02*
X84899500Y-91064080D01*
X84899500Y-91064080D02*
X85150960Y-91186000D01*
X85150960Y-91186000D02*
X85460840Y-91114880D01*
X85460840Y-91114880D02*
X85679280Y-90934540D01*
X85679280Y-90934540D02*
X85750400Y-90474800D01*
X85750400Y-90474800D02*
X85699600Y-90065860D01*
X85699600Y-90065860D02*
X85590380Y-89783920D01*
X85590380Y-89783920D02*
X85229700Y-89654380D01*
X85849460Y-87924640D02*
X85590380Y-88485980D01*
X85590380Y-88485980D02*
X86128860Y-89004140D01*
X86128860Y-89004140D02*
X86649560Y-88734900D01*
X86649560Y-88734900D02*
X86928960Y-88894920D01*
X88369140Y-88874600D02*
X88699340Y-88684100D01*
X88699340Y-88684100D02*
X89138760Y-89014300D01*
X89138760Y-89014300D02*
X89611200Y-88524080D01*
X89611200Y-88524080D02*
X89329260Y-88044020D01*
X89329260Y-88044020D02*
X89519760Y-87574120D01*
X89519760Y-87574120D02*
X90129360Y-87386160D01*
X90129360Y-87386160D02*
X90129360Y-86705440D01*
X90129360Y-86705440D02*
X89570560Y-86565740D01*
X89570560Y-86565740D02*
X89369900Y-85994240D01*
X89369900Y-85994240D02*
X89639140Y-85524340D01*
X89639140Y-85524340D02*
X89169240Y-85013800D01*
X89169240Y-85013800D02*
X88651080Y-85275420D01*
X88651080Y-85275420D02*
X88181180Y-85074760D01*
X88181180Y-85074760D02*
X88011000Y-84533740D01*
X88011000Y-84533740D02*
X87320120Y-84515960D01*
X87320120Y-84515960D02*
X87109300Y-85064600D01*
X87109300Y-85064600D02*
X86690200Y-85234780D01*
X86690200Y-85234780D02*
X86139020Y-84965540D01*
X86139020Y-84965540D02*
X85620860Y-85493860D01*
X85620860Y-85493860D02*
X85869780Y-86034880D01*
X85869780Y-86034880D02*
X85699600Y-86514940D01*
X85699600Y-86514940D02*
X85150960Y-86614000D01*
X85150960Y-86614000D02*
X85140800Y-87315040D01*
X85140800Y-87315040D02*
X85699600Y-87515700D01*
X85699600Y-87515700D02*
X85839300Y-87914480D01*
X87980520Y-87894160D02*
X88280240Y-87744300D01*
X88280240Y-87744300D02*
X88480900Y-87546180D01*
X88480900Y-87546180D02*
X88630760Y-87144860D01*
X88630760Y-87144860D02*
X88630760Y-86746080D01*
X88630760Y-86746080D02*
X88480900Y-86395560D01*
X88480900Y-86395560D02*
X88028780Y-86045040D01*
X88028780Y-86045040D02*
X87579200Y-85994240D01*
X87579200Y-85994240D02*
X87180420Y-86095840D01*
X87180420Y-86095840D02*
X86779100Y-86443820D01*
X86779100Y-86443820D02*
X86629240Y-86895940D01*
X86629240Y-86895940D02*
X86680040Y-87393780D01*
X86680040Y-87393780D02*
X86928960Y-87696040D01*
X86928960Y-87696040D02*
X87279480Y-87894160D01*
X87279480Y-87894160D02*
X86928960Y-88894920D01*
X87980520Y-87894160D02*
X88379300Y-88894920D01*
D13*
G36*
X92840969Y-93628260D02*
X92618950Y-93829530D01*
X92396931Y-94030800D01*
X92079241Y-94030800D01*
X91761550Y-94030800D01*
X91535291Y-93829526D01*
X91309031Y-93628252D01*
X91309031Y-93343544D01*
X91309031Y-93058836D01*
X91535296Y-92859018D01*
X91761562Y-92659200D01*
X91834342Y-92659222D01*
X91907122Y-92659243D01*
X91936292Y-92708167D01*
X91965463Y-92757091D01*
X91965463Y-92890168D01*
X91965463Y-93023245D01*
X91806313Y-93276160D01*
X91647163Y-93529076D01*
X91654508Y-93536147D01*
X91655869Y-93537449D01*
X91658320Y-93539781D01*
X91661794Y-93543082D01*
X91666229Y-93547292D01*
X91671560Y-93552350D01*
X91677723Y-93558196D01*
X91684654Y-93564767D01*
X91692288Y-93572003D01*
X91700562Y-93579844D01*
X91709411Y-93588229D01*
X91718770Y-93597096D01*
X91728577Y-93606385D01*
X91738766Y-93616036D01*
X91749273Y-93625986D01*
X91760034Y-93636176D01*
X91762572Y-93638578D01*
X91863290Y-93733938D01*
X92079366Y-93733938D01*
X92295442Y-93733938D01*
X92390664Y-93643648D01*
X92401276Y-93633586D01*
X92411713Y-93623690D01*
X92421902Y-93614029D01*
X92431774Y-93604670D01*
X92441255Y-93595681D01*
X92450276Y-93587129D01*
X92458766Y-93579081D01*
X92466652Y-93571605D01*
X92473864Y-93564768D01*
X92480331Y-93558638D01*
X92485982Y-93553283D01*
X92490745Y-93548769D01*
X92494549Y-93545164D01*
X92497323Y-93542536D01*
X92498637Y-93541292D01*
X92511388Y-93529225D01*
X92347963Y-93276231D01*
X92184538Y-93023237D01*
X92184538Y-92890183D01*
X92184538Y-92757129D01*
X92218011Y-92708165D01*
X92251484Y-92659200D01*
X92324195Y-92659200D01*
X92396906Y-92659200D01*
X92618938Y-92859025D01*
X92840969Y-93058849D01*
X92840969Y-93343554D01*
X92840969Y-93628260D01*
X92840969Y-93628260D01*
X92840969Y-93628260D01*
G37*
X92840969Y-93628260D02*
X92618950Y-93829530D01*
X92396931Y-94030800D01*
X92079241Y-94030800D01*
X91761550Y-94030800D01*
X91535291Y-93829526D01*
X91309031Y-93628252D01*
X91309031Y-93343544D01*
X91309031Y-93058836D01*
X91535296Y-92859018D01*
X91761562Y-92659200D01*
X91834342Y-92659222D01*
X91907122Y-92659243D01*
X91936292Y-92708167D01*
X91965463Y-92757091D01*
X91965463Y-92890168D01*
X91965463Y-93023245D01*
X91806313Y-93276160D01*
X91647163Y-93529076D01*
X91654508Y-93536147D01*
X91655869Y-93537449D01*
X91658320Y-93539781D01*
X91661794Y-93543082D01*
X91666229Y-93547292D01*
X91671560Y-93552350D01*
X91677723Y-93558196D01*
X91684654Y-93564767D01*
X91692288Y-93572003D01*
X91700562Y-93579844D01*
X91709411Y-93588229D01*
X91718770Y-93597096D01*
X91728577Y-93606385D01*
X91738766Y-93616036D01*
X91749273Y-93625986D01*
X91760034Y-93636176D01*
X91762572Y-93638578D01*
X91863290Y-93733938D01*
X92079366Y-93733938D01*
X92295442Y-93733938D01*
X92390664Y-93643648D01*
X92401276Y-93633586D01*
X92411713Y-93623690D01*
X92421902Y-93614029D01*
X92431774Y-93604670D01*
X92441255Y-93595681D01*
X92450276Y-93587129D01*
X92458766Y-93579081D01*
X92466652Y-93571605D01*
X92473864Y-93564768D01*
X92480331Y-93558638D01*
X92485982Y-93553283D01*
X92490745Y-93548769D01*
X92494549Y-93545164D01*
X92497323Y-93542536D01*
X92498637Y-93541292D01*
X92511388Y-93529225D01*
X92347963Y-93276231D01*
X92184538Y-93023237D01*
X92184538Y-92890183D01*
X92184538Y-92757129D01*
X92218011Y-92708165D01*
X92251484Y-92659200D01*
X92324195Y-92659200D01*
X92396906Y-92659200D01*
X92618938Y-92859025D01*
X92840969Y-93058849D01*
X92840969Y-93343554D01*
X92840969Y-93628260D01*
X92840969Y-93628260D01*
D11*
X81110667Y-86087857D02*
X81062286Y-86136238D01*
X80917143Y-86184619D01*
X80820381Y-86184619D01*
X80675239Y-86136238D01*
X80578477Y-86039476D01*
X80530096Y-85942714D01*
X80481715Y-85749190D01*
X80481715Y-85604048D01*
X80530096Y-85410524D01*
X80578477Y-85313762D01*
X80675239Y-85217000D01*
X80820381Y-85168619D01*
X80917143Y-85168619D01*
X81062286Y-85217000D01*
X81110667Y-85265381D01*
X81497715Y-85265381D02*
X81546096Y-85217000D01*
X81642858Y-85168619D01*
X81884762Y-85168619D01*
X81981524Y-85217000D01*
X82029905Y-85265381D01*
X82078286Y-85362143D01*
X82078286Y-85458905D01*
X82029905Y-85604048D01*
X81449334Y-86184619D01*
X82078286Y-86184619D01*
X71585667Y-91802857D02*
X71537286Y-91851238D01*
X71392143Y-91899619D01*
X71295381Y-91899619D01*
X71150239Y-91851238D01*
X71053477Y-91754476D01*
X71005096Y-91657714D01*
X70956715Y-91464190D01*
X70956715Y-91319048D01*
X71005096Y-91125524D01*
X71053477Y-91028762D01*
X71150239Y-90932000D01*
X71295381Y-90883619D01*
X71392143Y-90883619D01*
X71537286Y-90932000D01*
X71585667Y-90980381D01*
X71924334Y-90883619D02*
X72553286Y-90883619D01*
X72214620Y-91270667D01*
X72359762Y-91270667D01*
X72456524Y-91319048D01*
X72504905Y-91367429D01*
X72553286Y-91464190D01*
X72553286Y-91706095D01*
X72504905Y-91802857D01*
X72456524Y-91851238D01*
X72359762Y-91899619D01*
X72069477Y-91899619D01*
X71972715Y-91851238D01*
X71924334Y-91802857D01*
X71585667Y-89897857D02*
X71537286Y-89946238D01*
X71392143Y-89994619D01*
X71295381Y-89994619D01*
X71150239Y-89946238D01*
X71053477Y-89849476D01*
X71005096Y-89752714D01*
X70956715Y-89559190D01*
X70956715Y-89414048D01*
X71005096Y-89220524D01*
X71053477Y-89123762D01*
X71150239Y-89027000D01*
X71295381Y-88978619D01*
X71392143Y-88978619D01*
X71537286Y-89027000D01*
X71585667Y-89075381D01*
X72456524Y-89317286D02*
X72456524Y-89994619D01*
X72214620Y-88930238D02*
X71972715Y-89655952D01*
X72601667Y-89655952D01*
X73382857Y-86928113D02*
X73431238Y-86976494D01*
X73479619Y-87121637D01*
X73479619Y-87218399D01*
X73431238Y-87363541D01*
X73334476Y-87460303D01*
X73237714Y-87508684D01*
X73044190Y-87557065D01*
X72899048Y-87557065D01*
X72705524Y-87508684D01*
X72608762Y-87460303D01*
X72512000Y-87363541D01*
X72463619Y-87218399D01*
X72463619Y-87121637D01*
X72512000Y-86976494D01*
X72560381Y-86928113D01*
X72463619Y-86008875D02*
X72463619Y-86492684D01*
X72947429Y-86541065D01*
X72899048Y-86492684D01*
X72850667Y-86395922D01*
X72850667Y-86154018D01*
X72899048Y-86057256D01*
X72947429Y-86008875D01*
X73044190Y-85960494D01*
X73286095Y-85960494D01*
X73382857Y-86008875D01*
X73431238Y-86057256D01*
X73479619Y-86154018D01*
X73479619Y-86395922D01*
X73431238Y-86492684D01*
X73382857Y-86541065D01*
X73387857Y-83989333D02*
X73436238Y-84037714D01*
X73484619Y-84182857D01*
X73484619Y-84279619D01*
X73436238Y-84424761D01*
X73339476Y-84521523D01*
X73242714Y-84569904D01*
X73049190Y-84618285D01*
X72904048Y-84618285D01*
X72710524Y-84569904D01*
X72613762Y-84521523D01*
X72517000Y-84424761D01*
X72468619Y-84279619D01*
X72468619Y-84182857D01*
X72517000Y-84037714D01*
X72565381Y-83989333D01*
X72468619Y-83118476D02*
X72468619Y-83311999D01*
X72517000Y-83408761D01*
X72565381Y-83457142D01*
X72710524Y-83553904D01*
X72904048Y-83602285D01*
X73291095Y-83602285D01*
X73387857Y-83553904D01*
X73436238Y-83505523D01*
X73484619Y-83408761D01*
X73484619Y-83215238D01*
X73436238Y-83118476D01*
X73387857Y-83070095D01*
X73291095Y-83021714D01*
X73049190Y-83021714D01*
X72952429Y-83070095D01*
X72904048Y-83118476D01*
X72855667Y-83215238D01*
X72855667Y-83408761D01*
X72904048Y-83505523D01*
X72952429Y-83553904D01*
X73049190Y-83602285D01*
X79671333Y-80088619D02*
X79671333Y-80814333D01*
X79622953Y-80959476D01*
X79526191Y-81056238D01*
X79381048Y-81104619D01*
X79284286Y-81104619D01*
X80106762Y-80185381D02*
X80155143Y-80137000D01*
X80251905Y-80088619D01*
X80493809Y-80088619D01*
X80590571Y-80137000D01*
X80638952Y-80185381D01*
X80687333Y-80282143D01*
X80687333Y-80378905D01*
X80638952Y-80524048D01*
X80058381Y-81104619D01*
X80687333Y-81104619D01*
X93006333Y-80088619D02*
X93006333Y-80814333D01*
X92957953Y-80959476D01*
X92861191Y-81056238D01*
X92716048Y-81104619D01*
X92619286Y-81104619D01*
X93393381Y-80088619D02*
X94022333Y-80088619D01*
X93683667Y-80475667D01*
X93828809Y-80475667D01*
X93925571Y-80524048D01*
X93973952Y-80572429D01*
X94022333Y-80669190D01*
X94022333Y-80911095D01*
X93973952Y-81007857D01*
X93925571Y-81056238D01*
X93828809Y-81104619D01*
X93538524Y-81104619D01*
X93441762Y-81056238D01*
X93393381Y-81007857D01*
X65610619Y-98255667D02*
X66336333Y-98255667D01*
X66481476Y-98304047D01*
X66578238Y-98400809D01*
X66626619Y-98545952D01*
X66626619Y-98642714D01*
X65949286Y-97336429D02*
X66626619Y-97336429D01*
X65562238Y-97578333D02*
X66287952Y-97820238D01*
X66287952Y-97191286D01*
X84279619Y-93514333D02*
X83795810Y-93852999D01*
X84279619Y-94094904D02*
X83263619Y-94094904D01*
X83263619Y-93707857D01*
X83312000Y-93611095D01*
X83360381Y-93562714D01*
X83457143Y-93514333D01*
X83602286Y-93514333D01*
X83699048Y-93562714D01*
X83747429Y-93611095D01*
X83795810Y-93707857D01*
X83795810Y-94094904D01*
X83360381Y-93127285D02*
X83312000Y-93078904D01*
X83263619Y-92982142D01*
X83263619Y-92740238D01*
X83312000Y-92643476D01*
X83360381Y-92595095D01*
X83457143Y-92546714D01*
X83553905Y-92546714D01*
X83699048Y-92595095D01*
X84279619Y-93175666D01*
X84279619Y-92546714D01*
X86819619Y-93514333D02*
X86335810Y-93852999D01*
X86819619Y-94094904D02*
X85803619Y-94094904D01*
X85803619Y-93707857D01*
X85852000Y-93611095D01*
X85900381Y-93562714D01*
X85997143Y-93514333D01*
X86142286Y-93514333D01*
X86239048Y-93562714D01*
X86287429Y-93611095D01*
X86335810Y-93707857D01*
X86335810Y-94094904D01*
X85803619Y-93175666D02*
X85803619Y-92546714D01*
X86190667Y-92885380D01*
X86190667Y-92740238D01*
X86239048Y-92643476D01*
X86287429Y-92595095D01*
X86384190Y-92546714D01*
X86626095Y-92546714D01*
X86722857Y-92595095D01*
X86771238Y-92643476D01*
X86819619Y-92740238D01*
X86819619Y-93030523D01*
X86771238Y-93127285D01*
X86722857Y-93175666D01*
X89359619Y-93514333D02*
X88875810Y-93852999D01*
X89359619Y-94094904D02*
X88343619Y-94094904D01*
X88343619Y-93707857D01*
X88392000Y-93611095D01*
X88440381Y-93562714D01*
X88537143Y-93514333D01*
X88682286Y-93514333D01*
X88779048Y-93562714D01*
X88827429Y-93611095D01*
X88875810Y-93707857D01*
X88875810Y-94094904D01*
X88682286Y-92643476D02*
X89359619Y-92643476D01*
X88295238Y-92885380D02*
X89020952Y-93127285D01*
X89020952Y-92498333D01*
X74790905Y-87073619D02*
X74790905Y-87896095D01*
X74839286Y-87992857D01*
X74887667Y-88041238D01*
X74984429Y-88089619D01*
X75177952Y-88089619D01*
X75274714Y-88041238D01*
X75323095Y-87992857D01*
X75371476Y-87896095D01*
X75371476Y-87073619D01*
X76387476Y-88089619D02*
X75806905Y-88089619D01*
X76097191Y-88089619D02*
X76097191Y-87073619D01*
X76000429Y-87218762D01*
X75903667Y-87315524D01*
X75806905Y-87363905D01*
X81110667Y-84182857D02*
X81062286Y-84231238D01*
X80917143Y-84279619D01*
X80820381Y-84279619D01*
X80675239Y-84231238D01*
X80578477Y-84134476D01*
X80530096Y-84037714D01*
X80481715Y-83844190D01*
X80481715Y-83699048D01*
X80530096Y-83505524D01*
X80578477Y-83408762D01*
X80675239Y-83312000D01*
X80820381Y-83263619D01*
X80917143Y-83263619D01*
X81062286Y-83312000D01*
X81110667Y-83360381D01*
X82078286Y-84279619D02*
X81497715Y-84279619D01*
X81788001Y-84279619D02*
X81788001Y-83263619D01*
X81691239Y-83408762D01*
X81594477Y-83505524D01*
X81497715Y-83553905D01*
X64848619Y-96477667D02*
X65574333Y-96477667D01*
X65719476Y-96526047D01*
X65816238Y-96622809D01*
X65864619Y-96767952D01*
X65864619Y-96864714D01*
X64848619Y-95510048D02*
X64848619Y-95993857D01*
X65332429Y-96042238D01*
X65284048Y-95993857D01*
X65235667Y-95897095D01*
X65235667Y-95655191D01*
X65284048Y-95558429D01*
X65332429Y-95510048D01*
X65429190Y-95461667D01*
X65671095Y-95461667D01*
X65767857Y-95510048D01*
X65816238Y-95558429D01*
X65864619Y-95655191D01*
X65864619Y-95897095D01*
X65816238Y-95993857D01*
X65767857Y-96042238D01*
X67606333Y-81612619D02*
X67606333Y-82338333D01*
X67557953Y-82483476D01*
X67461191Y-82580238D01*
X67316048Y-82628619D01*
X67219286Y-82628619D01*
X68622333Y-82628619D02*
X68041762Y-82628619D01*
X68332048Y-82628619D02*
X68332048Y-81612619D01*
X68235286Y-81757762D01*
X68138524Y-81854524D01*
X68041762Y-81902905D01*
%LPC*%
D14*
X78855000Y-85725000D03*
X77355000Y-85725000D03*
D15*
X75880000Y-91440000D03*
X73980000Y-91440000D03*
D14*
X75680000Y-89535000D03*
X74180000Y-89535000D03*
D16*
X71120000Y-86008780D03*
X71120000Y-87508780D03*
X71120000Y-84570000D03*
X71120000Y-83070000D03*
D17*
X80010000Y-78105000D03*
D18*
X80010000Y-75565000D03*
X77470000Y-78105000D03*
X77470000Y-75565000D03*
X74930000Y-78105000D03*
X74930000Y-75565000D03*
X72390000Y-78105000D03*
X72390000Y-75565000D03*
D19*
X94220000Y-89860000D03*
X94220000Y-87360000D03*
X94220000Y-85360000D03*
X94220000Y-82860000D03*
D20*
X98720000Y-92930000D03*
X98720000Y-79790000D03*
D21*
X68580000Y-97155000D03*
D22*
X71120000Y-97155000D03*
X73660000Y-97155000D03*
X76200000Y-97155000D03*
X78740000Y-97155000D03*
D23*
X83820000Y-97470000D03*
X83820000Y-95570000D03*
X86360000Y-97470000D03*
X86360000Y-95570000D03*
X88900000Y-97470000D03*
X88900000Y-95570000D03*
D24*
X78250560Y-88400000D03*
X78250560Y-88900000D03*
X78250560Y-89400000D03*
D25*
X79215560Y-90115000D03*
X79715560Y-90115000D03*
X80215560Y-90115000D03*
D24*
X80680560Y-89400000D03*
X80680560Y-88900000D03*
X80680560Y-88400000D03*
D25*
X80215560Y-87685000D03*
X79215560Y-87685000D03*
X78715560Y-87685000D03*
X79715560Y-87685000D03*
X78715560Y-90115000D03*
D26*
X79465560Y-88900000D03*
D15*
X79055000Y-83820000D03*
X77155000Y-83820000D03*
D27*
X62865000Y-97155000D03*
D28*
X60325000Y-97155000D03*
D29*
X65270000Y-82040000D03*
D30*
X60220000Y-90680000D03*
D31*
X65970000Y-83735000D03*
D32*
X65970000Y-84235000D03*
X65970000Y-84735000D03*
X65970000Y-85235000D03*
X65970000Y-85735000D03*
X65970000Y-86235000D03*
X65970000Y-86735000D03*
X65970000Y-87235000D03*
X65970000Y-87735000D03*
X65970000Y-88235000D03*
X65970000Y-88735000D03*
D31*
X65970000Y-89260000D03*
X64370000Y-89010000D03*
D32*
X64370000Y-88485000D03*
X64370000Y-87985000D03*
X64370000Y-87485000D03*
X64370000Y-86985000D03*
X64370000Y-86485000D03*
X64370000Y-85985000D03*
X64370000Y-85485000D03*
X64370000Y-84985000D03*
X64370000Y-84485000D03*
X64370000Y-83985000D03*
D31*
X64370000Y-83460000D03*
D30*
X60220000Y-82040000D03*
D29*
X65270000Y-90680000D03*
D33*
X64870000Y-82265000D03*
X64870000Y-90455000D03*
D34*
X63270000Y-90610000D03*
D35*
X63270000Y-82760000D03*
M02*
