G04 #@! TF.FileFunction,Soldermask,Top*
%FSLAX46Y46*%
G04 Gerber Fmt 4.6, Leading zero omitted, Abs format (unit mm)*
G04 Created by KiCad (PCBNEW 4.0.6) date 03/18/17 14:34:34*
%MOMM*%
%LPD*%
G01*
G04 APERTURE LIST*
%ADD10C,0.254000*%
%ADD11R,0.800000X1.750000*%
%ADD12R,2.300000X2.300000*%
%ADD13R,1.800000X2.000000*%
%ADD14O,1.300000X2.000000*%
%ADD15R,2.127200X2.127200*%
%ADD16O,2.127200X2.127200*%
%ADD17R,2.000000X1.400000*%
%ADD18R,1.150000X1.200000*%
%ADD19R,1.400000X1.650000*%
%ADD20R,1.200000X1.150000*%
%ADD21R,0.700000X0.980000*%
%ADD22R,0.980000X0.700000*%
%ADD23R,1.850000X1.850000*%
%ADD24C,7.400000*%
%ADD25C,1.000000*%
%ADD26R,1.100000X0.700000*%
%ADD27R,1.100000X1.400000*%
%ADD28O,2.500000X1.500000*%
%ADD29O,3.000000X1.500000*%
G04 APERTURE END LIST*
D10*
D11*
X15270000Y28875000D03*
X14620000Y28875000D03*
X13970000Y28875000D03*
X13320000Y28875000D03*
X12670000Y28875000D03*
D12*
X15170000Y31550000D03*
X12770000Y31550000D03*
D13*
X17170000Y29100000D03*
X10770000Y29100000D03*
D14*
X17270000Y31550000D03*
X10670000Y31550000D03*
D15*
X32385000Y17780000D03*
D16*
X32385000Y20320000D03*
X29845000Y17780000D03*
X29845000Y20320000D03*
X27305000Y17780000D03*
X27305000Y20320000D03*
D17*
X17780000Y7850000D03*
X17780000Y4850000D03*
D18*
X20320000Y7735000D03*
X20320000Y6235000D03*
D19*
X30750000Y11430000D03*
X32750000Y11430000D03*
D20*
X31000000Y8890000D03*
X32500000Y8890000D03*
D18*
X22860000Y7735000D03*
X22860000Y6235000D03*
X22860000Y10045000D03*
X22860000Y11545000D03*
D20*
X28690000Y31115000D03*
X27190000Y31115000D03*
X28690000Y29210000D03*
X27190000Y29210000D03*
X28690000Y27305000D03*
X27190000Y27305000D03*
D15*
X8890000Y10795000D03*
D16*
X8890000Y8255000D03*
X11430000Y10795000D03*
X11430000Y8255000D03*
X13970000Y10795000D03*
X13970000Y8255000D03*
D15*
X19685000Y20320000D03*
D16*
X19685000Y17780000D03*
X22225000Y20320000D03*
X22225000Y17780000D03*
X24765000Y20320000D03*
X24765000Y17780000D03*
D21*
X26170000Y7675000D03*
X26670000Y7675000D03*
X27170000Y7675000D03*
D22*
X27885000Y8640000D03*
X27885000Y9140000D03*
X27885000Y9640000D03*
D21*
X27170000Y10105000D03*
X26670000Y10105000D03*
X26170000Y10105000D03*
D22*
X25455000Y9640000D03*
X25455000Y8640000D03*
X25455000Y8140000D03*
X25455000Y9140000D03*
X27885000Y8140000D03*
D23*
X26670000Y8890000D03*
D24*
X4000000Y4000000D03*
D25*
X6625000Y4000000D03*
X5856155Y2143845D03*
X4000000Y1375000D03*
X2143845Y2143845D03*
X1375000Y4000000D03*
X2143845Y5856155D03*
X4000000Y6625000D03*
X5856155Y5856155D03*
D24*
X4000000Y29000000D03*
D25*
X6625000Y29000000D03*
X5856155Y27143845D03*
X4000000Y26375000D03*
X2143845Y27143845D03*
X1375000Y29000000D03*
X2143845Y30856155D03*
X4000000Y31625000D03*
X5856155Y30856155D03*
D24*
X34000000Y29000000D03*
D25*
X36625000Y29000000D03*
X35856155Y27143845D03*
X34000000Y26375000D03*
X32143845Y27143845D03*
X31375000Y29000000D03*
X32143845Y30856155D03*
X34000000Y31625000D03*
X35856155Y30856155D03*
D24*
X34000000Y4000000D03*
D25*
X36625000Y4000000D03*
X35856155Y2143845D03*
X34000000Y1375000D03*
X32143845Y2143845D03*
X31375000Y4000000D03*
X32143845Y5856155D03*
X34000000Y6625000D03*
X35856155Y5856155D03*
D26*
X7540000Y22000000D03*
X7540000Y21500000D03*
X7540000Y21000000D03*
X7540000Y20500000D03*
X7540000Y20000000D03*
X7540000Y19500000D03*
X7540000Y18500000D03*
X7540000Y18000000D03*
X7540000Y17500000D03*
X7540000Y17000000D03*
X7540000Y16500000D03*
X7540000Y16000000D03*
D27*
X6240000Y15900000D03*
D26*
X6240000Y16750000D03*
X6240000Y17250000D03*
X6240000Y17750000D03*
X6240000Y18250000D03*
X6240000Y18750000D03*
X6240000Y19250000D03*
X6240000Y19750000D03*
X6240000Y20250000D03*
X6240000Y20750000D03*
X6240000Y21250000D03*
D27*
X6240000Y22100000D03*
D28*
X7130000Y23320000D03*
X7130000Y14680000D03*
D29*
X1770000Y23320000D03*
X1770000Y14680000D03*
M02*
