G04 #@! TF.GenerationSoftware,KiCad,Pcbnew,(5.1.2)-1*
G04 #@! TF.CreationDate,2019-06-03T23:01:36-07:00*
G04 #@! TF.ProjectId,USB-PD-Breakout,5553422d-5044-42d4-9272-65616b6f7574,rev?*
G04 #@! TF.SameCoordinates,PX60e4b00PY60e4b00*
G04 #@! TF.FileFunction,Copper,L2,Bot*
G04 #@! TF.FilePolarity,Positive*
%FSLAX46Y46*%
G04 Gerber Fmt 4.6, Leading zero omitted, Abs format (unit mm)*
G04 Created by KiCad (PCBNEW (5.1.2)-1) date 2019-06-03 23:01:36*
%MOMM*%
%LPD*%
G04 APERTURE LIST*
%ADD10R,1.727200X1.727200*%
%ADD11O,1.727200X1.727200*%
%ADD12C,7.000000*%
%ADD13C,0.600000*%
%ADD14O,1.700000X1.700000*%
%ADD15R,1.700000X1.700000*%
%ADD16C,0.762000*%
%ADD17C,0.254000*%
%ADD18C,0.127000*%
G04 APERTURE END LIST*
D10*
X11430000Y5795000D03*
D11*
X11430000Y3255000D03*
X13970000Y5795000D03*
X13970000Y3255000D03*
X16510000Y5795000D03*
X16510000Y3255000D03*
D12*
X4000000Y3890000D03*
D13*
X6625000Y3890000D03*
X5856155Y2033845D03*
X4000000Y1265000D03*
X2143845Y2033845D03*
X1375000Y3890000D03*
X2143845Y5746155D03*
X4000000Y6515000D03*
X5856155Y5746155D03*
D12*
X4000000Y24000000D03*
D13*
X6625000Y24000000D03*
X5856155Y22143845D03*
X4000000Y21375000D03*
X2143845Y22143845D03*
X1375000Y24000000D03*
X2143845Y25856155D03*
X4000000Y26625000D03*
X5856155Y25856155D03*
D14*
X33020000Y5160000D03*
X33020000Y7700000D03*
X33020000Y10240000D03*
X33020000Y12780000D03*
X33020000Y15320000D03*
X33020000Y17860000D03*
X33020000Y20400000D03*
D15*
X33020000Y22940000D03*
D16*
X10922000Y21543000D03*
X10922000Y22432000D03*
X11811000Y22432000D03*
X11811000Y21543000D03*
X12700000Y21543000D03*
X12700000Y22432000D03*
X9779000Y17987000D03*
X9779000Y18749000D03*
X9017000Y18749000D03*
X9017000Y17987000D03*
X8509000Y17479000D03*
X5207000Y17479000D03*
X5207000Y16717000D03*
X5207000Y10367000D03*
X5207000Y11129000D03*
X9398000Y10240000D03*
X10160000Y10240000D03*
X10160000Y11002000D03*
X9398000Y11002000D03*
X8636000Y11002000D03*
X26670000Y1524000D03*
X25273000Y6985000D03*
X25273000Y9525000D03*
X20320000Y12446000D03*
X18669000Y8255000D03*
X25908000Y19431000D03*
X21336000Y17907000D03*
X20447000Y13843000D03*
X25527000Y13843000D03*
X21082000Y14605000D03*
X26289000Y14478000D03*
X21971000Y14986000D03*
X27051000Y15113000D03*
X3810000Y12827000D03*
X10414000Y13716000D03*
X11049000Y14351000D03*
X9398000Y15367000D03*
X8634413Y14554825D03*
X5207000Y13669000D03*
X8636005Y13665815D03*
X4318000Y13669000D03*
D17*
X10922000Y22432000D02*
X10922000Y21670000D01*
X10922000Y21670000D02*
X10795000Y21543000D01*
X11811000Y21543000D02*
X11811000Y22432000D01*
X12700000Y22432000D02*
X12700000Y21543000D01*
X9017000Y18749000D02*
X9779000Y18749000D01*
X8509000Y17479000D02*
X9017000Y17987000D01*
X5207000Y16717000D02*
X5207000Y17479000D01*
X5207000Y11129000D02*
X5207000Y10367000D01*
X10160000Y11002000D02*
X10160000Y10240000D01*
X8636000Y11002000D02*
X9398000Y11002000D01*
D18*
X20447000Y13843000D02*
X21463000Y13843000D01*
X21463000Y13843000D02*
X25527000Y13843000D01*
X21082000Y14605000D02*
X21463000Y14224000D01*
X21463000Y14224000D02*
X24892000Y14224000D01*
X24892000Y14224000D02*
X25146000Y14478000D01*
X25146000Y14478000D02*
X26289000Y14478000D01*
X22509815Y14986000D02*
X22636815Y15113000D01*
X21971000Y14986000D02*
X22509815Y14986000D01*
X22636815Y15113000D02*
X27051000Y15113000D01*
X3810000Y12827000D02*
X4190999Y12446001D01*
X9397999Y12699999D02*
X10414000Y13716000D01*
X9144001Y12446001D02*
X8889999Y12446001D01*
X10414000Y13716000D02*
X9144001Y12446001D01*
X4190999Y12446001D02*
X8889999Y12446001D01*
X10033000Y15367000D02*
X11049000Y14351000D01*
X9398000Y15367000D02*
X10033000Y15367000D01*
X8253414Y14173826D02*
X8634413Y14554825D01*
X7748588Y13669000D02*
X8253414Y14173826D01*
X5207000Y13669000D02*
X7748588Y13669000D01*
X4318000Y13669000D02*
X4953000Y13034000D01*
X8004190Y13034000D02*
X8255006Y13284816D01*
X8255006Y13284816D02*
X8636005Y13665815D01*
X4953000Y13034000D02*
X8004190Y13034000D01*
D17*
G36*
X1721744Y27474715D02*
G01*
X1661634Y27434550D01*
X1265450Y26914155D01*
X4000000Y24179605D01*
X6734550Y26914155D01*
X6338366Y27434550D01*
X6233098Y27492000D01*
X33992000Y27492000D01*
X33992000Y24151135D01*
X33944689Y24165487D01*
X33870000Y24172843D01*
X32170000Y24172843D01*
X32095311Y24165487D01*
X32023492Y24143701D01*
X31957304Y24108322D01*
X31899289Y24060711D01*
X31851678Y24002696D01*
X31816299Y23936508D01*
X31794513Y23864689D01*
X31787157Y23790000D01*
X31787157Y22090000D01*
X31794513Y22015311D01*
X31816299Y21943492D01*
X31851678Y21877304D01*
X31899289Y21819289D01*
X31957304Y21771678D01*
X32023492Y21736299D01*
X32095311Y21714513D01*
X32170000Y21707157D01*
X33870000Y21707157D01*
X33944689Y21714513D01*
X33992000Y21728865D01*
X33992000Y21156050D01*
X33894660Y21274660D01*
X33707216Y21428491D01*
X33493363Y21542798D01*
X33261318Y21613188D01*
X33080472Y21631000D01*
X32959528Y21631000D01*
X32778682Y21613188D01*
X32546637Y21542798D01*
X32332784Y21428491D01*
X32145340Y21274660D01*
X31991509Y21087216D01*
X31877202Y20873363D01*
X31806812Y20641318D01*
X31783044Y20400000D01*
X31806812Y20158682D01*
X31877202Y19926637D01*
X31991509Y19712784D01*
X32145340Y19525340D01*
X32332784Y19371509D01*
X32546637Y19257202D01*
X32778682Y19186812D01*
X32959528Y19169000D01*
X33080472Y19169000D01*
X33261318Y19186812D01*
X33493363Y19257202D01*
X33707216Y19371509D01*
X33894660Y19525340D01*
X33992000Y19643950D01*
X33992000Y18616050D01*
X33894660Y18734660D01*
X33707216Y18888491D01*
X33493363Y19002798D01*
X33261318Y19073188D01*
X33080472Y19091000D01*
X32959528Y19091000D01*
X32778682Y19073188D01*
X32546637Y19002798D01*
X32332784Y18888491D01*
X32145340Y18734660D01*
X31991509Y18547216D01*
X31877202Y18333363D01*
X31806812Y18101318D01*
X31783044Y17860000D01*
X31806812Y17618682D01*
X31877202Y17386637D01*
X31991509Y17172784D01*
X32145340Y16985340D01*
X32332784Y16831509D01*
X32543305Y16718983D01*
X32388748Y16664157D01*
X32138645Y16515178D01*
X31922412Y16320269D01*
X31748359Y16086920D01*
X31623175Y15824099D01*
X31578524Y15676890D01*
X31699845Y15447000D01*
X32893000Y15447000D01*
X32893000Y15467000D01*
X33147000Y15467000D01*
X33147000Y15447000D01*
X33167000Y15447000D01*
X33167000Y15193000D01*
X33147000Y15193000D01*
X33147000Y15173000D01*
X32893000Y15173000D01*
X32893000Y15193000D01*
X31699845Y15193000D01*
X31578524Y14963110D01*
X31623175Y14815901D01*
X31748359Y14553080D01*
X31922412Y14319731D01*
X32138645Y14124822D01*
X32388748Y13975843D01*
X32543305Y13921017D01*
X32332784Y13808491D01*
X32145340Y13654660D01*
X31991509Y13467216D01*
X31877202Y13253363D01*
X31806812Y13021318D01*
X31783044Y12780000D01*
X31806812Y12538682D01*
X31877202Y12306637D01*
X31991509Y12092784D01*
X32145340Y11905340D01*
X32332784Y11751509D01*
X32546637Y11637202D01*
X32778682Y11566812D01*
X32959528Y11549000D01*
X33080472Y11549000D01*
X33261318Y11566812D01*
X33493363Y11637202D01*
X33707216Y11751509D01*
X33894660Y11905340D01*
X33992001Y12023950D01*
X33992001Y10996050D01*
X33894660Y11114660D01*
X33707216Y11268491D01*
X33493363Y11382798D01*
X33261318Y11453188D01*
X33080472Y11471000D01*
X32959528Y11471000D01*
X32778682Y11453188D01*
X32546637Y11382798D01*
X32332784Y11268491D01*
X32145340Y11114660D01*
X31991509Y10927216D01*
X31877202Y10713363D01*
X31806812Y10481318D01*
X31783044Y10240000D01*
X31806812Y9998682D01*
X31877202Y9766637D01*
X31991509Y9552784D01*
X32145340Y9365340D01*
X32332784Y9211509D01*
X32546637Y9097202D01*
X32778682Y9026812D01*
X32959528Y9009000D01*
X33080472Y9009000D01*
X33261318Y9026812D01*
X33493363Y9097202D01*
X33707216Y9211509D01*
X33894660Y9365340D01*
X33992001Y9483950D01*
X33992001Y8456050D01*
X33894660Y8574660D01*
X33707216Y8728491D01*
X33493363Y8842798D01*
X33261318Y8913188D01*
X33080472Y8931000D01*
X32959528Y8931000D01*
X32778682Y8913188D01*
X32546637Y8842798D01*
X32332784Y8728491D01*
X32145340Y8574660D01*
X31991509Y8387216D01*
X31877202Y8173363D01*
X31806812Y7941318D01*
X31783044Y7700000D01*
X31806812Y7458682D01*
X31877202Y7226637D01*
X31991509Y7012784D01*
X32145340Y6825340D01*
X32332784Y6671509D01*
X32543305Y6558983D01*
X32388748Y6504157D01*
X32138645Y6355178D01*
X31922412Y6160269D01*
X31748359Y5926920D01*
X31623175Y5664099D01*
X31578524Y5516890D01*
X31699845Y5287000D01*
X32893000Y5287000D01*
X32893000Y5307000D01*
X33147000Y5307000D01*
X33147000Y5287000D01*
X33167000Y5287000D01*
X33167000Y5033000D01*
X33147000Y5033000D01*
X33147000Y3839186D01*
X33376891Y3718519D01*
X33651252Y3815843D01*
X33901355Y3964822D01*
X33992001Y4046529D01*
X33992001Y508000D01*
X6378373Y508000D01*
X6734550Y975845D01*
X4000000Y3710395D01*
X1265450Y975845D01*
X1621627Y508000D01*
X508000Y508000D01*
X508000Y1644770D01*
X525285Y1611744D01*
X565450Y1551634D01*
X1085845Y1155450D01*
X3820395Y3890000D01*
X4179605Y3890000D01*
X6914155Y1155450D01*
X7434550Y1551634D01*
X7824748Y2266612D01*
X8021658Y2895974D01*
X9975042Y2895974D01*
X10020778Y2745186D01*
X10147316Y2480056D01*
X10323146Y2244707D01*
X10541512Y2048183D01*
X10794022Y1898036D01*
X11070973Y1800037D01*
X11303000Y1920536D01*
X11303000Y3128000D01*
X11557000Y3128000D01*
X11557000Y1920536D01*
X11789027Y1800037D01*
X12065978Y1898036D01*
X12318488Y2048183D01*
X12536854Y2244707D01*
X12700000Y2463078D01*
X12863146Y2244707D01*
X13081512Y2048183D01*
X13334022Y1898036D01*
X13610973Y1800037D01*
X13843000Y1920536D01*
X13843000Y3128000D01*
X14097000Y3128000D01*
X14097000Y1920536D01*
X14329027Y1800037D01*
X14605978Y1898036D01*
X14858488Y2048183D01*
X15076854Y2244707D01*
X15240000Y2463078D01*
X15403146Y2244707D01*
X15621512Y2048183D01*
X15874022Y1898036D01*
X16150973Y1800037D01*
X16383000Y1920536D01*
X16383000Y3128000D01*
X16637000Y3128000D01*
X16637000Y1920536D01*
X16869027Y1800037D01*
X17145978Y1898036D01*
X17398488Y2048183D01*
X17616854Y2244707D01*
X17792684Y2480056D01*
X17919222Y2745186D01*
X17964958Y2895974D01*
X17843817Y3128000D01*
X16637000Y3128000D01*
X16383000Y3128000D01*
X14097000Y3128000D01*
X13843000Y3128000D01*
X11557000Y3128000D01*
X11303000Y3128000D01*
X10096183Y3128000D01*
X9975042Y2895974D01*
X8021658Y2895974D01*
X8067964Y3043976D01*
X8129121Y3614026D01*
X9975042Y3614026D01*
X10096183Y3382000D01*
X11303000Y3382000D01*
X11303000Y3402000D01*
X11557000Y3402000D01*
X11557000Y3382000D01*
X13843000Y3382000D01*
X13843000Y3402000D01*
X14097000Y3402000D01*
X14097000Y3382000D01*
X16383000Y3382000D01*
X16383000Y3402000D01*
X16637000Y3402000D01*
X16637000Y3382000D01*
X17843817Y3382000D01*
X17964958Y3614026D01*
X17919222Y3764814D01*
X17792684Y4029944D01*
X17616854Y4265293D01*
X17398488Y4461817D01*
X17145978Y4611964D01*
X17020200Y4656471D01*
X17204808Y4755146D01*
X17263252Y4803110D01*
X31578524Y4803110D01*
X31623175Y4655901D01*
X31748359Y4393080D01*
X31922412Y4159731D01*
X32138645Y3964822D01*
X32388748Y3815843D01*
X32663109Y3718519D01*
X32893000Y3839186D01*
X32893000Y5033000D01*
X31699845Y5033000D01*
X31578524Y4803110D01*
X17263252Y4803110D01*
X17394323Y4910677D01*
X17549854Y5100192D01*
X17665424Y5316408D01*
X17736592Y5551016D01*
X17760622Y5795000D01*
X17736592Y6038984D01*
X17665424Y6273592D01*
X17549854Y6489808D01*
X17394323Y6679323D01*
X17204808Y6834854D01*
X16988592Y6950424D01*
X16753984Y7021592D01*
X16571143Y7039600D01*
X16448857Y7039600D01*
X16266016Y7021592D01*
X16031408Y6950424D01*
X15815192Y6834854D01*
X15625677Y6679323D01*
X15470146Y6489808D01*
X15354576Y6273592D01*
X15283408Y6038984D01*
X15259378Y5795000D01*
X15283408Y5551016D01*
X15354576Y5316408D01*
X15470146Y5100192D01*
X15625677Y4910677D01*
X15815192Y4755146D01*
X15999800Y4656471D01*
X15874022Y4611964D01*
X15621512Y4461817D01*
X15403146Y4265293D01*
X15240000Y4046922D01*
X15076854Y4265293D01*
X14858488Y4461817D01*
X14605978Y4611964D01*
X14480200Y4656471D01*
X14664808Y4755146D01*
X14854323Y4910677D01*
X15009854Y5100192D01*
X15125424Y5316408D01*
X15196592Y5551016D01*
X15220622Y5795000D01*
X15196592Y6038984D01*
X15125424Y6273592D01*
X15009854Y6489808D01*
X14854323Y6679323D01*
X14664808Y6834854D01*
X14448592Y6950424D01*
X14213984Y7021592D01*
X14031143Y7039600D01*
X13908857Y7039600D01*
X13726016Y7021592D01*
X13491408Y6950424D01*
X13275192Y6834854D01*
X13085677Y6679323D01*
X12930146Y6489808D01*
X12814576Y6273592D01*
X12743408Y6038984D01*
X12719378Y5795000D01*
X12743408Y5551016D01*
X12814576Y5316408D01*
X12930146Y5100192D01*
X13085677Y4910677D01*
X13275192Y4755146D01*
X13459800Y4656471D01*
X13334022Y4611964D01*
X13081512Y4461817D01*
X12863146Y4265293D01*
X12700000Y4046922D01*
X12536854Y4265293D01*
X12318488Y4461817D01*
X12172613Y4548557D01*
X12293600Y4548557D01*
X12368289Y4555913D01*
X12440108Y4577699D01*
X12506296Y4613078D01*
X12564311Y4660689D01*
X12611922Y4718704D01*
X12647301Y4784892D01*
X12669087Y4856711D01*
X12676443Y4931400D01*
X12676443Y6658600D01*
X12669087Y6733289D01*
X12647301Y6805108D01*
X12611922Y6871296D01*
X12564311Y6929311D01*
X12506296Y6976922D01*
X12440108Y7012301D01*
X12368289Y7034087D01*
X12293600Y7041443D01*
X10566400Y7041443D01*
X10491711Y7034087D01*
X10419892Y7012301D01*
X10353704Y6976922D01*
X10295689Y6929311D01*
X10248078Y6871296D01*
X10212699Y6805108D01*
X10190913Y6733289D01*
X10183557Y6658600D01*
X10183557Y4931400D01*
X10190913Y4856711D01*
X10212699Y4784892D01*
X10248078Y4718704D01*
X10295689Y4660689D01*
X10353704Y4613078D01*
X10419892Y4577699D01*
X10491711Y4555913D01*
X10566400Y4548557D01*
X10687387Y4548557D01*
X10541512Y4461817D01*
X10323146Y4265293D01*
X10147316Y4029944D01*
X10020778Y3764814D01*
X9975042Y3614026D01*
X8129121Y3614026D01*
X8154851Y3853853D01*
X8082069Y4665118D01*
X7852415Y5446597D01*
X7474715Y6168256D01*
X7434550Y6228366D01*
X6914155Y6624550D01*
X4179605Y3890000D01*
X3820395Y3890000D01*
X1085845Y6624550D01*
X565450Y6228366D01*
X508000Y6123098D01*
X508000Y6804155D01*
X1265450Y6804155D01*
X4000000Y4069605D01*
X6734550Y6804155D01*
X6338366Y7324550D01*
X5623388Y7714748D01*
X4846024Y7957964D01*
X4036147Y8044851D01*
X3224882Y7972069D01*
X2443403Y7742415D01*
X1721744Y7364715D01*
X1661634Y7324550D01*
X1265450Y6804155D01*
X508000Y6804155D01*
X508000Y12902050D01*
X3048000Y12902050D01*
X3048000Y12751950D01*
X3077283Y12604733D01*
X3134724Y12466058D01*
X3218116Y12341253D01*
X3324253Y12235116D01*
X3449058Y12151724D01*
X3587733Y12094283D01*
X3734950Y12065000D01*
X3885050Y12065000D01*
X3941016Y12076132D01*
X3942853Y12074625D01*
X4020073Y12033350D01*
X4103862Y12007933D01*
X4169169Y12001501D01*
X4169179Y12001501D01*
X4190999Y11999352D01*
X4212819Y12001501D01*
X9122181Y12001501D01*
X9144001Y11999352D01*
X9165821Y12001501D01*
X9165831Y12001501D01*
X9231138Y12007933D01*
X9314927Y12033350D01*
X9392146Y12074625D01*
X9459830Y12130172D01*
X9473748Y12147131D01*
X10290296Y12963678D01*
X10338950Y12954000D01*
X10489050Y12954000D01*
X10636267Y12983283D01*
X10774942Y13040724D01*
X10899747Y13124116D01*
X11005884Y13230253D01*
X11089276Y13355058D01*
X11146717Y13493733D01*
X11167381Y13597619D01*
X11271267Y13618283D01*
X11409942Y13675724D01*
X11534747Y13759116D01*
X11640884Y13865253D01*
X11676161Y13918050D01*
X19685000Y13918050D01*
X19685000Y13767950D01*
X19714283Y13620733D01*
X19771724Y13482058D01*
X19855116Y13357253D01*
X19961253Y13251116D01*
X20086058Y13167724D01*
X20224733Y13110283D01*
X20371950Y13081000D01*
X20522050Y13081000D01*
X20669267Y13110283D01*
X20807942Y13167724D01*
X20932747Y13251116D01*
X21038884Y13357253D01*
X21066444Y13398500D01*
X24907556Y13398500D01*
X24935116Y13357253D01*
X25041253Y13251116D01*
X25166058Y13167724D01*
X25304733Y13110283D01*
X25451950Y13081000D01*
X25602050Y13081000D01*
X25749267Y13110283D01*
X25887942Y13167724D01*
X26012747Y13251116D01*
X26118884Y13357253D01*
X26202276Y13482058D01*
X26259717Y13620733D01*
X26278667Y13716000D01*
X26364050Y13716000D01*
X26511267Y13745283D01*
X26649942Y13802724D01*
X26774747Y13886116D01*
X26880884Y13992253D01*
X26964276Y14117058D01*
X27021717Y14255733D01*
X27040667Y14351000D01*
X27126050Y14351000D01*
X27273267Y14380283D01*
X27411942Y14437724D01*
X27536747Y14521116D01*
X27642884Y14627253D01*
X27726276Y14752058D01*
X27783717Y14890733D01*
X27813000Y15037950D01*
X27813000Y15188050D01*
X27783717Y15335267D01*
X27726276Y15473942D01*
X27642884Y15598747D01*
X27536747Y15704884D01*
X27411942Y15788276D01*
X27273267Y15845717D01*
X27126050Y15875000D01*
X26975950Y15875000D01*
X26828733Y15845717D01*
X26690058Y15788276D01*
X26565253Y15704884D01*
X26459116Y15598747D01*
X26431556Y15557500D01*
X22658634Y15557500D01*
X22636814Y15559649D01*
X22614994Y15557500D01*
X22614985Y15557500D01*
X22549678Y15551068D01*
X22498951Y15535680D01*
X22456747Y15577884D01*
X22331942Y15661276D01*
X22193267Y15718717D01*
X22046050Y15748000D01*
X21895950Y15748000D01*
X21748733Y15718717D01*
X21610058Y15661276D01*
X21485253Y15577884D01*
X21379116Y15471747D01*
X21295724Y15346942D01*
X21292844Y15339989D01*
X21157050Y15367000D01*
X21006950Y15367000D01*
X20859733Y15337717D01*
X20721058Y15280276D01*
X20596253Y15196884D01*
X20490116Y15090747D01*
X20406724Y14965942D01*
X20349283Y14827267D01*
X20320000Y14680050D01*
X20320000Y14594667D01*
X20224733Y14575717D01*
X20086058Y14518276D01*
X19961253Y14434884D01*
X19855116Y14328747D01*
X19771724Y14203942D01*
X19714283Y14065267D01*
X19685000Y13918050D01*
X11676161Y13918050D01*
X11724276Y13990058D01*
X11781717Y14128733D01*
X11811000Y14275950D01*
X11811000Y14426050D01*
X11781717Y14573267D01*
X11724276Y14711942D01*
X11640884Y14836747D01*
X11534747Y14942884D01*
X11409942Y15026276D01*
X11271267Y15083717D01*
X11124050Y15113000D01*
X10973950Y15113000D01*
X10925295Y15103322D01*
X10362747Y15665871D01*
X10348829Y15682829D01*
X10281145Y15738376D01*
X10203926Y15779651D01*
X10120137Y15805068D01*
X10054830Y15811500D01*
X10054820Y15811500D01*
X10033000Y15813649D01*
X10017058Y15812079D01*
X9989884Y15852747D01*
X9883747Y15958884D01*
X9758942Y16042276D01*
X9620267Y16099717D01*
X9473050Y16129000D01*
X9322950Y16129000D01*
X9175733Y16099717D01*
X9037058Y16042276D01*
X8912253Y15958884D01*
X8806116Y15852747D01*
X8722724Y15727942D01*
X8665283Y15589267D01*
X8636000Y15442050D01*
X8636000Y15316825D01*
X8559363Y15316825D01*
X8412146Y15287542D01*
X8273471Y15230101D01*
X8148666Y15146709D01*
X8042529Y15040572D01*
X7959137Y14915767D01*
X7901696Y14777092D01*
X7872413Y14629875D01*
X7872413Y14479775D01*
X7882091Y14431121D01*
X7564471Y14113500D01*
X5826444Y14113500D01*
X5798884Y14154747D01*
X5692747Y14260884D01*
X5567942Y14344276D01*
X5429267Y14401717D01*
X5282050Y14431000D01*
X5131950Y14431000D01*
X4984733Y14401717D01*
X4846058Y14344276D01*
X4762500Y14288444D01*
X4678942Y14344276D01*
X4540267Y14401717D01*
X4393050Y14431000D01*
X4242950Y14431000D01*
X4095733Y14401717D01*
X3957058Y14344276D01*
X3832253Y14260884D01*
X3726116Y14154747D01*
X3642724Y14029942D01*
X3585283Y13891267D01*
X3556000Y13744050D01*
X3556000Y13593950D01*
X3564706Y13550179D01*
X3449058Y13502276D01*
X3324253Y13418884D01*
X3218116Y13312747D01*
X3134724Y13187942D01*
X3077283Y13049267D01*
X3048000Y12902050D01*
X508000Y12902050D01*
X508000Y21085845D01*
X1265450Y21085845D01*
X1661634Y20565450D01*
X2376612Y20175252D01*
X3153976Y19932036D01*
X3963853Y19845149D01*
X4775118Y19917931D01*
X5556597Y20147585D01*
X6278256Y20525285D01*
X6338366Y20565450D01*
X6734550Y21085845D01*
X4000000Y23820395D01*
X1265450Y21085845D01*
X508000Y21085845D01*
X508000Y21754770D01*
X525285Y21721744D01*
X565450Y21661634D01*
X1085845Y21265450D01*
X3820395Y24000000D01*
X4179605Y24000000D01*
X6914155Y21265450D01*
X7434550Y21661634D01*
X7824748Y22376612D01*
X8067964Y23153976D01*
X8154851Y23963853D01*
X8082069Y24775118D01*
X7852415Y25556597D01*
X7474715Y26278256D01*
X7434550Y26338366D01*
X6914155Y26734550D01*
X4179605Y24000000D01*
X3820395Y24000000D01*
X1085845Y26734550D01*
X565450Y26338366D01*
X508000Y26233098D01*
X508000Y27492000D01*
X1754770Y27492000D01*
X1721744Y27474715D01*
X1721744Y27474715D01*
G37*
X1721744Y27474715D02*
X1661634Y27434550D01*
X1265450Y26914155D01*
X4000000Y24179605D01*
X6734550Y26914155D01*
X6338366Y27434550D01*
X6233098Y27492000D01*
X33992000Y27492000D01*
X33992000Y24151135D01*
X33944689Y24165487D01*
X33870000Y24172843D01*
X32170000Y24172843D01*
X32095311Y24165487D01*
X32023492Y24143701D01*
X31957304Y24108322D01*
X31899289Y24060711D01*
X31851678Y24002696D01*
X31816299Y23936508D01*
X31794513Y23864689D01*
X31787157Y23790000D01*
X31787157Y22090000D01*
X31794513Y22015311D01*
X31816299Y21943492D01*
X31851678Y21877304D01*
X31899289Y21819289D01*
X31957304Y21771678D01*
X32023492Y21736299D01*
X32095311Y21714513D01*
X32170000Y21707157D01*
X33870000Y21707157D01*
X33944689Y21714513D01*
X33992000Y21728865D01*
X33992000Y21156050D01*
X33894660Y21274660D01*
X33707216Y21428491D01*
X33493363Y21542798D01*
X33261318Y21613188D01*
X33080472Y21631000D01*
X32959528Y21631000D01*
X32778682Y21613188D01*
X32546637Y21542798D01*
X32332784Y21428491D01*
X32145340Y21274660D01*
X31991509Y21087216D01*
X31877202Y20873363D01*
X31806812Y20641318D01*
X31783044Y20400000D01*
X31806812Y20158682D01*
X31877202Y19926637D01*
X31991509Y19712784D01*
X32145340Y19525340D01*
X32332784Y19371509D01*
X32546637Y19257202D01*
X32778682Y19186812D01*
X32959528Y19169000D01*
X33080472Y19169000D01*
X33261318Y19186812D01*
X33493363Y19257202D01*
X33707216Y19371509D01*
X33894660Y19525340D01*
X33992000Y19643950D01*
X33992000Y18616050D01*
X33894660Y18734660D01*
X33707216Y18888491D01*
X33493363Y19002798D01*
X33261318Y19073188D01*
X33080472Y19091000D01*
X32959528Y19091000D01*
X32778682Y19073188D01*
X32546637Y19002798D01*
X32332784Y18888491D01*
X32145340Y18734660D01*
X31991509Y18547216D01*
X31877202Y18333363D01*
X31806812Y18101318D01*
X31783044Y17860000D01*
X31806812Y17618682D01*
X31877202Y17386637D01*
X31991509Y17172784D01*
X32145340Y16985340D01*
X32332784Y16831509D01*
X32543305Y16718983D01*
X32388748Y16664157D01*
X32138645Y16515178D01*
X31922412Y16320269D01*
X31748359Y16086920D01*
X31623175Y15824099D01*
X31578524Y15676890D01*
X31699845Y15447000D01*
X32893000Y15447000D01*
X32893000Y15467000D01*
X33147000Y15467000D01*
X33147000Y15447000D01*
X33167000Y15447000D01*
X33167000Y15193000D01*
X33147000Y15193000D01*
X33147000Y15173000D01*
X32893000Y15173000D01*
X32893000Y15193000D01*
X31699845Y15193000D01*
X31578524Y14963110D01*
X31623175Y14815901D01*
X31748359Y14553080D01*
X31922412Y14319731D01*
X32138645Y14124822D01*
X32388748Y13975843D01*
X32543305Y13921017D01*
X32332784Y13808491D01*
X32145340Y13654660D01*
X31991509Y13467216D01*
X31877202Y13253363D01*
X31806812Y13021318D01*
X31783044Y12780000D01*
X31806812Y12538682D01*
X31877202Y12306637D01*
X31991509Y12092784D01*
X32145340Y11905340D01*
X32332784Y11751509D01*
X32546637Y11637202D01*
X32778682Y11566812D01*
X32959528Y11549000D01*
X33080472Y11549000D01*
X33261318Y11566812D01*
X33493363Y11637202D01*
X33707216Y11751509D01*
X33894660Y11905340D01*
X33992001Y12023950D01*
X33992001Y10996050D01*
X33894660Y11114660D01*
X33707216Y11268491D01*
X33493363Y11382798D01*
X33261318Y11453188D01*
X33080472Y11471000D01*
X32959528Y11471000D01*
X32778682Y11453188D01*
X32546637Y11382798D01*
X32332784Y11268491D01*
X32145340Y11114660D01*
X31991509Y10927216D01*
X31877202Y10713363D01*
X31806812Y10481318D01*
X31783044Y10240000D01*
X31806812Y9998682D01*
X31877202Y9766637D01*
X31991509Y9552784D01*
X32145340Y9365340D01*
X32332784Y9211509D01*
X32546637Y9097202D01*
X32778682Y9026812D01*
X32959528Y9009000D01*
X33080472Y9009000D01*
X33261318Y9026812D01*
X33493363Y9097202D01*
X33707216Y9211509D01*
X33894660Y9365340D01*
X33992001Y9483950D01*
X33992001Y8456050D01*
X33894660Y8574660D01*
X33707216Y8728491D01*
X33493363Y8842798D01*
X33261318Y8913188D01*
X33080472Y8931000D01*
X32959528Y8931000D01*
X32778682Y8913188D01*
X32546637Y8842798D01*
X32332784Y8728491D01*
X32145340Y8574660D01*
X31991509Y8387216D01*
X31877202Y8173363D01*
X31806812Y7941318D01*
X31783044Y7700000D01*
X31806812Y7458682D01*
X31877202Y7226637D01*
X31991509Y7012784D01*
X32145340Y6825340D01*
X32332784Y6671509D01*
X32543305Y6558983D01*
X32388748Y6504157D01*
X32138645Y6355178D01*
X31922412Y6160269D01*
X31748359Y5926920D01*
X31623175Y5664099D01*
X31578524Y5516890D01*
X31699845Y5287000D01*
X32893000Y5287000D01*
X32893000Y5307000D01*
X33147000Y5307000D01*
X33147000Y5287000D01*
X33167000Y5287000D01*
X33167000Y5033000D01*
X33147000Y5033000D01*
X33147000Y3839186D01*
X33376891Y3718519D01*
X33651252Y3815843D01*
X33901355Y3964822D01*
X33992001Y4046529D01*
X33992001Y508000D01*
X6378373Y508000D01*
X6734550Y975845D01*
X4000000Y3710395D01*
X1265450Y975845D01*
X1621627Y508000D01*
X508000Y508000D01*
X508000Y1644770D01*
X525285Y1611744D01*
X565450Y1551634D01*
X1085845Y1155450D01*
X3820395Y3890000D01*
X4179605Y3890000D01*
X6914155Y1155450D01*
X7434550Y1551634D01*
X7824748Y2266612D01*
X8021658Y2895974D01*
X9975042Y2895974D01*
X10020778Y2745186D01*
X10147316Y2480056D01*
X10323146Y2244707D01*
X10541512Y2048183D01*
X10794022Y1898036D01*
X11070973Y1800037D01*
X11303000Y1920536D01*
X11303000Y3128000D01*
X11557000Y3128000D01*
X11557000Y1920536D01*
X11789027Y1800037D01*
X12065978Y1898036D01*
X12318488Y2048183D01*
X12536854Y2244707D01*
X12700000Y2463078D01*
X12863146Y2244707D01*
X13081512Y2048183D01*
X13334022Y1898036D01*
X13610973Y1800037D01*
X13843000Y1920536D01*
X13843000Y3128000D01*
X14097000Y3128000D01*
X14097000Y1920536D01*
X14329027Y1800037D01*
X14605978Y1898036D01*
X14858488Y2048183D01*
X15076854Y2244707D01*
X15240000Y2463078D01*
X15403146Y2244707D01*
X15621512Y2048183D01*
X15874022Y1898036D01*
X16150973Y1800037D01*
X16383000Y1920536D01*
X16383000Y3128000D01*
X16637000Y3128000D01*
X16637000Y1920536D01*
X16869027Y1800037D01*
X17145978Y1898036D01*
X17398488Y2048183D01*
X17616854Y2244707D01*
X17792684Y2480056D01*
X17919222Y2745186D01*
X17964958Y2895974D01*
X17843817Y3128000D01*
X16637000Y3128000D01*
X16383000Y3128000D01*
X14097000Y3128000D01*
X13843000Y3128000D01*
X11557000Y3128000D01*
X11303000Y3128000D01*
X10096183Y3128000D01*
X9975042Y2895974D01*
X8021658Y2895974D01*
X8067964Y3043976D01*
X8129121Y3614026D01*
X9975042Y3614026D01*
X10096183Y3382000D01*
X11303000Y3382000D01*
X11303000Y3402000D01*
X11557000Y3402000D01*
X11557000Y3382000D01*
X13843000Y3382000D01*
X13843000Y3402000D01*
X14097000Y3402000D01*
X14097000Y3382000D01*
X16383000Y3382000D01*
X16383000Y3402000D01*
X16637000Y3402000D01*
X16637000Y3382000D01*
X17843817Y3382000D01*
X17964958Y3614026D01*
X17919222Y3764814D01*
X17792684Y4029944D01*
X17616854Y4265293D01*
X17398488Y4461817D01*
X17145978Y4611964D01*
X17020200Y4656471D01*
X17204808Y4755146D01*
X17263252Y4803110D01*
X31578524Y4803110D01*
X31623175Y4655901D01*
X31748359Y4393080D01*
X31922412Y4159731D01*
X32138645Y3964822D01*
X32388748Y3815843D01*
X32663109Y3718519D01*
X32893000Y3839186D01*
X32893000Y5033000D01*
X31699845Y5033000D01*
X31578524Y4803110D01*
X17263252Y4803110D01*
X17394323Y4910677D01*
X17549854Y5100192D01*
X17665424Y5316408D01*
X17736592Y5551016D01*
X17760622Y5795000D01*
X17736592Y6038984D01*
X17665424Y6273592D01*
X17549854Y6489808D01*
X17394323Y6679323D01*
X17204808Y6834854D01*
X16988592Y6950424D01*
X16753984Y7021592D01*
X16571143Y7039600D01*
X16448857Y7039600D01*
X16266016Y7021592D01*
X16031408Y6950424D01*
X15815192Y6834854D01*
X15625677Y6679323D01*
X15470146Y6489808D01*
X15354576Y6273592D01*
X15283408Y6038984D01*
X15259378Y5795000D01*
X15283408Y5551016D01*
X15354576Y5316408D01*
X15470146Y5100192D01*
X15625677Y4910677D01*
X15815192Y4755146D01*
X15999800Y4656471D01*
X15874022Y4611964D01*
X15621512Y4461817D01*
X15403146Y4265293D01*
X15240000Y4046922D01*
X15076854Y4265293D01*
X14858488Y4461817D01*
X14605978Y4611964D01*
X14480200Y4656471D01*
X14664808Y4755146D01*
X14854323Y4910677D01*
X15009854Y5100192D01*
X15125424Y5316408D01*
X15196592Y5551016D01*
X15220622Y5795000D01*
X15196592Y6038984D01*
X15125424Y6273592D01*
X15009854Y6489808D01*
X14854323Y6679323D01*
X14664808Y6834854D01*
X14448592Y6950424D01*
X14213984Y7021592D01*
X14031143Y7039600D01*
X13908857Y7039600D01*
X13726016Y7021592D01*
X13491408Y6950424D01*
X13275192Y6834854D01*
X13085677Y6679323D01*
X12930146Y6489808D01*
X12814576Y6273592D01*
X12743408Y6038984D01*
X12719378Y5795000D01*
X12743408Y5551016D01*
X12814576Y5316408D01*
X12930146Y5100192D01*
X13085677Y4910677D01*
X13275192Y4755146D01*
X13459800Y4656471D01*
X13334022Y4611964D01*
X13081512Y4461817D01*
X12863146Y4265293D01*
X12700000Y4046922D01*
X12536854Y4265293D01*
X12318488Y4461817D01*
X12172613Y4548557D01*
X12293600Y4548557D01*
X12368289Y4555913D01*
X12440108Y4577699D01*
X12506296Y4613078D01*
X12564311Y4660689D01*
X12611922Y4718704D01*
X12647301Y4784892D01*
X12669087Y4856711D01*
X12676443Y4931400D01*
X12676443Y6658600D01*
X12669087Y6733289D01*
X12647301Y6805108D01*
X12611922Y6871296D01*
X12564311Y6929311D01*
X12506296Y6976922D01*
X12440108Y7012301D01*
X12368289Y7034087D01*
X12293600Y7041443D01*
X10566400Y7041443D01*
X10491711Y7034087D01*
X10419892Y7012301D01*
X10353704Y6976922D01*
X10295689Y6929311D01*
X10248078Y6871296D01*
X10212699Y6805108D01*
X10190913Y6733289D01*
X10183557Y6658600D01*
X10183557Y4931400D01*
X10190913Y4856711D01*
X10212699Y4784892D01*
X10248078Y4718704D01*
X10295689Y4660689D01*
X10353704Y4613078D01*
X10419892Y4577699D01*
X10491711Y4555913D01*
X10566400Y4548557D01*
X10687387Y4548557D01*
X10541512Y4461817D01*
X10323146Y4265293D01*
X10147316Y4029944D01*
X10020778Y3764814D01*
X9975042Y3614026D01*
X8129121Y3614026D01*
X8154851Y3853853D01*
X8082069Y4665118D01*
X7852415Y5446597D01*
X7474715Y6168256D01*
X7434550Y6228366D01*
X6914155Y6624550D01*
X4179605Y3890000D01*
X3820395Y3890000D01*
X1085845Y6624550D01*
X565450Y6228366D01*
X508000Y6123098D01*
X508000Y6804155D01*
X1265450Y6804155D01*
X4000000Y4069605D01*
X6734550Y6804155D01*
X6338366Y7324550D01*
X5623388Y7714748D01*
X4846024Y7957964D01*
X4036147Y8044851D01*
X3224882Y7972069D01*
X2443403Y7742415D01*
X1721744Y7364715D01*
X1661634Y7324550D01*
X1265450Y6804155D01*
X508000Y6804155D01*
X508000Y12902050D01*
X3048000Y12902050D01*
X3048000Y12751950D01*
X3077283Y12604733D01*
X3134724Y12466058D01*
X3218116Y12341253D01*
X3324253Y12235116D01*
X3449058Y12151724D01*
X3587733Y12094283D01*
X3734950Y12065000D01*
X3885050Y12065000D01*
X3941016Y12076132D01*
X3942853Y12074625D01*
X4020073Y12033350D01*
X4103862Y12007933D01*
X4169169Y12001501D01*
X4169179Y12001501D01*
X4190999Y11999352D01*
X4212819Y12001501D01*
X9122181Y12001501D01*
X9144001Y11999352D01*
X9165821Y12001501D01*
X9165831Y12001501D01*
X9231138Y12007933D01*
X9314927Y12033350D01*
X9392146Y12074625D01*
X9459830Y12130172D01*
X9473748Y12147131D01*
X10290296Y12963678D01*
X10338950Y12954000D01*
X10489050Y12954000D01*
X10636267Y12983283D01*
X10774942Y13040724D01*
X10899747Y13124116D01*
X11005884Y13230253D01*
X11089276Y13355058D01*
X11146717Y13493733D01*
X11167381Y13597619D01*
X11271267Y13618283D01*
X11409942Y13675724D01*
X11534747Y13759116D01*
X11640884Y13865253D01*
X11676161Y13918050D01*
X19685000Y13918050D01*
X19685000Y13767950D01*
X19714283Y13620733D01*
X19771724Y13482058D01*
X19855116Y13357253D01*
X19961253Y13251116D01*
X20086058Y13167724D01*
X20224733Y13110283D01*
X20371950Y13081000D01*
X20522050Y13081000D01*
X20669267Y13110283D01*
X20807942Y13167724D01*
X20932747Y13251116D01*
X21038884Y13357253D01*
X21066444Y13398500D01*
X24907556Y13398500D01*
X24935116Y13357253D01*
X25041253Y13251116D01*
X25166058Y13167724D01*
X25304733Y13110283D01*
X25451950Y13081000D01*
X25602050Y13081000D01*
X25749267Y13110283D01*
X25887942Y13167724D01*
X26012747Y13251116D01*
X26118884Y13357253D01*
X26202276Y13482058D01*
X26259717Y13620733D01*
X26278667Y13716000D01*
X26364050Y13716000D01*
X26511267Y13745283D01*
X26649942Y13802724D01*
X26774747Y13886116D01*
X26880884Y13992253D01*
X26964276Y14117058D01*
X27021717Y14255733D01*
X27040667Y14351000D01*
X27126050Y14351000D01*
X27273267Y14380283D01*
X27411942Y14437724D01*
X27536747Y14521116D01*
X27642884Y14627253D01*
X27726276Y14752058D01*
X27783717Y14890733D01*
X27813000Y15037950D01*
X27813000Y15188050D01*
X27783717Y15335267D01*
X27726276Y15473942D01*
X27642884Y15598747D01*
X27536747Y15704884D01*
X27411942Y15788276D01*
X27273267Y15845717D01*
X27126050Y15875000D01*
X26975950Y15875000D01*
X26828733Y15845717D01*
X26690058Y15788276D01*
X26565253Y15704884D01*
X26459116Y15598747D01*
X26431556Y15557500D01*
X22658634Y15557500D01*
X22636814Y15559649D01*
X22614994Y15557500D01*
X22614985Y15557500D01*
X22549678Y15551068D01*
X22498951Y15535680D01*
X22456747Y15577884D01*
X22331942Y15661276D01*
X22193267Y15718717D01*
X22046050Y15748000D01*
X21895950Y15748000D01*
X21748733Y15718717D01*
X21610058Y15661276D01*
X21485253Y15577884D01*
X21379116Y15471747D01*
X21295724Y15346942D01*
X21292844Y15339989D01*
X21157050Y15367000D01*
X21006950Y15367000D01*
X20859733Y15337717D01*
X20721058Y15280276D01*
X20596253Y15196884D01*
X20490116Y15090747D01*
X20406724Y14965942D01*
X20349283Y14827267D01*
X20320000Y14680050D01*
X20320000Y14594667D01*
X20224733Y14575717D01*
X20086058Y14518276D01*
X19961253Y14434884D01*
X19855116Y14328747D01*
X19771724Y14203942D01*
X19714283Y14065267D01*
X19685000Y13918050D01*
X11676161Y13918050D01*
X11724276Y13990058D01*
X11781717Y14128733D01*
X11811000Y14275950D01*
X11811000Y14426050D01*
X11781717Y14573267D01*
X11724276Y14711942D01*
X11640884Y14836747D01*
X11534747Y14942884D01*
X11409942Y15026276D01*
X11271267Y15083717D01*
X11124050Y15113000D01*
X10973950Y15113000D01*
X10925295Y15103322D01*
X10362747Y15665871D01*
X10348829Y15682829D01*
X10281145Y15738376D01*
X10203926Y15779651D01*
X10120137Y15805068D01*
X10054830Y15811500D01*
X10054820Y15811500D01*
X10033000Y15813649D01*
X10017058Y15812079D01*
X9989884Y15852747D01*
X9883747Y15958884D01*
X9758942Y16042276D01*
X9620267Y16099717D01*
X9473050Y16129000D01*
X9322950Y16129000D01*
X9175733Y16099717D01*
X9037058Y16042276D01*
X8912253Y15958884D01*
X8806116Y15852747D01*
X8722724Y15727942D01*
X8665283Y15589267D01*
X8636000Y15442050D01*
X8636000Y15316825D01*
X8559363Y15316825D01*
X8412146Y15287542D01*
X8273471Y15230101D01*
X8148666Y15146709D01*
X8042529Y15040572D01*
X7959137Y14915767D01*
X7901696Y14777092D01*
X7872413Y14629875D01*
X7872413Y14479775D01*
X7882091Y14431121D01*
X7564471Y14113500D01*
X5826444Y14113500D01*
X5798884Y14154747D01*
X5692747Y14260884D01*
X5567942Y14344276D01*
X5429267Y14401717D01*
X5282050Y14431000D01*
X5131950Y14431000D01*
X4984733Y14401717D01*
X4846058Y14344276D01*
X4762500Y14288444D01*
X4678942Y14344276D01*
X4540267Y14401717D01*
X4393050Y14431000D01*
X4242950Y14431000D01*
X4095733Y14401717D01*
X3957058Y14344276D01*
X3832253Y14260884D01*
X3726116Y14154747D01*
X3642724Y14029942D01*
X3585283Y13891267D01*
X3556000Y13744050D01*
X3556000Y13593950D01*
X3564706Y13550179D01*
X3449058Y13502276D01*
X3324253Y13418884D01*
X3218116Y13312747D01*
X3134724Y13187942D01*
X3077283Y13049267D01*
X3048000Y12902050D01*
X508000Y12902050D01*
X508000Y21085845D01*
X1265450Y21085845D01*
X1661634Y20565450D01*
X2376612Y20175252D01*
X3153976Y19932036D01*
X3963853Y19845149D01*
X4775118Y19917931D01*
X5556597Y20147585D01*
X6278256Y20525285D01*
X6338366Y20565450D01*
X6734550Y21085845D01*
X4000000Y23820395D01*
X1265450Y21085845D01*
X508000Y21085845D01*
X508000Y21754770D01*
X525285Y21721744D01*
X565450Y21661634D01*
X1085845Y21265450D01*
X3820395Y24000000D01*
X4179605Y24000000D01*
X6914155Y21265450D01*
X7434550Y21661634D01*
X7824748Y22376612D01*
X8067964Y23153976D01*
X8154851Y23963853D01*
X8082069Y24775118D01*
X7852415Y25556597D01*
X7474715Y26278256D01*
X7434550Y26338366D01*
X6914155Y26734550D01*
X4179605Y24000000D01*
X3820395Y24000000D01*
X1085845Y26734550D01*
X565450Y26338366D01*
X508000Y26233098D01*
X508000Y27492000D01*
X1754770Y27492000D01*
X1721744Y27474715D01*
M02*
