G04 #@! TF.GenerationSoftware,KiCad,Pcbnew,(5.1.2)-1*
G04 #@! TF.CreationDate,2019-06-03T23:01:36-07:00*
G04 #@! TF.ProjectId,USB-PD-Breakout,5553422d-5044-42d4-9272-65616b6f7574,rev?*
G04 #@! TF.SameCoordinates,PX60e4b00PY60e4b00*
G04 #@! TF.FileFunction,Copper,L1,Top*
G04 #@! TF.FilePolarity,Positive*
%FSLAX46Y46*%
G04 Gerber Fmt 4.6, Leading zero omitted, Abs format (unit mm)*
G04 Created by KiCad (PCBNEW (5.1.2)-1) date 2019-06-03 23:01:36*
%MOMM*%
%LPD*%
G04 APERTURE LIST*
%ADD10O,2.600000X1.100000*%
%ADD11O,2.100000X1.100000*%
%ADD12R,0.700000X1.000000*%
%ADD13R,0.700000X0.300000*%
%ADD14O,0.900000X1.600000*%
%ADD15R,1.400000X1.600000*%
%ADD16R,1.900000X1.900000*%
%ADD17R,0.400000X1.350000*%
%ADD18R,1.727200X1.727200*%
%ADD19O,1.727200X1.727200*%
%ADD20R,1.000000X1.600000*%
%ADD21R,0.800000X0.750000*%
%ADD22R,1.250000X1.000000*%
%ADD23R,0.750000X0.800000*%
%ADD24R,0.580000X0.300000*%
%ADD25R,0.300000X0.580000*%
%ADD26R,1.450000X1.450000*%
%ADD27C,7.000000*%
%ADD28C,0.600000*%
%ADD29O,1.700000X1.700000*%
%ADD30R,1.700000X1.700000*%
%ADD31C,1.270000*%
%ADD32C,0.762000*%
%ADD33C,0.254000*%
%ADD34C,0.127000*%
G04 APERTURE END LIST*
D10*
X1770000Y9680000D03*
X1770000Y18320000D03*
D11*
X7130000Y9680000D03*
X7130000Y18320000D03*
D12*
X6240000Y17100000D03*
D13*
X6240000Y16250000D03*
X6240000Y15750000D03*
X6240000Y15250000D03*
X6240000Y14750000D03*
X6240000Y14250000D03*
X6240000Y13750000D03*
X6240000Y13250000D03*
X6240000Y12750000D03*
X6240000Y12250000D03*
X6240000Y11750000D03*
D12*
X6240000Y10900000D03*
D13*
X7540000Y11000000D03*
X7540000Y11500000D03*
X7540000Y12000000D03*
X7540000Y12500000D03*
X7540000Y13000000D03*
X7540000Y13500000D03*
X7540000Y14500000D03*
X7540000Y15000000D03*
X7540000Y15500000D03*
X7540000Y16000000D03*
X7540000Y16500000D03*
X7540000Y17000000D03*
D14*
X10670000Y26550000D03*
X17270000Y26550000D03*
D15*
X10770000Y24100000D03*
X17170000Y24100000D03*
D16*
X12770000Y26550000D03*
X15170000Y26550000D03*
D17*
X12670000Y23875000D03*
X13320000Y23875000D03*
X13970000Y23875000D03*
X14620000Y23875000D03*
X15270000Y23875000D03*
D18*
X11430000Y5795000D03*
D19*
X11430000Y3255000D03*
X13970000Y5795000D03*
X13970000Y3255000D03*
X16510000Y5795000D03*
X16510000Y3255000D03*
D20*
X23646000Y3128000D03*
X26646000Y3128000D03*
D21*
X23761000Y5668000D03*
X25261000Y5668000D03*
D22*
X24638000Y16272000D03*
X24638000Y18272000D03*
D23*
X22606000Y16348000D03*
X22606000Y17848000D03*
D21*
X23761000Y8208000D03*
X25261000Y8208000D03*
X21451000Y8208000D03*
X19951000Y8208000D03*
X23610000Y26115000D03*
X22110000Y26115000D03*
X23610000Y24210000D03*
X22110000Y24210000D03*
X23610000Y22305000D03*
X22110000Y22305000D03*
D24*
X23821000Y11518000D03*
X23821000Y12018000D03*
X23821000Y12518000D03*
D25*
X22856000Y13233000D03*
X22356000Y13233000D03*
X21856000Y13233000D03*
D24*
X21391000Y12518000D03*
X21391000Y12018000D03*
X21391000Y11518000D03*
D25*
X21856000Y10803000D03*
X22856000Y10803000D03*
X23356000Y10803000D03*
X22356000Y10803000D03*
X23356000Y13233000D03*
D26*
X22606000Y12018000D03*
D27*
X4000000Y3890000D03*
D28*
X6625000Y3890000D03*
X5856155Y2033845D03*
X4000000Y1265000D03*
X2143845Y2033845D03*
X1375000Y3890000D03*
X2143845Y5746155D03*
X4000000Y6515000D03*
X5856155Y5746155D03*
D27*
X4000000Y24000000D03*
D28*
X6625000Y24000000D03*
X5856155Y22143845D03*
X4000000Y21375000D03*
X2143845Y22143845D03*
X1375000Y24000000D03*
X2143845Y25856155D03*
X4000000Y26625000D03*
X5856155Y25856155D03*
D29*
X33020000Y5160000D03*
X33020000Y7700000D03*
X33020000Y10240000D03*
X33020000Y12780000D03*
X33020000Y15320000D03*
X33020000Y17860000D03*
X33020000Y20400000D03*
D30*
X33020000Y22940000D03*
D31*
X27305000Y17780000D03*
X25781000Y24511000D03*
X16002000Y20701000D03*
X29337000Y1905000D03*
X21971000Y5334000D03*
X21844000Y19812000D03*
X19177000Y18415000D03*
X18161000Y15113000D03*
X18161000Y10033000D03*
D32*
X10922000Y21543000D03*
X10922000Y22432000D03*
X11811000Y22432000D03*
X11811000Y21543000D03*
X12700000Y21543000D03*
X12700000Y22432000D03*
X9779000Y17987000D03*
X9779000Y18749000D03*
X9017000Y18749000D03*
X9017000Y17987000D03*
X8509000Y17479000D03*
X5207000Y17479000D03*
X5207000Y16717000D03*
X5207000Y10367000D03*
X5207000Y11129000D03*
X9398000Y10240000D03*
X10160000Y10240000D03*
X10160000Y11002000D03*
X9398000Y11002000D03*
X8636000Y11002000D03*
X26670000Y1524000D03*
X25273000Y6985000D03*
X25273000Y9525000D03*
X20320000Y12446000D03*
X18669000Y8255000D03*
X25908000Y19431000D03*
X21336000Y17907000D03*
X20447000Y13843000D03*
X25527000Y13843000D03*
X21082000Y14605000D03*
X26289000Y14478000D03*
X21971000Y14986000D03*
X27051000Y15113000D03*
X3810000Y12827000D03*
X10414000Y13716000D03*
X11049000Y14351000D03*
X9398000Y15367000D03*
X8634413Y14554825D03*
X5207000Y13669000D03*
X8636005Y13665815D03*
X4318000Y13669000D03*
D33*
X11811000Y22432000D02*
X10922000Y22432000D01*
X12700000Y21543000D02*
X11811000Y21543000D01*
X12670000Y23875000D02*
X12670000Y22462000D01*
X12670000Y22462000D02*
X12700000Y22432000D01*
X9779000Y18749000D02*
X9779000Y17987000D01*
X9017000Y17987000D02*
X9017000Y18749000D01*
X7510000Y17000000D02*
X8030000Y17000000D01*
X8030000Y17000000D02*
X8509000Y17479000D01*
X7510000Y17000000D02*
X6340000Y17000000D01*
X6340000Y17000000D02*
X6240000Y17100000D01*
X6240000Y17100000D02*
X5590000Y17100000D01*
X5590000Y17100000D02*
X5207000Y16717000D01*
X6240000Y10900000D02*
X5436000Y10900000D01*
X5436000Y10900000D02*
X5207000Y11129000D01*
X6240000Y10900000D02*
X5232000Y10900000D01*
X5232000Y10900000D02*
X5207000Y10875000D01*
X7510000Y11000000D02*
X6340000Y11000000D01*
X6340000Y11000000D02*
X6240000Y10900000D01*
X10160000Y10240000D02*
X9398000Y10240000D01*
X9398000Y11002000D02*
X10160000Y11002000D01*
X7510000Y11000000D02*
X8634000Y11000000D01*
X8634000Y11000000D02*
X8636000Y11002000D01*
X26646000Y3128000D02*
X26646000Y1548000D01*
X26646000Y1548000D02*
X26670000Y1524000D01*
X25261000Y5668000D02*
X25261000Y6973000D01*
X25261000Y6973000D02*
X25273000Y6985000D01*
X25261000Y8208000D02*
X25261000Y9513000D01*
X25261000Y9513000D02*
X25273000Y9525000D01*
D34*
X20974000Y12018000D02*
X20546000Y12446000D01*
X21391000Y12018000D02*
X20974000Y12018000D01*
X20902000Y12446000D02*
X20546000Y12446000D01*
X20974000Y12518000D02*
X20902000Y12446000D01*
X21391000Y12518000D02*
X20974000Y12518000D01*
X20546000Y12446000D02*
X20320000Y12446000D01*
D33*
X25261000Y6997000D02*
X25273000Y6985000D01*
X25261000Y8208000D02*
X25261000Y6997000D01*
D34*
X19951000Y8208000D02*
X18716000Y8208000D01*
X18716000Y8208000D02*
X18669000Y8255000D01*
D33*
X23030000Y18272000D02*
X22606000Y17848000D01*
X24638000Y18272000D02*
X23030000Y18272000D01*
X24638000Y18272000D02*
X24749000Y18272000D01*
X24749000Y18272000D02*
X25908000Y19431000D01*
X22606000Y17848000D02*
X21395000Y17848000D01*
X21395000Y17848000D02*
X21336000Y17907000D01*
D34*
X18669000Y8255000D02*
X18161000Y8763000D01*
X18161000Y8763000D02*
X18161000Y10033000D01*
X21391000Y12018000D02*
X22606000Y12018000D01*
X22106000Y12518000D02*
X22606000Y12018000D01*
X21391000Y12518000D02*
X22106000Y12518000D01*
X21856000Y13233000D02*
X21856000Y13650000D01*
X21856000Y13650000D02*
X21663000Y13843000D01*
X21663000Y13843000D02*
X20447000Y13843000D01*
X31670000Y7700000D02*
X25527000Y13843000D01*
X33020000Y7700000D02*
X31670000Y7700000D01*
X19304000Y14986000D02*
X20447000Y13843000D01*
X19304000Y15113000D02*
X18161000Y15113000D01*
X19304000Y15113000D02*
X19304000Y14986000D01*
X21289000Y26115000D02*
X22110000Y26115000D01*
X19304000Y16764000D02*
X18161000Y17907000D01*
X19304000Y15113000D02*
X19304000Y16764000D01*
X18161000Y17907000D02*
X18161000Y20701000D01*
X18161000Y20701000D02*
X20701000Y23241000D01*
X20701000Y23241000D02*
X20701000Y25527000D01*
X20701000Y25527000D02*
X21289000Y26115000D01*
X22085000Y24210000D02*
X22110000Y24210000D01*
X20193000Y22318000D02*
X22085000Y24210000D01*
X22356000Y13233000D02*
X22356000Y13650000D01*
X22356000Y13650000D02*
X21401000Y14605000D01*
X21401000Y14605000D02*
X21082000Y14605000D01*
X20193000Y15494000D02*
X20193000Y15875000D01*
X21082000Y14605000D02*
X20193000Y15494000D01*
X20193000Y15813000D02*
X20193000Y15875000D01*
X30527000Y10240000D02*
X33020000Y10240000D01*
X26289000Y14478000D02*
X30527000Y10240000D01*
X20075025Y18415000D02*
X20193000Y18415000D01*
X19177000Y18415000D02*
X20075025Y18415000D01*
X20193000Y15875000D02*
X20193000Y18415000D01*
X20193000Y18415000D02*
X20193000Y22318000D01*
X21583000Y22305000D02*
X22110000Y22305000D01*
X20574000Y21296000D02*
X21583000Y22305000D01*
X22856000Y13233000D02*
X22856000Y13650000D01*
X21999500Y14957500D02*
X21971000Y14986000D01*
X22288744Y14668254D02*
X21971000Y14986000D01*
X22288744Y14395589D02*
X22288744Y14668254D01*
X22856000Y13828333D02*
X22288744Y14395589D01*
X22856000Y13650000D02*
X22856000Y13828333D01*
X20574000Y16383000D02*
X20574000Y17399000D01*
X21971000Y14986000D02*
X20574000Y16383000D01*
X29384000Y12780000D02*
X33020000Y12780000D01*
X27051000Y15113000D02*
X29384000Y12780000D01*
X21844000Y19812000D02*
X20574000Y19812000D01*
X20574000Y17399000D02*
X20574000Y19812000D01*
X20574000Y19812000D02*
X20574000Y21296000D01*
X22356000Y10386000D02*
X22606000Y10136000D01*
X22356000Y10803000D02*
X22356000Y10386000D01*
X22856000Y10386000D02*
X22606000Y10136000D01*
X22856000Y10803000D02*
X22856000Y10386000D01*
D33*
X23736000Y5668000D02*
X23761000Y5668000D01*
X22606000Y6798000D02*
X23736000Y5668000D01*
X22606000Y10136000D02*
X22606000Y6798000D01*
X23761000Y3243000D02*
X23646000Y3128000D01*
X23761000Y5668000D02*
X23761000Y3243000D01*
X16510000Y5795000D02*
X19605000Y5795000D01*
X22272000Y3128000D02*
X23646000Y3128000D01*
X19605000Y5795000D02*
X22272000Y3128000D01*
X23427000Y5334000D02*
X23761000Y5668000D01*
X21971000Y5334000D02*
X23427000Y5334000D01*
X22606000Y14527000D02*
X22606000Y16348000D01*
X23356000Y13233000D02*
X23356000Y13777000D01*
X24562000Y16348000D02*
X24638000Y16272000D01*
X22606000Y16348000D02*
X24562000Y16348000D01*
X31432000Y16272000D02*
X33020000Y17860000D01*
X24365000Y12518000D02*
X24638000Y12791000D01*
X23821000Y12518000D02*
X24365000Y12518000D01*
X24638000Y12791000D02*
X24638000Y13208000D01*
X23851500Y13994500D02*
X23138500Y13994500D01*
X24638000Y13208000D02*
X23851500Y13994500D01*
X23356000Y13777000D02*
X23138500Y13994500D01*
X23138500Y13994500D02*
X22606000Y14527000D01*
X27305000Y16288000D02*
X27289000Y16272000D01*
X27305000Y17780000D02*
X27305000Y16288000D01*
X24638000Y16272000D02*
X27289000Y16272000D01*
X27289000Y16272000D02*
X31432000Y16272000D01*
D34*
X5763000Y13250000D02*
X5594000Y13081000D01*
X6240000Y13250000D02*
X5763000Y13250000D01*
X5594000Y13081000D02*
X4064000Y13081000D01*
X4064000Y13081000D02*
X3810000Y12827000D01*
X23761000Y9259000D02*
X23761000Y8208000D01*
X23356000Y9664000D02*
X23761000Y9259000D01*
X23356000Y10803000D02*
X23356000Y10045000D01*
X23356000Y10045000D02*
X23356000Y9664000D01*
X24423000Y11518000D02*
X23821000Y11518000D01*
X24638000Y11303000D02*
X24423000Y11518000D01*
X24638000Y10795000D02*
X24638000Y11303000D01*
X23356000Y10045000D02*
X23888000Y10045000D01*
X23888000Y10045000D02*
X24638000Y10795000D01*
X24511000Y1524000D02*
X24892000Y1905000D01*
X22606000Y1524000D02*
X24511000Y1524000D01*
X24892000Y1905000D02*
X24892000Y4318000D01*
X24892000Y4318000D02*
X24511000Y4699000D01*
X15621000Y4572000D02*
X19558000Y4572000D01*
X24511000Y4699000D02*
X24511000Y6956000D01*
X23761000Y7706000D02*
X23761000Y8208000D01*
X24511000Y6956000D02*
X23761000Y7706000D01*
X19558000Y4572000D02*
X22606000Y1524000D01*
X15240000Y4953000D02*
X15621000Y4572000D01*
X10414000Y13716000D02*
X11303000Y13716000D01*
X11303000Y13716000D02*
X11684000Y14097000D01*
X11684000Y14097000D02*
X15240000Y14097000D01*
X15240000Y14097000D02*
X15621000Y13716000D01*
X15621000Y7366000D02*
X15240000Y6985000D01*
X15621000Y13716000D02*
X15621000Y7366000D01*
X15240000Y6985000D02*
X15240000Y4953000D01*
X21451000Y9259000D02*
X21451000Y8208000D01*
X21856000Y9664000D02*
X21451000Y9259000D01*
X20974000Y11518000D02*
X20701000Y11245000D01*
X21391000Y11518000D02*
X20974000Y11518000D01*
X20701000Y11245000D02*
X20701000Y10795000D01*
X21324000Y10172000D02*
X21856000Y10172000D01*
X20701000Y10795000D02*
X21324000Y10172000D01*
X21856000Y10803000D02*
X21856000Y10172000D01*
X21856000Y10172000D02*
X21856000Y9664000D01*
X8384000Y15367000D02*
X9398000Y15367000D01*
X8017000Y15000000D02*
X8384000Y15367000D01*
X7540000Y15000000D02*
X8017000Y15000000D01*
X20078000Y9259000D02*
X21451000Y9259000D01*
X19304000Y10033000D02*
X20078000Y9259000D01*
X19304000Y10541000D02*
X19304000Y10033000D01*
X11049000Y14351000D02*
X15494000Y14351000D01*
X15494000Y14351000D02*
X19304000Y10541000D01*
D33*
X7510000Y12500000D02*
X8737000Y12500000D01*
X6240000Y12750000D02*
X6626000Y12750000D01*
X6626000Y12750000D02*
X6876000Y12500000D01*
X6876000Y12500000D02*
X7510000Y12500000D01*
X5558798Y12526000D02*
X5080000Y12526000D01*
X6240000Y12750000D02*
X5782798Y12750000D01*
X5782798Y12750000D02*
X5558798Y12526000D01*
X5566000Y15320000D02*
X4953000Y15320000D01*
X6240000Y15250000D02*
X5636000Y15250000D01*
X5636000Y15250000D02*
X5566000Y15320000D01*
X7151257Y15557257D02*
X8125588Y15557257D01*
X8125588Y15557257D02*
X8382000Y15813669D01*
X6844000Y15250000D02*
X7151257Y15557257D01*
X6240000Y15250000D02*
X6844000Y15250000D01*
X8382000Y15813669D02*
X8382000Y16082000D01*
D34*
X25447000Y12018000D02*
X23821000Y12018000D01*
X28067000Y9398000D02*
X25447000Y12018000D01*
X27051000Y762000D02*
X28067000Y1778000D01*
X14833599Y4931401D02*
X14833599Y4597401D01*
X13970000Y5795000D02*
X14833599Y4931401D01*
X14833599Y4597401D02*
X15240000Y4191000D01*
X15240000Y4191000D02*
X15240000Y2286000D01*
X15240000Y2286000D02*
X16764000Y762000D01*
X16764000Y762000D02*
X27051000Y762000D01*
X28194000Y1905000D02*
X29337000Y1905000D01*
X28067000Y1778000D02*
X28194000Y1905000D01*
X28194000Y2286000D02*
X28067000Y2413000D01*
X28194000Y1905000D02*
X28194000Y2286000D01*
X28067000Y2413000D02*
X28067000Y9398000D01*
D33*
X15270000Y23875000D02*
X15270000Y22322000D01*
X15270000Y22322000D02*
X15494000Y22098000D01*
X18796000Y22098000D02*
X19812000Y23114000D01*
X19812000Y23114000D02*
X19812000Y26416000D01*
X19812000Y26416000D02*
X20574000Y27178000D01*
X20574000Y27178000D02*
X24765000Y27178000D01*
X29003000Y22940000D02*
X33020000Y22940000D01*
X24765000Y27178000D02*
X29003000Y22940000D01*
X15494000Y22098000D02*
X16002000Y22098000D01*
X16002000Y20701000D02*
X16002000Y22098000D01*
X16002000Y22098000D02*
X18796000Y22098000D01*
X23610000Y26115000D02*
X23610000Y24210000D01*
X23610000Y24210000D02*
X23610000Y22305000D01*
X23635000Y22305000D02*
X23610000Y22305000D01*
X25540000Y20400000D02*
X23635000Y22305000D01*
X33020000Y20400000D02*
X25540000Y20400000D01*
X25480000Y24210000D02*
X25781000Y24511000D01*
X23610000Y24210000D02*
X25480000Y24210000D01*
D34*
X7510000Y14500000D02*
X8579588Y14500000D01*
X8579588Y14500000D02*
X8634413Y14554825D01*
X6240000Y13750000D02*
X5288000Y13750000D01*
X5288000Y13750000D02*
X5207000Y13669000D01*
X7510000Y14500000D02*
X8017000Y14500000D01*
X13970000Y22742500D02*
X13970000Y23755000D01*
X14168000Y22544500D02*
X13970000Y22742500D01*
X14168000Y18693000D02*
X14168000Y22544500D01*
X9711523Y14236523D02*
X14168000Y18693000D01*
X8634413Y14554825D02*
X8952715Y14236523D01*
X8952715Y14236523D02*
X9711523Y14236523D01*
X7510000Y13500000D02*
X8470190Y13500000D01*
X8470190Y13500000D02*
X8636005Y13665815D01*
X5709000Y14304000D02*
X4953000Y14304000D01*
X4953000Y14304000D02*
X4318000Y13669000D01*
X6240000Y14250000D02*
X5763000Y14250000D01*
X5763000Y14250000D02*
X5709000Y14304000D01*
X14620000Y22742500D02*
X14620000Y23755000D01*
X14422000Y22544500D02*
X14620000Y22742500D01*
X14422000Y18566000D02*
X14422000Y22544500D01*
X9838525Y13982525D02*
X14422000Y18566000D01*
X8636005Y13665815D02*
X8952715Y13982525D01*
X8952715Y13982525D02*
X9838525Y13982525D01*
D33*
G36*
X12766299Y24696508D02*
G01*
X12744513Y24624689D01*
X12737157Y24550000D01*
X12737157Y23200000D01*
X12744513Y23125311D01*
X12766299Y23053492D01*
X12801678Y22987304D01*
X12849289Y22929289D01*
X12907304Y22881678D01*
X12973492Y22846299D01*
X13045311Y22824513D01*
X13120000Y22817157D01*
X13208000Y22817157D01*
X13208000Y21162000D01*
X12192000Y21162000D01*
X12192000Y24718000D01*
X12777787Y24718000D01*
X12766299Y24696508D01*
X12766299Y24696508D01*
G37*
X12766299Y24696508D02*
X12744513Y24624689D01*
X12737157Y24550000D01*
X12737157Y23200000D01*
X12744513Y23125311D01*
X12766299Y23053492D01*
X12801678Y22987304D01*
X12849289Y22929289D01*
X12907304Y22881678D01*
X12973492Y22846299D01*
X13045311Y22824513D01*
X13120000Y22817157D01*
X13208000Y22817157D01*
X13208000Y21162000D01*
X12192000Y21162000D01*
X12192000Y24718000D01*
X12777787Y24718000D01*
X12766299Y24696508D01*
G36*
X5619289Y11329289D02*
G01*
X5677304Y11281678D01*
X5743492Y11246299D01*
X5815311Y11224513D01*
X5890000Y11217157D01*
X6590000Y11217157D01*
X6664689Y11224513D01*
X6699363Y11235031D01*
X6768197Y11166197D01*
X6787443Y11150403D01*
X6809399Y11138667D01*
X6833224Y11131440D01*
X6858000Y11129000D01*
X6878493Y11129000D01*
X6919289Y11079289D01*
X6977304Y11031678D01*
X7043492Y10996299D01*
X7115311Y10974513D01*
X7190000Y10967157D01*
X7890000Y10967157D01*
X7964689Y10974513D01*
X8036508Y10996299D01*
X8102696Y11031678D01*
X8160711Y11079289D01*
X8208322Y11137304D01*
X8230613Y11179007D01*
X8307606Y11256000D01*
X10234394Y11256000D01*
X10414000Y11076394D01*
X10414000Y10165606D01*
X10234394Y9986000D01*
X8561606Y9986000D01*
X8476712Y10070894D01*
X8407843Y10199738D01*
X8291501Y10341501D01*
X8149738Y10457843D01*
X8020894Y10526712D01*
X7836803Y10710803D01*
X7817557Y10726597D01*
X7795601Y10738333D01*
X7771776Y10745560D01*
X7747000Y10748000D01*
X6985000Y10748000D01*
X6960224Y10745560D01*
X6936399Y10738333D01*
X6914443Y10726597D01*
X6895197Y10710803D01*
X6795394Y10611000D01*
X6584269Y10611000D01*
X6447492Y10597529D01*
X6271998Y10544293D01*
X6110262Y10457843D01*
X5968499Y10341501D01*
X5852157Y10199738D01*
X5824627Y10148233D01*
X5789394Y10113000D01*
X5132606Y10113000D01*
X4953000Y10292606D01*
X4953000Y11203394D01*
X5132606Y11383000D01*
X5575210Y11383000D01*
X5619289Y11329289D01*
X5619289Y11329289D01*
G37*
X5619289Y11329289D02*
X5677304Y11281678D01*
X5743492Y11246299D01*
X5815311Y11224513D01*
X5890000Y11217157D01*
X6590000Y11217157D01*
X6664689Y11224513D01*
X6699363Y11235031D01*
X6768197Y11166197D01*
X6787443Y11150403D01*
X6809399Y11138667D01*
X6833224Y11131440D01*
X6858000Y11129000D01*
X6878493Y11129000D01*
X6919289Y11079289D01*
X6977304Y11031678D01*
X7043492Y10996299D01*
X7115311Y10974513D01*
X7190000Y10967157D01*
X7890000Y10967157D01*
X7964689Y10974513D01*
X8036508Y10996299D01*
X8102696Y11031678D01*
X8160711Y11079289D01*
X8208322Y11137304D01*
X8230613Y11179007D01*
X8307606Y11256000D01*
X10234394Y11256000D01*
X10414000Y11076394D01*
X10414000Y10165606D01*
X10234394Y9986000D01*
X8561606Y9986000D01*
X8476712Y10070894D01*
X8407843Y10199738D01*
X8291501Y10341501D01*
X8149738Y10457843D01*
X8020894Y10526712D01*
X7836803Y10710803D01*
X7817557Y10726597D01*
X7795601Y10738333D01*
X7771776Y10745560D01*
X7747000Y10748000D01*
X6985000Y10748000D01*
X6960224Y10745560D01*
X6936399Y10738333D01*
X6914443Y10726597D01*
X6895197Y10710803D01*
X6795394Y10611000D01*
X6584269Y10611000D01*
X6447492Y10597529D01*
X6271998Y10544293D01*
X6110262Y10457843D01*
X5968499Y10341501D01*
X5852157Y10199738D01*
X5824627Y10148233D01*
X5789394Y10113000D01*
X5132606Y10113000D01*
X4953000Y10292606D01*
X4953000Y11203394D01*
X5132606Y11383000D01*
X5575210Y11383000D01*
X5619289Y11329289D01*
G36*
X10033000Y18823394D02*
G01*
X10033000Y17912606D01*
X9853394Y17733000D01*
X9144000Y17733000D01*
X9119224Y17730560D01*
X9095399Y17723333D01*
X9073443Y17711597D01*
X9054197Y17695803D01*
X8212769Y16854375D01*
X8208322Y16862696D01*
X8160711Y16920711D01*
X8102696Y16968322D01*
X8036508Y17003701D01*
X7964689Y17025487D01*
X7890000Y17032843D01*
X7190000Y17032843D01*
X7115311Y17025487D01*
X7043492Y17003701D01*
X6977304Y16968322D01*
X6919289Y16920711D01*
X6871678Y16862696D01*
X6836299Y16796508D01*
X6815136Y16726742D01*
X6805394Y16717000D01*
X6804307Y16717000D01*
X6802696Y16718322D01*
X6736508Y16753701D01*
X6664689Y16775487D01*
X6590000Y16782843D01*
X5890000Y16782843D01*
X5815311Y16775487D01*
X5743492Y16753701D01*
X5677304Y16718322D01*
X5659271Y16703523D01*
X5644443Y16695597D01*
X5625197Y16679803D01*
X5408394Y16463000D01*
X5132606Y16463000D01*
X4953000Y16642606D01*
X4953000Y17553394D01*
X5132606Y17733000D01*
X5907358Y17733000D01*
X5968499Y17658499D01*
X6110262Y17542157D01*
X6271998Y17455707D01*
X6447492Y17402471D01*
X6584269Y17389000D01*
X7675731Y17389000D01*
X7812508Y17402471D01*
X7988002Y17455707D01*
X8149738Y17542157D01*
X8291501Y17658499D01*
X8407843Y17800262D01*
X8494293Y17961998D01*
X8547529Y18137492D01*
X8565504Y18320000D01*
X8547529Y18502508D01*
X8494293Y18678002D01*
X8448772Y18763166D01*
X8688606Y19003000D01*
X9853394Y19003000D01*
X10033000Y18823394D01*
X10033000Y18823394D01*
G37*
X10033000Y18823394D02*
X10033000Y17912606D01*
X9853394Y17733000D01*
X9144000Y17733000D01*
X9119224Y17730560D01*
X9095399Y17723333D01*
X9073443Y17711597D01*
X9054197Y17695803D01*
X8212769Y16854375D01*
X8208322Y16862696D01*
X8160711Y16920711D01*
X8102696Y16968322D01*
X8036508Y17003701D01*
X7964689Y17025487D01*
X7890000Y17032843D01*
X7190000Y17032843D01*
X7115311Y17025487D01*
X7043492Y17003701D01*
X6977304Y16968322D01*
X6919289Y16920711D01*
X6871678Y16862696D01*
X6836299Y16796508D01*
X6815136Y16726742D01*
X6805394Y16717000D01*
X6804307Y16717000D01*
X6802696Y16718322D01*
X6736508Y16753701D01*
X6664689Y16775487D01*
X6590000Y16782843D01*
X5890000Y16782843D01*
X5815311Y16775487D01*
X5743492Y16753701D01*
X5677304Y16718322D01*
X5659271Y16703523D01*
X5644443Y16695597D01*
X5625197Y16679803D01*
X5408394Y16463000D01*
X5132606Y16463000D01*
X4953000Y16642606D01*
X4953000Y17553394D01*
X5132606Y17733000D01*
X5907358Y17733000D01*
X5968499Y17658499D01*
X6110262Y17542157D01*
X6271998Y17455707D01*
X6447492Y17402471D01*
X6584269Y17389000D01*
X7675731Y17389000D01*
X7812508Y17402471D01*
X7988002Y17455707D01*
X8149738Y17542157D01*
X8291501Y17658499D01*
X8407843Y17800262D01*
X8494293Y17961998D01*
X8547529Y18137492D01*
X8565504Y18320000D01*
X8547529Y18502508D01*
X8494293Y18678002D01*
X8448772Y18763166D01*
X8688606Y19003000D01*
X9853394Y19003000D01*
X10033000Y18823394D01*
G36*
X10147316Y4029944D02*
G01*
X10020778Y3764814D01*
X9975042Y3614026D01*
X10096183Y3382000D01*
X11303000Y3382000D01*
X11303000Y3402000D01*
X11557000Y3402000D01*
X11557000Y3382000D01*
X13843000Y3382000D01*
X13843000Y3402000D01*
X14097000Y3402000D01*
X14097000Y3382000D01*
X14117000Y3382000D01*
X14117000Y3128000D01*
X14097000Y3128000D01*
X14097000Y1920536D01*
X14329027Y1800037D01*
X14605978Y1898036D01*
X14858488Y2048183D01*
X14861604Y2050988D01*
X14868624Y2037855D01*
X14910255Y1987128D01*
X14910259Y1987124D01*
X14924172Y1970171D01*
X14941125Y1956258D01*
X16389382Y508000D01*
X6378373Y508000D01*
X6734550Y975845D01*
X4000000Y3710395D01*
X1265450Y975845D01*
X1621627Y508000D01*
X508000Y508000D01*
X508000Y1644770D01*
X525285Y1611744D01*
X565450Y1551634D01*
X1085845Y1155450D01*
X3820395Y3890000D01*
X3806253Y3904142D01*
X3985858Y4083747D01*
X4000000Y4069605D01*
X4014143Y4083747D01*
X4193748Y3904142D01*
X4179605Y3890000D01*
X6914155Y1155450D01*
X7434550Y1551634D01*
X7824748Y2266612D01*
X8021658Y2895974D01*
X9975042Y2895974D01*
X10020778Y2745186D01*
X10147316Y2480056D01*
X10323146Y2244707D01*
X10541512Y2048183D01*
X10794022Y1898036D01*
X11070973Y1800037D01*
X11303000Y1920536D01*
X11303000Y3128000D01*
X11557000Y3128000D01*
X11557000Y1920536D01*
X11789027Y1800037D01*
X12065978Y1898036D01*
X12318488Y2048183D01*
X12536854Y2244707D01*
X12700000Y2463078D01*
X12863146Y2244707D01*
X13081512Y2048183D01*
X13334022Y1898036D01*
X13610973Y1800037D01*
X13843000Y1920536D01*
X13843000Y3128000D01*
X11557000Y3128000D01*
X11303000Y3128000D01*
X10096183Y3128000D01*
X9975042Y2895974D01*
X8021658Y2895974D01*
X8067964Y3043976D01*
X8154851Y3853853D01*
X8131478Y4114378D01*
X10216888Y4123067D01*
X10147316Y4029944D01*
X10147316Y4029944D01*
G37*
X10147316Y4029944D02*
X10020778Y3764814D01*
X9975042Y3614026D01*
X10096183Y3382000D01*
X11303000Y3382000D01*
X11303000Y3402000D01*
X11557000Y3402000D01*
X11557000Y3382000D01*
X13843000Y3382000D01*
X13843000Y3402000D01*
X14097000Y3402000D01*
X14097000Y3382000D01*
X14117000Y3382000D01*
X14117000Y3128000D01*
X14097000Y3128000D01*
X14097000Y1920536D01*
X14329027Y1800037D01*
X14605978Y1898036D01*
X14858488Y2048183D01*
X14861604Y2050988D01*
X14868624Y2037855D01*
X14910255Y1987128D01*
X14910259Y1987124D01*
X14924172Y1970171D01*
X14941125Y1956258D01*
X16389382Y508000D01*
X6378373Y508000D01*
X6734550Y975845D01*
X4000000Y3710395D01*
X1265450Y975845D01*
X1621627Y508000D01*
X508000Y508000D01*
X508000Y1644770D01*
X525285Y1611744D01*
X565450Y1551634D01*
X1085845Y1155450D01*
X3820395Y3890000D01*
X3806253Y3904142D01*
X3985858Y4083747D01*
X4000000Y4069605D01*
X4014143Y4083747D01*
X4193748Y3904142D01*
X4179605Y3890000D01*
X6914155Y1155450D01*
X7434550Y1551634D01*
X7824748Y2266612D01*
X8021658Y2895974D01*
X9975042Y2895974D01*
X10020778Y2745186D01*
X10147316Y2480056D01*
X10323146Y2244707D01*
X10541512Y2048183D01*
X10794022Y1898036D01*
X11070973Y1800037D01*
X11303000Y1920536D01*
X11303000Y3128000D01*
X11557000Y3128000D01*
X11557000Y1920536D01*
X11789027Y1800037D01*
X12065978Y1898036D01*
X12318488Y2048183D01*
X12536854Y2244707D01*
X12700000Y2463078D01*
X12863146Y2244707D01*
X13081512Y2048183D01*
X13334022Y1898036D01*
X13610973Y1800037D01*
X13843000Y1920536D01*
X13843000Y3128000D01*
X11557000Y3128000D01*
X11303000Y3128000D01*
X10096183Y3128000D01*
X9975042Y2895974D01*
X8021658Y2895974D01*
X8067964Y3043976D01*
X8154851Y3853853D01*
X8131478Y4114378D01*
X10216888Y4123067D01*
X10147316Y4029944D01*
G36*
X25166058Y13167724D02*
G01*
X25304733Y13110283D01*
X25451950Y13081000D01*
X25602050Y13081000D01*
X25650705Y13090678D01*
X31340258Y7401124D01*
X31354171Y7384171D01*
X31371124Y7370258D01*
X31371127Y7370255D01*
X31421854Y7328624D01*
X31459584Y7308457D01*
X31499074Y7287349D01*
X31582863Y7261932D01*
X31648170Y7255500D01*
X31648180Y7255500D01*
X31670000Y7253351D01*
X31691820Y7255500D01*
X31868447Y7255500D01*
X31877202Y7226637D01*
X31991509Y7012784D01*
X32145340Y6825340D01*
X32332784Y6671509D01*
X32543305Y6558983D01*
X32388748Y6504157D01*
X32138645Y6355178D01*
X31922412Y6160269D01*
X31748359Y5926920D01*
X31623175Y5664099D01*
X31578524Y5516890D01*
X31699845Y5287000D01*
X32893000Y5287000D01*
X32893000Y5307000D01*
X33147000Y5307000D01*
X33147000Y5287000D01*
X33167000Y5287000D01*
X33167000Y5033000D01*
X33147000Y5033000D01*
X33147000Y3839186D01*
X33376891Y3718519D01*
X33651252Y3815843D01*
X33901355Y3964822D01*
X33992001Y4046529D01*
X33992001Y508000D01*
X27425617Y508000D01*
X28378118Y1460500D01*
X28421407Y1460500D01*
X28436632Y1423744D01*
X28547821Y1257338D01*
X28689338Y1115821D01*
X28855744Y1004632D01*
X29040644Y928044D01*
X29236933Y889000D01*
X29437067Y889000D01*
X29633356Y928044D01*
X29818256Y1004632D01*
X29984662Y1115821D01*
X30126179Y1257338D01*
X30237368Y1423744D01*
X30313956Y1608644D01*
X30353000Y1804933D01*
X30353000Y2005067D01*
X30313956Y2201356D01*
X30237368Y2386256D01*
X30126179Y2552662D01*
X29984662Y2694179D01*
X29818256Y2805368D01*
X29633356Y2881956D01*
X29437067Y2921000D01*
X29236933Y2921000D01*
X29040644Y2881956D01*
X28855744Y2805368D01*
X28689338Y2694179D01*
X28549116Y2553957D01*
X28511500Y2599793D01*
X28511500Y4803110D01*
X31578524Y4803110D01*
X31623175Y4655901D01*
X31748359Y4393080D01*
X31922412Y4159731D01*
X32138645Y3964822D01*
X32388748Y3815843D01*
X32663109Y3718519D01*
X32893000Y3839186D01*
X32893000Y5033000D01*
X31699845Y5033000D01*
X31578524Y4803110D01*
X28511500Y4803110D01*
X28511500Y9376180D01*
X28513649Y9398000D01*
X28511500Y9419820D01*
X28511500Y9419830D01*
X28505068Y9485137D01*
X28479651Y9568926D01*
X28465750Y9594932D01*
X28438376Y9646146D01*
X28396745Y9696873D01*
X28396742Y9696876D01*
X28382829Y9713829D01*
X28365876Y9727742D01*
X25776747Y12316870D01*
X25762829Y12333829D01*
X25695145Y12389376D01*
X25617926Y12430651D01*
X25534137Y12456068D01*
X25468830Y12462500D01*
X25468820Y12462500D01*
X25447000Y12464649D01*
X25425180Y12462500D01*
X25025577Y12462500D01*
X25062429Y12507405D01*
X25109601Y12595657D01*
X25138649Y12691415D01*
X25146000Y12766053D01*
X25146000Y12766055D01*
X25148457Y12790999D01*
X25146000Y12815943D01*
X25146000Y13181126D01*
X25166058Y13167724D01*
X25166058Y13167724D01*
G37*
X25166058Y13167724D02*
X25304733Y13110283D01*
X25451950Y13081000D01*
X25602050Y13081000D01*
X25650705Y13090678D01*
X31340258Y7401124D01*
X31354171Y7384171D01*
X31371124Y7370258D01*
X31371127Y7370255D01*
X31421854Y7328624D01*
X31459584Y7308457D01*
X31499074Y7287349D01*
X31582863Y7261932D01*
X31648170Y7255500D01*
X31648180Y7255500D01*
X31670000Y7253351D01*
X31691820Y7255500D01*
X31868447Y7255500D01*
X31877202Y7226637D01*
X31991509Y7012784D01*
X32145340Y6825340D01*
X32332784Y6671509D01*
X32543305Y6558983D01*
X32388748Y6504157D01*
X32138645Y6355178D01*
X31922412Y6160269D01*
X31748359Y5926920D01*
X31623175Y5664099D01*
X31578524Y5516890D01*
X31699845Y5287000D01*
X32893000Y5287000D01*
X32893000Y5307000D01*
X33147000Y5307000D01*
X33147000Y5287000D01*
X33167000Y5287000D01*
X33167000Y5033000D01*
X33147000Y5033000D01*
X33147000Y3839186D01*
X33376891Y3718519D01*
X33651252Y3815843D01*
X33901355Y3964822D01*
X33992001Y4046529D01*
X33992001Y508000D01*
X27425617Y508000D01*
X28378118Y1460500D01*
X28421407Y1460500D01*
X28436632Y1423744D01*
X28547821Y1257338D01*
X28689338Y1115821D01*
X28855744Y1004632D01*
X29040644Y928044D01*
X29236933Y889000D01*
X29437067Y889000D01*
X29633356Y928044D01*
X29818256Y1004632D01*
X29984662Y1115821D01*
X30126179Y1257338D01*
X30237368Y1423744D01*
X30313956Y1608644D01*
X30353000Y1804933D01*
X30353000Y2005067D01*
X30313956Y2201356D01*
X30237368Y2386256D01*
X30126179Y2552662D01*
X29984662Y2694179D01*
X29818256Y2805368D01*
X29633356Y2881956D01*
X29437067Y2921000D01*
X29236933Y2921000D01*
X29040644Y2881956D01*
X28855744Y2805368D01*
X28689338Y2694179D01*
X28549116Y2553957D01*
X28511500Y2599793D01*
X28511500Y4803110D01*
X31578524Y4803110D01*
X31623175Y4655901D01*
X31748359Y4393080D01*
X31922412Y4159731D01*
X32138645Y3964822D01*
X32388748Y3815843D01*
X32663109Y3718519D01*
X32893000Y3839186D01*
X32893000Y5033000D01*
X31699845Y5033000D01*
X31578524Y4803110D01*
X28511500Y4803110D01*
X28511500Y9376180D01*
X28513649Y9398000D01*
X28511500Y9419820D01*
X28511500Y9419830D01*
X28505068Y9485137D01*
X28479651Y9568926D01*
X28465750Y9594932D01*
X28438376Y9646146D01*
X28396745Y9696873D01*
X28396742Y9696876D01*
X28382829Y9713829D01*
X28365876Y9727742D01*
X25776747Y12316870D01*
X25762829Y12333829D01*
X25695145Y12389376D01*
X25617926Y12430651D01*
X25534137Y12456068D01*
X25468830Y12462500D01*
X25468820Y12462500D01*
X25447000Y12464649D01*
X25425180Y12462500D01*
X25025577Y12462500D01*
X25062429Y12507405D01*
X25109601Y12595657D01*
X25138649Y12691415D01*
X25146000Y12766053D01*
X25146000Y12766055D01*
X25148457Y12790999D01*
X25146000Y12815943D01*
X25146000Y13181126D01*
X25166058Y13167724D01*
G36*
X22276258Y1225124D02*
G01*
X22290171Y1208171D01*
X22292207Y1206500D01*
X16948118Y1206500D01*
X16284984Y1869633D01*
X16383000Y1920536D01*
X16383000Y3128000D01*
X16637000Y3128000D01*
X16637000Y1920536D01*
X16869027Y1800037D01*
X17145978Y1898036D01*
X17398488Y2048183D01*
X17616854Y2244707D01*
X17792684Y2480056D01*
X17919222Y2745186D01*
X17964958Y2895974D01*
X17843817Y3128000D01*
X16637000Y3128000D01*
X16383000Y3128000D01*
X16363000Y3128000D01*
X16363000Y3382000D01*
X16383000Y3382000D01*
X16383000Y3402000D01*
X16637000Y3402000D01*
X16637000Y3382000D01*
X17843817Y3382000D01*
X17964958Y3614026D01*
X17919222Y3764814D01*
X17792684Y4029944D01*
X17719800Y4127500D01*
X19373883Y4127500D01*
X22276258Y1225124D01*
X22276258Y1225124D01*
G37*
X22276258Y1225124D02*
X22290171Y1208171D01*
X22292207Y1206500D01*
X16948118Y1206500D01*
X16284984Y1869633D01*
X16383000Y1920536D01*
X16383000Y3128000D01*
X16637000Y3128000D01*
X16637000Y1920536D01*
X16869027Y1800037D01*
X17145978Y1898036D01*
X17398488Y2048183D01*
X17616854Y2244707D01*
X17792684Y2480056D01*
X17919222Y2745186D01*
X17964958Y2895974D01*
X17843817Y3128000D01*
X16637000Y3128000D01*
X16383000Y3128000D01*
X16363000Y3128000D01*
X16363000Y3382000D01*
X16383000Y3382000D01*
X16383000Y3402000D01*
X16637000Y3402000D01*
X16637000Y3382000D01*
X17843817Y3382000D01*
X17964958Y3614026D01*
X17919222Y3764814D01*
X17792684Y4029944D01*
X17719800Y4127500D01*
X19373883Y4127500D01*
X22276258Y1225124D01*
G36*
X27622501Y9213881D02*
G01*
X27622500Y4348338D01*
X27597185Y4379185D01*
X27500494Y4458537D01*
X27390180Y4517502D01*
X27270482Y4553812D01*
X27146000Y4566072D01*
X26931750Y4563000D01*
X26773000Y4404250D01*
X26773000Y3255000D01*
X26793000Y3255000D01*
X26793000Y3001000D01*
X26773000Y3001000D01*
X26773000Y1851750D01*
X26931750Y1693000D01*
X27146000Y1689928D01*
X27270482Y1702188D01*
X27390180Y1738498D01*
X27408871Y1748489D01*
X26866883Y1206500D01*
X24824793Y1206500D01*
X24826829Y1208171D01*
X24840746Y1225129D01*
X25190877Y1575259D01*
X25207829Y1589171D01*
X25221746Y1606128D01*
X25263375Y1656854D01*
X25263376Y1656855D01*
X25304651Y1734074D01*
X25330068Y1817863D01*
X25336500Y1883170D01*
X25336500Y1883179D01*
X25338649Y1904999D01*
X25336500Y1926819D01*
X25336500Y2328000D01*
X25507928Y2328000D01*
X25520188Y2203518D01*
X25556498Y2083820D01*
X25615463Y1973506D01*
X25694815Y1876815D01*
X25791506Y1797463D01*
X25901820Y1738498D01*
X26021518Y1702188D01*
X26146000Y1689928D01*
X26360250Y1693000D01*
X26519000Y1851750D01*
X26519000Y3001000D01*
X25669750Y3001000D01*
X25511000Y2842250D01*
X25507928Y2328000D01*
X25336500Y2328000D01*
X25336500Y3928000D01*
X25507928Y3928000D01*
X25511000Y3413750D01*
X25669750Y3255000D01*
X26519000Y3255000D01*
X26519000Y4404250D01*
X26360250Y4563000D01*
X26146000Y4566072D01*
X26021518Y4553812D01*
X25901820Y4517502D01*
X25791506Y4458537D01*
X25694815Y4379185D01*
X25615463Y4282494D01*
X25556498Y4172180D01*
X25520188Y4052482D01*
X25507928Y3928000D01*
X25336500Y3928000D01*
X25336500Y4296181D01*
X25338649Y4318001D01*
X25336500Y4339821D01*
X25336500Y4339830D01*
X25330068Y4405137D01*
X25304651Y4488926D01*
X25263376Y4566145D01*
X25225856Y4611863D01*
X25221744Y4616874D01*
X25221742Y4616876D01*
X25207829Y4633829D01*
X25190876Y4647742D01*
X25077934Y4760684D01*
X25134000Y4816750D01*
X25134000Y5541000D01*
X25388000Y5541000D01*
X25388000Y4816750D01*
X25546750Y4658000D01*
X25661000Y4654928D01*
X25785482Y4667188D01*
X25905180Y4703498D01*
X26015494Y4762463D01*
X26112185Y4841815D01*
X26191537Y4938506D01*
X26250502Y5048820D01*
X26286812Y5168518D01*
X26299072Y5293000D01*
X26296000Y5382250D01*
X26137250Y5541000D01*
X25388000Y5541000D01*
X25134000Y5541000D01*
X25114000Y5541000D01*
X25114000Y5795000D01*
X25134000Y5795000D01*
X25134000Y6519250D01*
X25388000Y6519250D01*
X25388000Y5795000D01*
X26137250Y5795000D01*
X26296000Y5953750D01*
X26299072Y6043000D01*
X26286812Y6167482D01*
X26250502Y6287180D01*
X26191537Y6397494D01*
X26112185Y6494185D01*
X26015494Y6573537D01*
X25905180Y6632502D01*
X25785482Y6668812D01*
X25661000Y6681072D01*
X25546750Y6678000D01*
X25388000Y6519250D01*
X25134000Y6519250D01*
X24975250Y6678000D01*
X24955500Y6678531D01*
X24955500Y6934181D01*
X24957649Y6956001D01*
X24955500Y6977821D01*
X24955500Y6977830D01*
X24949068Y7043137D01*
X24923651Y7126926D01*
X24886930Y7195625D01*
X24975250Y7198000D01*
X25134000Y7356750D01*
X25134000Y8081000D01*
X25388000Y8081000D01*
X25388000Y7356750D01*
X25546750Y7198000D01*
X25661000Y7194928D01*
X25785482Y7207188D01*
X25905180Y7243498D01*
X26015494Y7302463D01*
X26112185Y7381815D01*
X26191537Y7478506D01*
X26250502Y7588820D01*
X26286812Y7708518D01*
X26299072Y7833000D01*
X26296000Y7922250D01*
X26137250Y8081000D01*
X25388000Y8081000D01*
X25134000Y8081000D01*
X25114000Y8081000D01*
X25114000Y8335000D01*
X25134000Y8335000D01*
X25134000Y9059250D01*
X25388000Y9059250D01*
X25388000Y8335000D01*
X26137250Y8335000D01*
X26296000Y8493750D01*
X26299072Y8583000D01*
X26286812Y8707482D01*
X26250502Y8827180D01*
X26191537Y8937494D01*
X26112185Y9034185D01*
X26015494Y9113537D01*
X25905180Y9172502D01*
X25785482Y9208812D01*
X25661000Y9221072D01*
X25546750Y9218000D01*
X25388000Y9059250D01*
X25134000Y9059250D01*
X24975250Y9218000D01*
X24861000Y9221072D01*
X24736518Y9208812D01*
X24616820Y9172502D01*
X24506506Y9113537D01*
X24409815Y9034185D01*
X24330463Y8937494D01*
X24325032Y8927334D01*
X24307508Y8936701D01*
X24235689Y8958487D01*
X24205500Y8961460D01*
X24205500Y9237181D01*
X24207649Y9259001D01*
X24205500Y9280821D01*
X24205500Y9280830D01*
X24199068Y9346137D01*
X24173651Y9429926D01*
X24132376Y9507145D01*
X24132375Y9507147D01*
X24090744Y9557874D01*
X24090742Y9557876D01*
X24076829Y9574829D01*
X24059877Y9588741D01*
X24026197Y9622421D01*
X24058926Y9632349D01*
X24136145Y9673624D01*
X24203829Y9729171D01*
X24217747Y9746130D01*
X24936872Y10465255D01*
X24953829Y10479171D01*
X25009376Y10546855D01*
X25050651Y10624074D01*
X25076068Y10707863D01*
X25082500Y10773170D01*
X25082500Y10773179D01*
X25084649Y10794999D01*
X25082500Y10816819D01*
X25082500Y11281180D01*
X25084649Y11303000D01*
X25082500Y11324820D01*
X25082500Y11324830D01*
X25076068Y11390137D01*
X25050651Y11473926D01*
X25009376Y11551145D01*
X24991030Y11573500D01*
X25262883Y11573500D01*
X27622501Y9213881D01*
X27622501Y9213881D01*
G37*
X27622501Y9213881D02*
X27622500Y4348338D01*
X27597185Y4379185D01*
X27500494Y4458537D01*
X27390180Y4517502D01*
X27270482Y4553812D01*
X27146000Y4566072D01*
X26931750Y4563000D01*
X26773000Y4404250D01*
X26773000Y3255000D01*
X26793000Y3255000D01*
X26793000Y3001000D01*
X26773000Y3001000D01*
X26773000Y1851750D01*
X26931750Y1693000D01*
X27146000Y1689928D01*
X27270482Y1702188D01*
X27390180Y1738498D01*
X27408871Y1748489D01*
X26866883Y1206500D01*
X24824793Y1206500D01*
X24826829Y1208171D01*
X24840746Y1225129D01*
X25190877Y1575259D01*
X25207829Y1589171D01*
X25221746Y1606128D01*
X25263375Y1656854D01*
X25263376Y1656855D01*
X25304651Y1734074D01*
X25330068Y1817863D01*
X25336500Y1883170D01*
X25336500Y1883179D01*
X25338649Y1904999D01*
X25336500Y1926819D01*
X25336500Y2328000D01*
X25507928Y2328000D01*
X25520188Y2203518D01*
X25556498Y2083820D01*
X25615463Y1973506D01*
X25694815Y1876815D01*
X25791506Y1797463D01*
X25901820Y1738498D01*
X26021518Y1702188D01*
X26146000Y1689928D01*
X26360250Y1693000D01*
X26519000Y1851750D01*
X26519000Y3001000D01*
X25669750Y3001000D01*
X25511000Y2842250D01*
X25507928Y2328000D01*
X25336500Y2328000D01*
X25336500Y3928000D01*
X25507928Y3928000D01*
X25511000Y3413750D01*
X25669750Y3255000D01*
X26519000Y3255000D01*
X26519000Y4404250D01*
X26360250Y4563000D01*
X26146000Y4566072D01*
X26021518Y4553812D01*
X25901820Y4517502D01*
X25791506Y4458537D01*
X25694815Y4379185D01*
X25615463Y4282494D01*
X25556498Y4172180D01*
X25520188Y4052482D01*
X25507928Y3928000D01*
X25336500Y3928000D01*
X25336500Y4296181D01*
X25338649Y4318001D01*
X25336500Y4339821D01*
X25336500Y4339830D01*
X25330068Y4405137D01*
X25304651Y4488926D01*
X25263376Y4566145D01*
X25225856Y4611863D01*
X25221744Y4616874D01*
X25221742Y4616876D01*
X25207829Y4633829D01*
X25190876Y4647742D01*
X25077934Y4760684D01*
X25134000Y4816750D01*
X25134000Y5541000D01*
X25388000Y5541000D01*
X25388000Y4816750D01*
X25546750Y4658000D01*
X25661000Y4654928D01*
X25785482Y4667188D01*
X25905180Y4703498D01*
X26015494Y4762463D01*
X26112185Y4841815D01*
X26191537Y4938506D01*
X26250502Y5048820D01*
X26286812Y5168518D01*
X26299072Y5293000D01*
X26296000Y5382250D01*
X26137250Y5541000D01*
X25388000Y5541000D01*
X25134000Y5541000D01*
X25114000Y5541000D01*
X25114000Y5795000D01*
X25134000Y5795000D01*
X25134000Y6519250D01*
X25388000Y6519250D01*
X25388000Y5795000D01*
X26137250Y5795000D01*
X26296000Y5953750D01*
X26299072Y6043000D01*
X26286812Y6167482D01*
X26250502Y6287180D01*
X26191537Y6397494D01*
X26112185Y6494185D01*
X26015494Y6573537D01*
X25905180Y6632502D01*
X25785482Y6668812D01*
X25661000Y6681072D01*
X25546750Y6678000D01*
X25388000Y6519250D01*
X25134000Y6519250D01*
X24975250Y6678000D01*
X24955500Y6678531D01*
X24955500Y6934181D01*
X24957649Y6956001D01*
X24955500Y6977821D01*
X24955500Y6977830D01*
X24949068Y7043137D01*
X24923651Y7126926D01*
X24886930Y7195625D01*
X24975250Y7198000D01*
X25134000Y7356750D01*
X25134000Y8081000D01*
X25388000Y8081000D01*
X25388000Y7356750D01*
X25546750Y7198000D01*
X25661000Y7194928D01*
X25785482Y7207188D01*
X25905180Y7243498D01*
X26015494Y7302463D01*
X26112185Y7381815D01*
X26191537Y7478506D01*
X26250502Y7588820D01*
X26286812Y7708518D01*
X26299072Y7833000D01*
X26296000Y7922250D01*
X26137250Y8081000D01*
X25388000Y8081000D01*
X25134000Y8081000D01*
X25114000Y8081000D01*
X25114000Y8335000D01*
X25134000Y8335000D01*
X25134000Y9059250D01*
X25388000Y9059250D01*
X25388000Y8335000D01*
X26137250Y8335000D01*
X26296000Y8493750D01*
X26299072Y8583000D01*
X26286812Y8707482D01*
X26250502Y8827180D01*
X26191537Y8937494D01*
X26112185Y9034185D01*
X26015494Y9113537D01*
X25905180Y9172502D01*
X25785482Y9208812D01*
X25661000Y9221072D01*
X25546750Y9218000D01*
X25388000Y9059250D01*
X25134000Y9059250D01*
X24975250Y9218000D01*
X24861000Y9221072D01*
X24736518Y9208812D01*
X24616820Y9172502D01*
X24506506Y9113537D01*
X24409815Y9034185D01*
X24330463Y8937494D01*
X24325032Y8927334D01*
X24307508Y8936701D01*
X24235689Y8958487D01*
X24205500Y8961460D01*
X24205500Y9237181D01*
X24207649Y9259001D01*
X24205500Y9280821D01*
X24205500Y9280830D01*
X24199068Y9346137D01*
X24173651Y9429926D01*
X24132376Y9507145D01*
X24132375Y9507147D01*
X24090744Y9557874D01*
X24090742Y9557876D01*
X24076829Y9574829D01*
X24059877Y9588741D01*
X24026197Y9622421D01*
X24058926Y9632349D01*
X24136145Y9673624D01*
X24203829Y9729171D01*
X24217747Y9746130D01*
X24936872Y10465255D01*
X24953829Y10479171D01*
X25009376Y10546855D01*
X25050651Y10624074D01*
X25076068Y10707863D01*
X25082500Y10773170D01*
X25082500Y10773179D01*
X25084649Y10794999D01*
X25082500Y10816819D01*
X25082500Y11281180D01*
X25084649Y11303000D01*
X25082500Y11324820D01*
X25082500Y11324830D01*
X25076068Y11390137D01*
X25050651Y11473926D01*
X25009376Y11551145D01*
X24991030Y11573500D01*
X25262883Y11573500D01*
X27622501Y9213881D01*
G36*
X17933609Y11282773D02*
G01*
X17836922Y11267310D01*
X17602347Y11180369D01*
X17517369Y11134946D01*
X17465805Y10907800D01*
X18161000Y10212605D01*
X18175143Y10226747D01*
X18354748Y10047142D01*
X18340605Y10033000D01*
X19035800Y9337805D01*
X19262946Y9389369D01*
X19280590Y9427793D01*
X19493021Y9215362D01*
X19426518Y9208812D01*
X19306820Y9172502D01*
X19196506Y9113537D01*
X19099815Y9034185D01*
X19020463Y8937494D01*
X18961498Y8827180D01*
X18925188Y8707482D01*
X18912928Y8583000D01*
X18916000Y8493750D01*
X19074750Y8335000D01*
X19824000Y8335000D01*
X19824000Y8355000D01*
X20078000Y8355000D01*
X20078000Y8335000D01*
X20098000Y8335000D01*
X20098000Y8081000D01*
X20078000Y8081000D01*
X20078000Y7356750D01*
X20236750Y7198000D01*
X20351000Y7194928D01*
X20475482Y7207188D01*
X20595180Y7243498D01*
X20705494Y7302463D01*
X20802185Y7381815D01*
X20881537Y7478506D01*
X20886968Y7488666D01*
X20904492Y7479299D01*
X20976311Y7457513D01*
X21051000Y7450157D01*
X21851000Y7450157D01*
X21925689Y7457513D01*
X21997508Y7479299D01*
X22063696Y7514678D01*
X22098001Y7542831D01*
X22098001Y6822954D01*
X22095543Y6798000D01*
X22105352Y6698416D01*
X22134400Y6602657D01*
X22181571Y6514405D01*
X22209139Y6480814D01*
X22245053Y6437052D01*
X22264430Y6421150D01*
X22450473Y6235106D01*
X22267356Y6310956D01*
X22071067Y6350000D01*
X21870933Y6350000D01*
X21674644Y6310956D01*
X21489744Y6234368D01*
X21323338Y6123179D01*
X21181821Y5981662D01*
X21070632Y5815256D01*
X20994044Y5630356D01*
X20955000Y5434067D01*
X20955000Y5233933D01*
X20972508Y5145912D01*
X19981855Y6136565D01*
X19965948Y6155948D01*
X19888595Y6219429D01*
X19800343Y6266601D01*
X19704585Y6295649D01*
X19629947Y6303000D01*
X19629944Y6303000D01*
X19605000Y6305457D01*
X19580056Y6303000D01*
X17649705Y6303000D01*
X17549854Y6489808D01*
X17394323Y6679323D01*
X17204808Y6834854D01*
X16988592Y6950424D01*
X16753984Y7021592D01*
X16571143Y7039600D01*
X16448857Y7039600D01*
X16266016Y7021592D01*
X16031408Y6950424D01*
X15815192Y6834854D01*
X15684500Y6727598D01*
X15684500Y6800883D01*
X15919876Y7036258D01*
X15936829Y7050171D01*
X15954856Y7072136D01*
X15992375Y7117854D01*
X15992376Y7117855D01*
X16033651Y7195074D01*
X16059068Y7278863D01*
X16065500Y7344170D01*
X16065500Y7344179D01*
X16067649Y7365999D01*
X16065500Y7387819D01*
X16065500Y7833000D01*
X18912928Y7833000D01*
X18925188Y7708518D01*
X18961498Y7588820D01*
X19020463Y7478506D01*
X19099815Y7381815D01*
X19196506Y7302463D01*
X19306820Y7243498D01*
X19426518Y7207188D01*
X19551000Y7194928D01*
X19665250Y7198000D01*
X19824000Y7356750D01*
X19824000Y8081000D01*
X19074750Y8081000D01*
X18916000Y7922250D01*
X18912928Y7833000D01*
X16065500Y7833000D01*
X16065500Y9158200D01*
X17465805Y9158200D01*
X17517369Y8931054D01*
X17744716Y8826661D01*
X17988059Y8768627D01*
X18238049Y8759182D01*
X18485078Y8798690D01*
X18719653Y8885631D01*
X18804631Y8931054D01*
X18856195Y9158200D01*
X18161000Y9853395D01*
X17465805Y9158200D01*
X16065500Y9158200D01*
X16065500Y9955951D01*
X16887182Y9955951D01*
X16926690Y9708922D01*
X17013631Y9474347D01*
X17059054Y9389369D01*
X17286200Y9337805D01*
X17981395Y10033000D01*
X17286200Y10728195D01*
X17059054Y10676631D01*
X16954661Y10449284D01*
X16896627Y10205941D01*
X16887182Y9955951D01*
X16065500Y9955951D01*
X16065500Y13150883D01*
X17933609Y11282773D01*
X17933609Y11282773D01*
G37*
X17933609Y11282773D02*
X17836922Y11267310D01*
X17602347Y11180369D01*
X17517369Y11134946D01*
X17465805Y10907800D01*
X18161000Y10212605D01*
X18175143Y10226747D01*
X18354748Y10047142D01*
X18340605Y10033000D01*
X19035800Y9337805D01*
X19262946Y9389369D01*
X19280590Y9427793D01*
X19493021Y9215362D01*
X19426518Y9208812D01*
X19306820Y9172502D01*
X19196506Y9113537D01*
X19099815Y9034185D01*
X19020463Y8937494D01*
X18961498Y8827180D01*
X18925188Y8707482D01*
X18912928Y8583000D01*
X18916000Y8493750D01*
X19074750Y8335000D01*
X19824000Y8335000D01*
X19824000Y8355000D01*
X20078000Y8355000D01*
X20078000Y8335000D01*
X20098000Y8335000D01*
X20098000Y8081000D01*
X20078000Y8081000D01*
X20078000Y7356750D01*
X20236750Y7198000D01*
X20351000Y7194928D01*
X20475482Y7207188D01*
X20595180Y7243498D01*
X20705494Y7302463D01*
X20802185Y7381815D01*
X20881537Y7478506D01*
X20886968Y7488666D01*
X20904492Y7479299D01*
X20976311Y7457513D01*
X21051000Y7450157D01*
X21851000Y7450157D01*
X21925689Y7457513D01*
X21997508Y7479299D01*
X22063696Y7514678D01*
X22098001Y7542831D01*
X22098001Y6822954D01*
X22095543Y6798000D01*
X22105352Y6698416D01*
X22134400Y6602657D01*
X22181571Y6514405D01*
X22209139Y6480814D01*
X22245053Y6437052D01*
X22264430Y6421150D01*
X22450473Y6235106D01*
X22267356Y6310956D01*
X22071067Y6350000D01*
X21870933Y6350000D01*
X21674644Y6310956D01*
X21489744Y6234368D01*
X21323338Y6123179D01*
X21181821Y5981662D01*
X21070632Y5815256D01*
X20994044Y5630356D01*
X20955000Y5434067D01*
X20955000Y5233933D01*
X20972508Y5145912D01*
X19981855Y6136565D01*
X19965948Y6155948D01*
X19888595Y6219429D01*
X19800343Y6266601D01*
X19704585Y6295649D01*
X19629947Y6303000D01*
X19629944Y6303000D01*
X19605000Y6305457D01*
X19580056Y6303000D01*
X17649705Y6303000D01*
X17549854Y6489808D01*
X17394323Y6679323D01*
X17204808Y6834854D01*
X16988592Y6950424D01*
X16753984Y7021592D01*
X16571143Y7039600D01*
X16448857Y7039600D01*
X16266016Y7021592D01*
X16031408Y6950424D01*
X15815192Y6834854D01*
X15684500Y6727598D01*
X15684500Y6800883D01*
X15919876Y7036258D01*
X15936829Y7050171D01*
X15954856Y7072136D01*
X15992375Y7117854D01*
X15992376Y7117855D01*
X16033651Y7195074D01*
X16059068Y7278863D01*
X16065500Y7344170D01*
X16065500Y7344179D01*
X16067649Y7365999D01*
X16065500Y7387819D01*
X16065500Y7833000D01*
X18912928Y7833000D01*
X18925188Y7708518D01*
X18961498Y7588820D01*
X19020463Y7478506D01*
X19099815Y7381815D01*
X19196506Y7302463D01*
X19306820Y7243498D01*
X19426518Y7207188D01*
X19551000Y7194928D01*
X19665250Y7198000D01*
X19824000Y7356750D01*
X19824000Y8081000D01*
X19074750Y8081000D01*
X18916000Y7922250D01*
X18912928Y7833000D01*
X16065500Y7833000D01*
X16065500Y9158200D01*
X17465805Y9158200D01*
X17517369Y8931054D01*
X17744716Y8826661D01*
X17988059Y8768627D01*
X18238049Y8759182D01*
X18485078Y8798690D01*
X18719653Y8885631D01*
X18804631Y8931054D01*
X18856195Y9158200D01*
X18161000Y9853395D01*
X17465805Y9158200D01*
X16065500Y9158200D01*
X16065500Y9955951D01*
X16887182Y9955951D01*
X16926690Y9708922D01*
X17013631Y9474347D01*
X17059054Y9389369D01*
X17286200Y9337805D01*
X17981395Y10033000D01*
X17286200Y10728195D01*
X17059054Y10676631D01*
X16954661Y10449284D01*
X16896627Y10205941D01*
X16887182Y9955951D01*
X16065500Y9955951D01*
X16065500Y13150883D01*
X17933609Y11282773D01*
G36*
X14886728Y21988255D02*
G01*
X14909053Y21961052D01*
X14928431Y21945149D01*
X15117141Y21756440D01*
X15133052Y21737052D01*
X15210405Y21673571D01*
X15298657Y21626399D01*
X15394415Y21597351D01*
X15469053Y21590000D01*
X15469056Y21590000D01*
X15494000Y21587543D01*
X15494001Y21587543D01*
X15494001Y21583499D01*
X15354338Y21490179D01*
X15212821Y21348662D01*
X15101632Y21182256D01*
X15025044Y20997356D01*
X14986000Y20801067D01*
X14986000Y20600933D01*
X15025044Y20404644D01*
X15101632Y20219744D01*
X15212821Y20053338D01*
X15354338Y19911821D01*
X15520744Y19800632D01*
X15705644Y19724044D01*
X15901933Y19685000D01*
X16102067Y19685000D01*
X16298356Y19724044D01*
X16483256Y19800632D01*
X16649662Y19911821D01*
X16791179Y20053338D01*
X16902368Y20219744D01*
X16978956Y20404644D01*
X17018000Y20600933D01*
X17018000Y20801067D01*
X16978956Y20997356D01*
X16902368Y21182256D01*
X16791179Y21348662D01*
X16649662Y21490179D01*
X16510000Y21583498D01*
X16510000Y21590000D01*
X18421383Y21590000D01*
X17862125Y21030742D01*
X17845172Y21016829D01*
X17831259Y20999876D01*
X17831255Y20999872D01*
X17789624Y20949145D01*
X17748349Y20871925D01*
X17722933Y20788137D01*
X17714351Y20701000D01*
X17716501Y20679170D01*
X17716500Y17928820D01*
X17714351Y17907000D01*
X17716500Y17885180D01*
X17716500Y17885171D01*
X17722932Y17819864D01*
X17738866Y17767338D01*
X17748349Y17736075D01*
X17789624Y17658855D01*
X17827185Y17613087D01*
X17845171Y17591171D01*
X17862129Y17577253D01*
X18859501Y16579881D01*
X18859500Y15851341D01*
X18808662Y15902179D01*
X18642256Y16013368D01*
X18457356Y16089956D01*
X18261067Y16129000D01*
X18060933Y16129000D01*
X17864644Y16089956D01*
X17679744Y16013368D01*
X17513338Y15902179D01*
X17371821Y15760662D01*
X17260632Y15594256D01*
X17184044Y15409356D01*
X17145000Y15213067D01*
X17145000Y15012933D01*
X17184044Y14816644D01*
X17260632Y14631744D01*
X17371821Y14465338D01*
X17513338Y14323821D01*
X17679744Y14212632D01*
X17864644Y14136044D01*
X18060933Y14097000D01*
X18261067Y14097000D01*
X18457356Y14136044D01*
X18642256Y14212632D01*
X18808662Y14323821D01*
X18950179Y14465338D01*
X19048659Y14612724D01*
X19694678Y13966704D01*
X19685000Y13918050D01*
X19685000Y13767950D01*
X19714283Y13620733D01*
X19771724Y13482058D01*
X19855116Y13357253D01*
X19961253Y13251116D01*
X20086058Y13167724D01*
X20224733Y13110283D01*
X20371950Y13081000D01*
X20522050Y13081000D01*
X20638729Y13104209D01*
X20579904Y13036232D01*
X20518078Y12927496D01*
X20478654Y12808787D01*
X20466000Y12699750D01*
X20602921Y12562829D01*
X20579904Y12536232D01*
X20518078Y12427496D01*
X20498602Y12368852D01*
X20466000Y12336250D01*
X20473921Y12268000D01*
X20466000Y12199750D01*
X20498602Y12167148D01*
X20518078Y12108504D01*
X20579904Y11999768D01*
X20602921Y11973171D01*
X20466000Y11836250D01*
X20478654Y11727213D01*
X20497587Y11670204D01*
X20402130Y11574747D01*
X20385171Y11560829D01*
X20371255Y11543872D01*
X20329624Y11493145D01*
X20316444Y11468487D01*
X20288349Y11415925D01*
X20262932Y11332136D01*
X20256500Y11266829D01*
X20256500Y11266820D01*
X20254351Y11245000D01*
X20256500Y11223180D01*
X20256500Y10816820D01*
X20254351Y10795000D01*
X20256500Y10773180D01*
X20256500Y10773170D01*
X20262157Y10715745D01*
X20262933Y10707863D01*
X20288349Y10624075D01*
X20329624Y10546855D01*
X20371255Y10496128D01*
X20371259Y10496124D01*
X20385172Y10479171D01*
X20402125Y10465258D01*
X20994258Y9873124D01*
X21008171Y9856171D01*
X21025124Y9842258D01*
X21025127Y9842255D01*
X21052036Y9820172D01*
X21075855Y9800624D01*
X21153074Y9759349D01*
X21236863Y9733932D01*
X21291895Y9728512D01*
X21266883Y9703500D01*
X20262118Y9703500D01*
X19748500Y10217117D01*
X19748500Y10519180D01*
X19750649Y10541000D01*
X19748500Y10562820D01*
X19748500Y10562830D01*
X19742068Y10628137D01*
X19716651Y10711926D01*
X19683915Y10773170D01*
X19675376Y10789146D01*
X19633745Y10839873D01*
X19633742Y10839876D01*
X19619829Y10856829D01*
X19602877Y10870741D01*
X15823747Y14649870D01*
X15809829Y14666829D01*
X15742145Y14722376D01*
X15664926Y14763651D01*
X15621000Y14776976D01*
X15621000Y17272000D01*
X15613679Y17346329D01*
X15591998Y17417802D01*
X15556790Y17483672D01*
X15509408Y17541408D01*
X14766144Y18284672D01*
X14793376Y18317854D01*
X14834651Y18395074D01*
X14847317Y18436830D01*
X14860068Y18478863D01*
X14866500Y18544170D01*
X14866500Y18544172D01*
X14868650Y18566000D01*
X14866500Y18587827D01*
X14866500Y22012903D01*
X14886728Y21988255D01*
X14886728Y21988255D01*
G37*
X14886728Y21988255D02*
X14909053Y21961052D01*
X14928431Y21945149D01*
X15117141Y21756440D01*
X15133052Y21737052D01*
X15210405Y21673571D01*
X15298657Y21626399D01*
X15394415Y21597351D01*
X15469053Y21590000D01*
X15469056Y21590000D01*
X15494000Y21587543D01*
X15494001Y21587543D01*
X15494001Y21583499D01*
X15354338Y21490179D01*
X15212821Y21348662D01*
X15101632Y21182256D01*
X15025044Y20997356D01*
X14986000Y20801067D01*
X14986000Y20600933D01*
X15025044Y20404644D01*
X15101632Y20219744D01*
X15212821Y20053338D01*
X15354338Y19911821D01*
X15520744Y19800632D01*
X15705644Y19724044D01*
X15901933Y19685000D01*
X16102067Y19685000D01*
X16298356Y19724044D01*
X16483256Y19800632D01*
X16649662Y19911821D01*
X16791179Y20053338D01*
X16902368Y20219744D01*
X16978956Y20404644D01*
X17018000Y20600933D01*
X17018000Y20801067D01*
X16978956Y20997356D01*
X16902368Y21182256D01*
X16791179Y21348662D01*
X16649662Y21490179D01*
X16510000Y21583498D01*
X16510000Y21590000D01*
X18421383Y21590000D01*
X17862125Y21030742D01*
X17845172Y21016829D01*
X17831259Y20999876D01*
X17831255Y20999872D01*
X17789624Y20949145D01*
X17748349Y20871925D01*
X17722933Y20788137D01*
X17714351Y20701000D01*
X17716501Y20679170D01*
X17716500Y17928820D01*
X17714351Y17907000D01*
X17716500Y17885180D01*
X17716500Y17885171D01*
X17722932Y17819864D01*
X17738866Y17767338D01*
X17748349Y17736075D01*
X17789624Y17658855D01*
X17827185Y17613087D01*
X17845171Y17591171D01*
X17862129Y17577253D01*
X18859501Y16579881D01*
X18859500Y15851341D01*
X18808662Y15902179D01*
X18642256Y16013368D01*
X18457356Y16089956D01*
X18261067Y16129000D01*
X18060933Y16129000D01*
X17864644Y16089956D01*
X17679744Y16013368D01*
X17513338Y15902179D01*
X17371821Y15760662D01*
X17260632Y15594256D01*
X17184044Y15409356D01*
X17145000Y15213067D01*
X17145000Y15012933D01*
X17184044Y14816644D01*
X17260632Y14631744D01*
X17371821Y14465338D01*
X17513338Y14323821D01*
X17679744Y14212632D01*
X17864644Y14136044D01*
X18060933Y14097000D01*
X18261067Y14097000D01*
X18457356Y14136044D01*
X18642256Y14212632D01*
X18808662Y14323821D01*
X18950179Y14465338D01*
X19048659Y14612724D01*
X19694678Y13966704D01*
X19685000Y13918050D01*
X19685000Y13767950D01*
X19714283Y13620733D01*
X19771724Y13482058D01*
X19855116Y13357253D01*
X19961253Y13251116D01*
X20086058Y13167724D01*
X20224733Y13110283D01*
X20371950Y13081000D01*
X20522050Y13081000D01*
X20638729Y13104209D01*
X20579904Y13036232D01*
X20518078Y12927496D01*
X20478654Y12808787D01*
X20466000Y12699750D01*
X20602921Y12562829D01*
X20579904Y12536232D01*
X20518078Y12427496D01*
X20498602Y12368852D01*
X20466000Y12336250D01*
X20473921Y12268000D01*
X20466000Y12199750D01*
X20498602Y12167148D01*
X20518078Y12108504D01*
X20579904Y11999768D01*
X20602921Y11973171D01*
X20466000Y11836250D01*
X20478654Y11727213D01*
X20497587Y11670204D01*
X20402130Y11574747D01*
X20385171Y11560829D01*
X20371255Y11543872D01*
X20329624Y11493145D01*
X20316444Y11468487D01*
X20288349Y11415925D01*
X20262932Y11332136D01*
X20256500Y11266829D01*
X20256500Y11266820D01*
X20254351Y11245000D01*
X20256500Y11223180D01*
X20256500Y10816820D01*
X20254351Y10795000D01*
X20256500Y10773180D01*
X20256500Y10773170D01*
X20262157Y10715745D01*
X20262933Y10707863D01*
X20288349Y10624075D01*
X20329624Y10546855D01*
X20371255Y10496128D01*
X20371259Y10496124D01*
X20385172Y10479171D01*
X20402125Y10465258D01*
X20994258Y9873124D01*
X21008171Y9856171D01*
X21025124Y9842258D01*
X21025127Y9842255D01*
X21052036Y9820172D01*
X21075855Y9800624D01*
X21153074Y9759349D01*
X21236863Y9733932D01*
X21291895Y9728512D01*
X21266883Y9703500D01*
X20262118Y9703500D01*
X19748500Y10217117D01*
X19748500Y10519180D01*
X19750649Y10541000D01*
X19748500Y10562820D01*
X19748500Y10562830D01*
X19742068Y10628137D01*
X19716651Y10711926D01*
X19683915Y10773170D01*
X19675376Y10789146D01*
X19633745Y10839873D01*
X19633742Y10839876D01*
X19619829Y10856829D01*
X19602877Y10870741D01*
X15823747Y14649870D01*
X15809829Y14666829D01*
X15742145Y14722376D01*
X15664926Y14763651D01*
X15621000Y14776976D01*
X15621000Y17272000D01*
X15613679Y17346329D01*
X15591998Y17417802D01*
X15556790Y17483672D01*
X15509408Y17541408D01*
X14766144Y18284672D01*
X14793376Y18317854D01*
X14834651Y18395074D01*
X14847317Y18436830D01*
X14860068Y18478863D01*
X14866500Y18544170D01*
X14866500Y18544172D01*
X14868650Y18566000D01*
X14866500Y18587827D01*
X14866500Y22012903D01*
X14886728Y21988255D01*
G36*
X22733000Y12145000D02*
G01*
X22753000Y12145000D01*
X22753000Y11891000D01*
X22733000Y11891000D01*
X22733000Y11871000D01*
X22479000Y11871000D01*
X22479000Y11891000D01*
X22459000Y11891000D01*
X22459000Y12145000D01*
X22479000Y12145000D01*
X22479000Y12165000D01*
X22733000Y12165000D01*
X22733000Y12145000D01*
X22733000Y12145000D01*
G37*
X22733000Y12145000D02*
X22753000Y12145000D01*
X22753000Y11891000D01*
X22733000Y11891000D01*
X22733000Y11871000D01*
X22479000Y11871000D01*
X22479000Y11891000D01*
X22459000Y11891000D01*
X22459000Y12145000D01*
X22479000Y12145000D01*
X22479000Y12165000D01*
X22733000Y12165000D01*
X22733000Y12145000D01*
G36*
X31578524Y15676890D02*
G01*
X31699845Y15447000D01*
X32893000Y15447000D01*
X32893000Y15467000D01*
X33147000Y15467000D01*
X33147000Y15447000D01*
X33167000Y15447000D01*
X33167000Y15193000D01*
X33147000Y15193000D01*
X33147000Y15173000D01*
X32893000Y15173000D01*
X32893000Y15193000D01*
X31699845Y15193000D01*
X31578524Y14963110D01*
X31623175Y14815901D01*
X31748359Y14553080D01*
X31922412Y14319731D01*
X32138645Y14124822D01*
X32388748Y13975843D01*
X32543305Y13921017D01*
X32332784Y13808491D01*
X32145340Y13654660D01*
X31991509Y13467216D01*
X31877202Y13253363D01*
X31868447Y13224500D01*
X29568117Y13224500D01*
X27803322Y14989295D01*
X27813000Y15037950D01*
X27813000Y15188050D01*
X27783717Y15335267D01*
X27726276Y15473942D01*
X27642884Y15598747D01*
X27536747Y15704884D01*
X27448274Y15764000D01*
X31407056Y15764000D01*
X31432000Y15761543D01*
X31456944Y15764000D01*
X31456947Y15764000D01*
X31531585Y15771351D01*
X31614836Y15796605D01*
X31578524Y15676890D01*
X31578524Y15676890D01*
G37*
X31578524Y15676890D02*
X31699845Y15447000D01*
X32893000Y15447000D01*
X32893000Y15467000D01*
X33147000Y15467000D01*
X33147000Y15447000D01*
X33167000Y15447000D01*
X33167000Y15193000D01*
X33147000Y15193000D01*
X33147000Y15173000D01*
X32893000Y15173000D01*
X32893000Y15193000D01*
X31699845Y15193000D01*
X31578524Y14963110D01*
X31623175Y14815901D01*
X31748359Y14553080D01*
X31922412Y14319731D01*
X32138645Y14124822D01*
X32388748Y13975843D01*
X32543305Y13921017D01*
X32332784Y13808491D01*
X32145340Y13654660D01*
X31991509Y13467216D01*
X31877202Y13253363D01*
X31868447Y13224500D01*
X29568117Y13224500D01*
X27803322Y14989295D01*
X27813000Y15037950D01*
X27813000Y15188050D01*
X27783717Y15335267D01*
X27726276Y15473942D01*
X27642884Y15598747D01*
X27536747Y15704884D01*
X27448274Y15764000D01*
X31407056Y15764000D01*
X31432000Y15761543D01*
X31456944Y15764000D01*
X31456947Y15764000D01*
X31531585Y15771351D01*
X31614836Y15796605D01*
X31578524Y15676890D01*
G36*
X22891678Y21717304D02*
G01*
X22939289Y21659289D01*
X22997304Y21611678D01*
X23063492Y21576299D01*
X23135311Y21554513D01*
X23210000Y21547157D01*
X23674423Y21547157D01*
X25163145Y20058435D01*
X25179052Y20039052D01*
X25256405Y19975571D01*
X25344657Y19928399D01*
X25440415Y19899351D01*
X25515053Y19892000D01*
X25515056Y19892000D01*
X25540000Y19889543D01*
X25564944Y19892000D01*
X31895716Y19892000D01*
X31991509Y19712784D01*
X32145340Y19525340D01*
X32332784Y19371509D01*
X32546637Y19257202D01*
X32778682Y19186812D01*
X32959528Y19169000D01*
X33080472Y19169000D01*
X33261318Y19186812D01*
X33493363Y19257202D01*
X33707216Y19371509D01*
X33894660Y19525340D01*
X33992000Y19643950D01*
X33992000Y18616050D01*
X33894660Y18734660D01*
X33707216Y18888491D01*
X33493363Y19002798D01*
X33261318Y19073188D01*
X33080472Y19091000D01*
X32959528Y19091000D01*
X32778682Y19073188D01*
X32546637Y19002798D01*
X32332784Y18888491D01*
X32145340Y18734660D01*
X31991509Y18547216D01*
X31877202Y18333363D01*
X31806812Y18101318D01*
X31783044Y17860000D01*
X31806812Y17618682D01*
X31865801Y17424221D01*
X31221580Y16780000D01*
X27813000Y16780000D01*
X27813000Y16897502D01*
X27952662Y16990821D01*
X28094179Y17132338D01*
X28205368Y17298744D01*
X28281956Y17483644D01*
X28321000Y17679933D01*
X28321000Y17880067D01*
X28281956Y18076356D01*
X28205368Y18261256D01*
X28094179Y18427662D01*
X27952662Y18569179D01*
X27786256Y18680368D01*
X27601356Y18756956D01*
X27405067Y18796000D01*
X27204933Y18796000D01*
X27008644Y18756956D01*
X26823744Y18680368D01*
X26657338Y18569179D01*
X26515821Y18427662D01*
X26404632Y18261256D01*
X26328044Y18076356D01*
X26289000Y17880067D01*
X26289000Y17679933D01*
X26328044Y17483644D01*
X26404632Y17298744D01*
X26515821Y17132338D01*
X26657338Y16990821D01*
X26797001Y16897501D01*
X26797001Y16780000D01*
X25645055Y16780000D01*
X25638487Y16846689D01*
X25616701Y16918508D01*
X25581322Y16984696D01*
X25533711Y17042711D01*
X25475696Y17090322D01*
X25409508Y17125701D01*
X25353126Y17142804D01*
X25387482Y17146188D01*
X25507180Y17182498D01*
X25617494Y17241463D01*
X25714185Y17320815D01*
X25793537Y17417506D01*
X25852502Y17527820D01*
X25888812Y17647518D01*
X25901072Y17772000D01*
X25898000Y17986250D01*
X25739250Y18145000D01*
X24765000Y18145000D01*
X24765000Y18125000D01*
X24511000Y18125000D01*
X24511000Y18145000D01*
X24491000Y18145000D01*
X24491000Y18399000D01*
X24511000Y18399000D01*
X24511000Y19248250D01*
X24765000Y19248250D01*
X24765000Y18399000D01*
X25739250Y18399000D01*
X25898000Y18557750D01*
X25901072Y18772000D01*
X25888812Y18896482D01*
X25852502Y19016180D01*
X25793537Y19126494D01*
X25714185Y19223185D01*
X25617494Y19302537D01*
X25507180Y19361502D01*
X25387482Y19397812D01*
X25263000Y19410072D01*
X24923750Y19407000D01*
X24765000Y19248250D01*
X24511000Y19248250D01*
X24352250Y19407000D01*
X24013000Y19410072D01*
X23888518Y19397812D01*
X23768820Y19361502D01*
X23658506Y19302537D01*
X23561815Y19223185D01*
X23482463Y19126494D01*
X23423498Y19016180D01*
X23387188Y18896482D01*
X23374928Y18772000D01*
X23375303Y18745867D01*
X23335494Y18778537D01*
X23225180Y18837502D01*
X23105482Y18873812D01*
X22981000Y18886072D01*
X22891750Y18883000D01*
X22733000Y18724250D01*
X22733000Y17975000D01*
X22753000Y17975000D01*
X22753000Y17721000D01*
X22733000Y17721000D01*
X22733000Y17701000D01*
X22479000Y17701000D01*
X22479000Y17721000D01*
X21754750Y17721000D01*
X21596000Y17562250D01*
X21592928Y17448000D01*
X21605188Y17323518D01*
X21641498Y17203820D01*
X21700463Y17093506D01*
X21779815Y16996815D01*
X21876506Y16917463D01*
X21886666Y16912032D01*
X21877299Y16894508D01*
X21855513Y16822689D01*
X21848157Y16748000D01*
X21848157Y15948000D01*
X21855513Y15873311D01*
X21877299Y15801492D01*
X21905892Y15748000D01*
X21895950Y15748000D01*
X21847296Y15738322D01*
X21018500Y16567117D01*
X21018500Y19218696D01*
X21054821Y19164338D01*
X21196338Y19022821D01*
X21362744Y18911632D01*
X21547644Y18835044D01*
X21743933Y18796000D01*
X21909176Y18796000D01*
X21876506Y18778537D01*
X21779815Y18699185D01*
X21700463Y18602494D01*
X21641498Y18492180D01*
X21605188Y18372482D01*
X21592928Y18248000D01*
X21596000Y18133750D01*
X21754750Y17975000D01*
X22479000Y17975000D01*
X22479000Y18724250D01*
X22320250Y18883000D01*
X22261051Y18885038D01*
X22325256Y18911632D01*
X22491662Y19022821D01*
X22633179Y19164338D01*
X22744368Y19330744D01*
X22820956Y19515644D01*
X22860000Y19711933D01*
X22860000Y19912067D01*
X22820956Y20108356D01*
X22744368Y20293256D01*
X22633179Y20459662D01*
X22491662Y20601179D01*
X22325256Y20712368D01*
X22140356Y20788956D01*
X21944067Y20828000D01*
X21743933Y20828000D01*
X21547644Y20788956D01*
X21362744Y20712368D01*
X21196338Y20601179D01*
X21054821Y20459662D01*
X21018500Y20405304D01*
X21018500Y21111883D01*
X21510984Y21604366D01*
X21563492Y21576299D01*
X21635311Y21554513D01*
X21710000Y21547157D01*
X22510000Y21547157D01*
X22584689Y21554513D01*
X22656508Y21576299D01*
X22722696Y21611678D01*
X22780711Y21659289D01*
X22828322Y21717304D01*
X22860000Y21776568D01*
X22891678Y21717304D01*
X22891678Y21717304D01*
G37*
X22891678Y21717304D02*
X22939289Y21659289D01*
X22997304Y21611678D01*
X23063492Y21576299D01*
X23135311Y21554513D01*
X23210000Y21547157D01*
X23674423Y21547157D01*
X25163145Y20058435D01*
X25179052Y20039052D01*
X25256405Y19975571D01*
X25344657Y19928399D01*
X25440415Y19899351D01*
X25515053Y19892000D01*
X25515056Y19892000D01*
X25540000Y19889543D01*
X25564944Y19892000D01*
X31895716Y19892000D01*
X31991509Y19712784D01*
X32145340Y19525340D01*
X32332784Y19371509D01*
X32546637Y19257202D01*
X32778682Y19186812D01*
X32959528Y19169000D01*
X33080472Y19169000D01*
X33261318Y19186812D01*
X33493363Y19257202D01*
X33707216Y19371509D01*
X33894660Y19525340D01*
X33992000Y19643950D01*
X33992000Y18616050D01*
X33894660Y18734660D01*
X33707216Y18888491D01*
X33493363Y19002798D01*
X33261318Y19073188D01*
X33080472Y19091000D01*
X32959528Y19091000D01*
X32778682Y19073188D01*
X32546637Y19002798D01*
X32332784Y18888491D01*
X32145340Y18734660D01*
X31991509Y18547216D01*
X31877202Y18333363D01*
X31806812Y18101318D01*
X31783044Y17860000D01*
X31806812Y17618682D01*
X31865801Y17424221D01*
X31221580Y16780000D01*
X27813000Y16780000D01*
X27813000Y16897502D01*
X27952662Y16990821D01*
X28094179Y17132338D01*
X28205368Y17298744D01*
X28281956Y17483644D01*
X28321000Y17679933D01*
X28321000Y17880067D01*
X28281956Y18076356D01*
X28205368Y18261256D01*
X28094179Y18427662D01*
X27952662Y18569179D01*
X27786256Y18680368D01*
X27601356Y18756956D01*
X27405067Y18796000D01*
X27204933Y18796000D01*
X27008644Y18756956D01*
X26823744Y18680368D01*
X26657338Y18569179D01*
X26515821Y18427662D01*
X26404632Y18261256D01*
X26328044Y18076356D01*
X26289000Y17880067D01*
X26289000Y17679933D01*
X26328044Y17483644D01*
X26404632Y17298744D01*
X26515821Y17132338D01*
X26657338Y16990821D01*
X26797001Y16897501D01*
X26797001Y16780000D01*
X25645055Y16780000D01*
X25638487Y16846689D01*
X25616701Y16918508D01*
X25581322Y16984696D01*
X25533711Y17042711D01*
X25475696Y17090322D01*
X25409508Y17125701D01*
X25353126Y17142804D01*
X25387482Y17146188D01*
X25507180Y17182498D01*
X25617494Y17241463D01*
X25714185Y17320815D01*
X25793537Y17417506D01*
X25852502Y17527820D01*
X25888812Y17647518D01*
X25901072Y17772000D01*
X25898000Y17986250D01*
X25739250Y18145000D01*
X24765000Y18145000D01*
X24765000Y18125000D01*
X24511000Y18125000D01*
X24511000Y18145000D01*
X24491000Y18145000D01*
X24491000Y18399000D01*
X24511000Y18399000D01*
X24511000Y19248250D01*
X24765000Y19248250D01*
X24765000Y18399000D01*
X25739250Y18399000D01*
X25898000Y18557750D01*
X25901072Y18772000D01*
X25888812Y18896482D01*
X25852502Y19016180D01*
X25793537Y19126494D01*
X25714185Y19223185D01*
X25617494Y19302537D01*
X25507180Y19361502D01*
X25387482Y19397812D01*
X25263000Y19410072D01*
X24923750Y19407000D01*
X24765000Y19248250D01*
X24511000Y19248250D01*
X24352250Y19407000D01*
X24013000Y19410072D01*
X23888518Y19397812D01*
X23768820Y19361502D01*
X23658506Y19302537D01*
X23561815Y19223185D01*
X23482463Y19126494D01*
X23423498Y19016180D01*
X23387188Y18896482D01*
X23374928Y18772000D01*
X23375303Y18745867D01*
X23335494Y18778537D01*
X23225180Y18837502D01*
X23105482Y18873812D01*
X22981000Y18886072D01*
X22891750Y18883000D01*
X22733000Y18724250D01*
X22733000Y17975000D01*
X22753000Y17975000D01*
X22753000Y17721000D01*
X22733000Y17721000D01*
X22733000Y17701000D01*
X22479000Y17701000D01*
X22479000Y17721000D01*
X21754750Y17721000D01*
X21596000Y17562250D01*
X21592928Y17448000D01*
X21605188Y17323518D01*
X21641498Y17203820D01*
X21700463Y17093506D01*
X21779815Y16996815D01*
X21876506Y16917463D01*
X21886666Y16912032D01*
X21877299Y16894508D01*
X21855513Y16822689D01*
X21848157Y16748000D01*
X21848157Y15948000D01*
X21855513Y15873311D01*
X21877299Y15801492D01*
X21905892Y15748000D01*
X21895950Y15748000D01*
X21847296Y15738322D01*
X21018500Y16567117D01*
X21018500Y19218696D01*
X21054821Y19164338D01*
X21196338Y19022821D01*
X21362744Y18911632D01*
X21547644Y18835044D01*
X21743933Y18796000D01*
X21909176Y18796000D01*
X21876506Y18778537D01*
X21779815Y18699185D01*
X21700463Y18602494D01*
X21641498Y18492180D01*
X21605188Y18372482D01*
X21592928Y18248000D01*
X21596000Y18133750D01*
X21754750Y17975000D01*
X22479000Y17975000D01*
X22479000Y18724250D01*
X22320250Y18883000D01*
X22261051Y18885038D01*
X22325256Y18911632D01*
X22491662Y19022821D01*
X22633179Y19164338D01*
X22744368Y19330744D01*
X22820956Y19515644D01*
X22860000Y19711933D01*
X22860000Y19912067D01*
X22820956Y20108356D01*
X22744368Y20293256D01*
X22633179Y20459662D01*
X22491662Y20601179D01*
X22325256Y20712368D01*
X22140356Y20788956D01*
X21944067Y20828000D01*
X21743933Y20828000D01*
X21547644Y20788956D01*
X21362744Y20712368D01*
X21196338Y20601179D01*
X21054821Y20459662D01*
X21018500Y20405304D01*
X21018500Y21111883D01*
X21510984Y21604366D01*
X21563492Y21576299D01*
X21635311Y21554513D01*
X21710000Y21547157D01*
X22510000Y21547157D01*
X22584689Y21554513D01*
X22656508Y21576299D01*
X22722696Y21611678D01*
X22780711Y21659289D01*
X22828322Y21717304D01*
X22860000Y21776568D01*
X22891678Y21717304D01*
G36*
X13525500Y22764320D02*
G01*
X13523351Y22742500D01*
X13525500Y22720680D01*
X13525500Y22720671D01*
X13531932Y22655364D01*
X13547029Y22605595D01*
X13557349Y22571575D01*
X13598624Y22494355D01*
X13619925Y22468400D01*
X13654171Y22426671D01*
X13671130Y22412753D01*
X13723501Y22360382D01*
X13723500Y19327316D01*
X12142816Y20908000D01*
X13335000Y20908000D01*
X13359776Y20910440D01*
X13383601Y20917667D01*
X13405557Y20929403D01*
X13424803Y20945197D01*
X13440597Y20964443D01*
X13452333Y20986399D01*
X13459560Y21010224D01*
X13462000Y21035000D01*
X13462000Y22817157D01*
X13520000Y22817157D01*
X13525500Y22817699D01*
X13525500Y22764320D01*
X13525500Y22764320D01*
G37*
X13525500Y22764320D02*
X13523351Y22742500D01*
X13525500Y22720680D01*
X13525500Y22720671D01*
X13531932Y22655364D01*
X13547029Y22605595D01*
X13557349Y22571575D01*
X13598624Y22494355D01*
X13619925Y22468400D01*
X13654171Y22426671D01*
X13671130Y22412753D01*
X13723501Y22360382D01*
X13723500Y19327316D01*
X12142816Y20908000D01*
X13335000Y20908000D01*
X13359776Y20910440D01*
X13383601Y20917667D01*
X13405557Y20929403D01*
X13424803Y20945197D01*
X13440597Y20964443D01*
X13452333Y20986399D01*
X13459560Y21010224D01*
X13462000Y21035000D01*
X13462000Y22817157D01*
X13520000Y22817157D01*
X13525500Y22817699D01*
X13525500Y22764320D01*
G36*
X1721744Y27474715D02*
G01*
X1661634Y27434550D01*
X1265450Y26914155D01*
X4000000Y24179605D01*
X6734550Y26914155D01*
X6338366Y27434550D01*
X6233098Y27492000D01*
X10081444Y27492000D01*
X10079553Y27490448D01*
X9975707Y27363912D01*
X9898543Y27219548D01*
X9851025Y27062904D01*
X9839000Y26940815D01*
X9839000Y26159186D01*
X9851025Y26037097D01*
X9898542Y25880453D01*
X9975706Y25736089D01*
X10079552Y25609552D01*
X10206088Y25505706D01*
X10350452Y25428542D01*
X10507096Y25381025D01*
X10670000Y25364980D01*
X10832903Y25381025D01*
X10989547Y25428542D01*
X11133911Y25505706D01*
X11260448Y25609552D01*
X11364294Y25736088D01*
X11437157Y25872405D01*
X11437157Y25600000D01*
X11444513Y25525311D01*
X11466299Y25453492D01*
X11501678Y25387304D01*
X11549289Y25329289D01*
X11607304Y25281678D01*
X11673492Y25246299D01*
X11745311Y25224513D01*
X11820000Y25217157D01*
X13720000Y25217157D01*
X13794689Y25224513D01*
X13866508Y25246299D01*
X13932696Y25281678D01*
X13970000Y25312292D01*
X14007304Y25281678D01*
X14073492Y25246299D01*
X14145311Y25224513D01*
X14220000Y25217157D01*
X16120000Y25217157D01*
X16194689Y25224513D01*
X16266508Y25246299D01*
X16332696Y25281678D01*
X16390711Y25329289D01*
X16438322Y25387304D01*
X16473701Y25453492D01*
X16495487Y25525311D01*
X16502843Y25600000D01*
X16502843Y25872406D01*
X16575706Y25736089D01*
X16679552Y25609552D01*
X16806088Y25505706D01*
X16950452Y25428542D01*
X17107096Y25381025D01*
X17270000Y25364980D01*
X17432903Y25381025D01*
X17589547Y25428542D01*
X17733911Y25505706D01*
X17860448Y25609552D01*
X17964294Y25736088D01*
X18041458Y25880452D01*
X18088975Y26037096D01*
X18101000Y26159185D01*
X18101000Y26940815D01*
X18088975Y27062904D01*
X18041458Y27219548D01*
X17964294Y27363912D01*
X17860448Y27490448D01*
X17858557Y27492000D01*
X20169580Y27492000D01*
X19470430Y26792850D01*
X19451053Y26776948D01*
X19435151Y26757571D01*
X19435150Y26757570D01*
X19387571Y26699595D01*
X19353851Y26636508D01*
X19340400Y26611343D01*
X19316082Y26531176D01*
X19311352Y26515584D01*
X19301543Y26416000D01*
X19304001Y26391046D01*
X19304000Y23324421D01*
X18585580Y22606000D01*
X16026947Y22606000D01*
X16002000Y22608457D01*
X15977053Y22606000D01*
X15778000Y22606000D01*
X15778000Y22974726D01*
X15788322Y22987304D01*
X15823701Y23053492D01*
X15845487Y23125311D01*
X15852843Y23200000D01*
X15852843Y24550000D01*
X15845487Y24624689D01*
X15823701Y24696508D01*
X15788322Y24762696D01*
X15740711Y24820711D01*
X15682696Y24868322D01*
X15623432Y24900000D01*
X16087157Y24900000D01*
X16087157Y23300000D01*
X16094513Y23225311D01*
X16116299Y23153492D01*
X16151678Y23087304D01*
X16199289Y23029289D01*
X16257304Y22981678D01*
X16323492Y22946299D01*
X16395311Y22924513D01*
X16470000Y22917157D01*
X17870000Y22917157D01*
X17944689Y22924513D01*
X18016508Y22946299D01*
X18082696Y22981678D01*
X18140711Y23029289D01*
X18188322Y23087304D01*
X18223701Y23153492D01*
X18245487Y23225311D01*
X18252843Y23300000D01*
X18252843Y24900000D01*
X18245487Y24974689D01*
X18223701Y25046508D01*
X18188322Y25112696D01*
X18140711Y25170711D01*
X18082696Y25218322D01*
X18016508Y25253701D01*
X17944689Y25275487D01*
X17870000Y25282843D01*
X16470000Y25282843D01*
X16395311Y25275487D01*
X16323492Y25253701D01*
X16257304Y25218322D01*
X16199289Y25170711D01*
X16151678Y25112696D01*
X16116299Y25046508D01*
X16094513Y24974689D01*
X16087157Y24900000D01*
X15623432Y24900000D01*
X15616508Y24903701D01*
X15544689Y24925487D01*
X15470000Y24932843D01*
X15070000Y24932843D01*
X14995311Y24925487D01*
X14945000Y24910225D01*
X14894689Y24925487D01*
X14820000Y24932843D01*
X14420000Y24932843D01*
X14345311Y24925487D01*
X14295000Y24910225D01*
X14244689Y24925487D01*
X14170000Y24932843D01*
X13770000Y24932843D01*
X13695311Y24925487D01*
X13645000Y24910225D01*
X13594689Y24925487D01*
X13520000Y24932843D01*
X13426411Y24932843D01*
X13424803Y24934803D01*
X13405557Y24950597D01*
X13383601Y24962333D01*
X13359776Y24969560D01*
X13346659Y24970852D01*
X13328343Y24993912D01*
X13232933Y25074800D01*
X13123576Y25135521D01*
X13004474Y25173741D01*
X12901750Y25185000D01*
X12743000Y25026250D01*
X12743000Y24972000D01*
X12597000Y24972000D01*
X12597000Y25026250D01*
X12438250Y25185000D01*
X12335526Y25173741D01*
X12216424Y25135521D01*
X12107067Y25074800D01*
X12011657Y24993912D01*
X11933861Y24895964D01*
X11876669Y24784721D01*
X11852843Y24701402D01*
X11852843Y24900000D01*
X11845487Y24974689D01*
X11823701Y25046508D01*
X11788322Y25112696D01*
X11740711Y25170711D01*
X11682696Y25218322D01*
X11616508Y25253701D01*
X11544689Y25275487D01*
X11470000Y25282843D01*
X10070000Y25282843D01*
X9995311Y25275487D01*
X9923492Y25253701D01*
X9857304Y25218322D01*
X9799289Y25170711D01*
X9751678Y25112696D01*
X9716299Y25046508D01*
X9694513Y24974689D01*
X9687157Y24900000D01*
X9687157Y23300000D01*
X9694513Y23225311D01*
X9716299Y23153492D01*
X9751678Y23087304D01*
X9799289Y23029289D01*
X9857304Y22981678D01*
X9923492Y22946299D01*
X9995311Y22924513D01*
X10070000Y22917157D01*
X11470000Y22917157D01*
X11544689Y22924513D01*
X11616508Y22946299D01*
X11682696Y22981678D01*
X11740711Y23029289D01*
X11788322Y23087304D01*
X11823701Y23153492D01*
X11833909Y23187145D01*
X11842278Y23085543D01*
X11876669Y22965279D01*
X11933861Y22854036D01*
X11938000Y22848825D01*
X11938000Y21112816D01*
X11699408Y21351408D01*
X11642129Y21398484D01*
X11576310Y21433787D01*
X11504869Y21455572D01*
X11430550Y21463000D01*
X7181697Y21469134D01*
X7434550Y21661634D01*
X7824748Y22376612D01*
X8067964Y23153976D01*
X8154851Y23963853D01*
X8082069Y24775118D01*
X7852415Y25556597D01*
X7474715Y26278256D01*
X7434550Y26338366D01*
X6914155Y26734550D01*
X4179605Y24000000D01*
X4193748Y23985857D01*
X4014143Y23806252D01*
X4000000Y23820395D01*
X3985858Y23806252D01*
X3806253Y23985857D01*
X3820395Y24000000D01*
X1085845Y26734550D01*
X565450Y26338366D01*
X508000Y26233098D01*
X508000Y27492000D01*
X1754770Y27492000D01*
X1721744Y27474715D01*
X1721744Y27474715D01*
G37*
X1721744Y27474715D02*
X1661634Y27434550D01*
X1265450Y26914155D01*
X4000000Y24179605D01*
X6734550Y26914155D01*
X6338366Y27434550D01*
X6233098Y27492000D01*
X10081444Y27492000D01*
X10079553Y27490448D01*
X9975707Y27363912D01*
X9898543Y27219548D01*
X9851025Y27062904D01*
X9839000Y26940815D01*
X9839000Y26159186D01*
X9851025Y26037097D01*
X9898542Y25880453D01*
X9975706Y25736089D01*
X10079552Y25609552D01*
X10206088Y25505706D01*
X10350452Y25428542D01*
X10507096Y25381025D01*
X10670000Y25364980D01*
X10832903Y25381025D01*
X10989547Y25428542D01*
X11133911Y25505706D01*
X11260448Y25609552D01*
X11364294Y25736088D01*
X11437157Y25872405D01*
X11437157Y25600000D01*
X11444513Y25525311D01*
X11466299Y25453492D01*
X11501678Y25387304D01*
X11549289Y25329289D01*
X11607304Y25281678D01*
X11673492Y25246299D01*
X11745311Y25224513D01*
X11820000Y25217157D01*
X13720000Y25217157D01*
X13794689Y25224513D01*
X13866508Y25246299D01*
X13932696Y25281678D01*
X13970000Y25312292D01*
X14007304Y25281678D01*
X14073492Y25246299D01*
X14145311Y25224513D01*
X14220000Y25217157D01*
X16120000Y25217157D01*
X16194689Y25224513D01*
X16266508Y25246299D01*
X16332696Y25281678D01*
X16390711Y25329289D01*
X16438322Y25387304D01*
X16473701Y25453492D01*
X16495487Y25525311D01*
X16502843Y25600000D01*
X16502843Y25872406D01*
X16575706Y25736089D01*
X16679552Y25609552D01*
X16806088Y25505706D01*
X16950452Y25428542D01*
X17107096Y25381025D01*
X17270000Y25364980D01*
X17432903Y25381025D01*
X17589547Y25428542D01*
X17733911Y25505706D01*
X17860448Y25609552D01*
X17964294Y25736088D01*
X18041458Y25880452D01*
X18088975Y26037096D01*
X18101000Y26159185D01*
X18101000Y26940815D01*
X18088975Y27062904D01*
X18041458Y27219548D01*
X17964294Y27363912D01*
X17860448Y27490448D01*
X17858557Y27492000D01*
X20169580Y27492000D01*
X19470430Y26792850D01*
X19451053Y26776948D01*
X19435151Y26757571D01*
X19435150Y26757570D01*
X19387571Y26699595D01*
X19353851Y26636508D01*
X19340400Y26611343D01*
X19316082Y26531176D01*
X19311352Y26515584D01*
X19301543Y26416000D01*
X19304001Y26391046D01*
X19304000Y23324421D01*
X18585580Y22606000D01*
X16026947Y22606000D01*
X16002000Y22608457D01*
X15977053Y22606000D01*
X15778000Y22606000D01*
X15778000Y22974726D01*
X15788322Y22987304D01*
X15823701Y23053492D01*
X15845487Y23125311D01*
X15852843Y23200000D01*
X15852843Y24550000D01*
X15845487Y24624689D01*
X15823701Y24696508D01*
X15788322Y24762696D01*
X15740711Y24820711D01*
X15682696Y24868322D01*
X15623432Y24900000D01*
X16087157Y24900000D01*
X16087157Y23300000D01*
X16094513Y23225311D01*
X16116299Y23153492D01*
X16151678Y23087304D01*
X16199289Y23029289D01*
X16257304Y22981678D01*
X16323492Y22946299D01*
X16395311Y22924513D01*
X16470000Y22917157D01*
X17870000Y22917157D01*
X17944689Y22924513D01*
X18016508Y22946299D01*
X18082696Y22981678D01*
X18140711Y23029289D01*
X18188322Y23087304D01*
X18223701Y23153492D01*
X18245487Y23225311D01*
X18252843Y23300000D01*
X18252843Y24900000D01*
X18245487Y24974689D01*
X18223701Y25046508D01*
X18188322Y25112696D01*
X18140711Y25170711D01*
X18082696Y25218322D01*
X18016508Y25253701D01*
X17944689Y25275487D01*
X17870000Y25282843D01*
X16470000Y25282843D01*
X16395311Y25275487D01*
X16323492Y25253701D01*
X16257304Y25218322D01*
X16199289Y25170711D01*
X16151678Y25112696D01*
X16116299Y25046508D01*
X16094513Y24974689D01*
X16087157Y24900000D01*
X15623432Y24900000D01*
X15616508Y24903701D01*
X15544689Y24925487D01*
X15470000Y24932843D01*
X15070000Y24932843D01*
X14995311Y24925487D01*
X14945000Y24910225D01*
X14894689Y24925487D01*
X14820000Y24932843D01*
X14420000Y24932843D01*
X14345311Y24925487D01*
X14295000Y24910225D01*
X14244689Y24925487D01*
X14170000Y24932843D01*
X13770000Y24932843D01*
X13695311Y24925487D01*
X13645000Y24910225D01*
X13594689Y24925487D01*
X13520000Y24932843D01*
X13426411Y24932843D01*
X13424803Y24934803D01*
X13405557Y24950597D01*
X13383601Y24962333D01*
X13359776Y24969560D01*
X13346659Y24970852D01*
X13328343Y24993912D01*
X13232933Y25074800D01*
X13123576Y25135521D01*
X13004474Y25173741D01*
X12901750Y25185000D01*
X12743000Y25026250D01*
X12743000Y24972000D01*
X12597000Y24972000D01*
X12597000Y25026250D01*
X12438250Y25185000D01*
X12335526Y25173741D01*
X12216424Y25135521D01*
X12107067Y25074800D01*
X12011657Y24993912D01*
X11933861Y24895964D01*
X11876669Y24784721D01*
X11852843Y24701402D01*
X11852843Y24900000D01*
X11845487Y24974689D01*
X11823701Y25046508D01*
X11788322Y25112696D01*
X11740711Y25170711D01*
X11682696Y25218322D01*
X11616508Y25253701D01*
X11544689Y25275487D01*
X11470000Y25282843D01*
X10070000Y25282843D01*
X9995311Y25275487D01*
X9923492Y25253701D01*
X9857304Y25218322D01*
X9799289Y25170711D01*
X9751678Y25112696D01*
X9716299Y25046508D01*
X9694513Y24974689D01*
X9687157Y24900000D01*
X9687157Y23300000D01*
X9694513Y23225311D01*
X9716299Y23153492D01*
X9751678Y23087304D01*
X9799289Y23029289D01*
X9857304Y22981678D01*
X9923492Y22946299D01*
X9995311Y22924513D01*
X10070000Y22917157D01*
X11470000Y22917157D01*
X11544689Y22924513D01*
X11616508Y22946299D01*
X11682696Y22981678D01*
X11740711Y23029289D01*
X11788322Y23087304D01*
X11823701Y23153492D01*
X11833909Y23187145D01*
X11842278Y23085543D01*
X11876669Y22965279D01*
X11933861Y22854036D01*
X11938000Y22848825D01*
X11938000Y21112816D01*
X11699408Y21351408D01*
X11642129Y21398484D01*
X11576310Y21433787D01*
X11504869Y21455572D01*
X11430550Y21463000D01*
X7181697Y21469134D01*
X7434550Y21661634D01*
X7824748Y22376612D01*
X8067964Y23153976D01*
X8154851Y23963853D01*
X8082069Y24775118D01*
X7852415Y25556597D01*
X7474715Y26278256D01*
X7434550Y26338366D01*
X6914155Y26734550D01*
X4179605Y24000000D01*
X4193748Y23985857D01*
X4014143Y23806252D01*
X4000000Y23820395D01*
X3985858Y23806252D01*
X3806253Y23985857D01*
X3820395Y24000000D01*
X1085845Y26734550D01*
X565450Y26338366D01*
X508000Y26233098D01*
X508000Y27492000D01*
X1754770Y27492000D01*
X1721744Y27474715D01*
G36*
X11938000Y23692250D02*
G01*
X11852843Y23607093D01*
X11852843Y23747998D01*
X11938000Y23747998D01*
X11938000Y23692250D01*
X11938000Y23692250D01*
G37*
X11938000Y23692250D02*
X11852843Y23607093D01*
X11852843Y23747998D01*
X11938000Y23747998D01*
X11938000Y23692250D01*
G36*
X11938000Y24057750D02*
G01*
X11938000Y24002002D01*
X11852843Y24002002D01*
X11852843Y24142907D01*
X11938000Y24057750D01*
X11938000Y24057750D01*
G37*
X11938000Y24057750D02*
X11938000Y24002002D01*
X11852843Y24002002D01*
X11852843Y24142907D01*
X11938000Y24057750D01*
G36*
X1550206Y20969262D02*
G01*
X2161657Y20560703D01*
X2867954Y20268145D01*
X3617755Y20119000D01*
X4382245Y20119000D01*
X5132046Y20268145D01*
X5838343Y20560703D01*
X6439232Y20962204D01*
X10430927Y20956442D01*
X10436253Y20951116D01*
X10561058Y20867724D01*
X10699733Y20810283D01*
X10846950Y20781000D01*
X10997050Y20781000D01*
X11144267Y20810283D01*
X11282942Y20867724D01*
X11366500Y20923556D01*
X11450058Y20867724D01*
X11475002Y20857392D01*
X13589389Y18743005D01*
X10160000Y15313617D01*
X10160000Y15442050D01*
X10130717Y15589267D01*
X10073276Y15727942D01*
X9989884Y15852747D01*
X9883747Y15958884D01*
X9758942Y16042276D01*
X9620267Y16099717D01*
X9473050Y16129000D01*
X9322950Y16129000D01*
X9175733Y16099717D01*
X9037058Y16042276D01*
X8912253Y15958884D01*
X8806116Y15852747D01*
X8778556Y15811500D01*
X8405819Y15811500D01*
X8383999Y15813649D01*
X8362179Y15811500D01*
X8362170Y15811500D01*
X8296863Y15805068D01*
X8267542Y15796174D01*
X8272843Y15850000D01*
X8272843Y16150000D01*
X8265487Y16224689D01*
X8257809Y16250000D01*
X8265487Y16275311D01*
X8271625Y16337638D01*
X8329329Y16343321D01*
X8400802Y16365002D01*
X8466672Y16400210D01*
X8524408Y16447592D01*
X8901881Y16825065D01*
X8994747Y16887116D01*
X9100884Y16993253D01*
X9162935Y17086119D01*
X9301816Y17225000D01*
X9906000Y17225000D01*
X9980329Y17232321D01*
X10051802Y17254002D01*
X10117672Y17289210D01*
X10167733Y17330293D01*
X10264747Y17395116D01*
X10370884Y17501253D01*
X10435707Y17598267D01*
X10476790Y17648328D01*
X10511998Y17714198D01*
X10533679Y17785671D01*
X10541000Y17860000D01*
X10541000Y18876000D01*
X10533679Y18950329D01*
X10511998Y19021802D01*
X10476790Y19087672D01*
X10435707Y19137733D01*
X10370884Y19234747D01*
X10264747Y19340884D01*
X10167733Y19405707D01*
X10117672Y19446790D01*
X10051802Y19481998D01*
X9980329Y19503679D01*
X9906000Y19511000D01*
X8636000Y19511000D01*
X8561671Y19503679D01*
X8490198Y19481998D01*
X8424328Y19446790D01*
X8366592Y19399408D01*
X8094534Y19127350D01*
X7988002Y19184293D01*
X7812508Y19237529D01*
X7675731Y19251000D01*
X6584269Y19251000D01*
X6447492Y19237529D01*
X6271998Y19184293D01*
X6110262Y19097843D01*
X5968499Y18981501D01*
X5852157Y18839738D01*
X5765707Y18678002D01*
X5712471Y18502508D01*
X5694496Y18320000D01*
X5702277Y18241000D01*
X5080000Y18241000D01*
X5005671Y18233679D01*
X4934198Y18211998D01*
X4868328Y18176790D01*
X4818267Y18135707D01*
X4721253Y18070884D01*
X4615116Y17964747D01*
X4550293Y17867733D01*
X4509210Y17817672D01*
X4474002Y17751802D01*
X4452321Y17680329D01*
X4445000Y17606000D01*
X4445000Y16590000D01*
X4452321Y16515671D01*
X4474002Y16444198D01*
X4509210Y16378328D01*
X4550293Y16328267D01*
X4615116Y16231253D01*
X4721253Y16125116D01*
X4818267Y16060293D01*
X4868328Y16019210D01*
X4934198Y15984002D01*
X5005671Y15962321D01*
X5080000Y15955000D01*
X5461000Y15955000D01*
X5513079Y15960130D01*
X5507157Y15900000D01*
X5507157Y15600000D01*
X5514513Y15525311D01*
X5536299Y15453492D01*
X5571678Y15387304D01*
X5619289Y15329289D01*
X5677304Y15281678D01*
X5736568Y15250000D01*
X5677304Y15218322D01*
X5619289Y15170711D01*
X5571678Y15112696D01*
X5536299Y15046508D01*
X5514513Y14974689D01*
X5507157Y14900000D01*
X5507157Y14748500D01*
X4974820Y14748500D01*
X4953000Y14750649D01*
X4931180Y14748500D01*
X4931170Y14748500D01*
X4865863Y14742068D01*
X4800947Y14722376D01*
X4782074Y14716651D01*
X4704854Y14675376D01*
X4654127Y14633745D01*
X4654124Y14633742D01*
X4637171Y14619829D01*
X4623258Y14602876D01*
X4441704Y14421322D01*
X4393050Y14431000D01*
X4242950Y14431000D01*
X4095733Y14401717D01*
X3957058Y14344276D01*
X3832253Y14260884D01*
X3726116Y14154747D01*
X3642724Y14029942D01*
X3585283Y13891267D01*
X3556000Y13744050D01*
X3556000Y13593950D01*
X3564706Y13550179D01*
X3449058Y13502276D01*
X3324253Y13418884D01*
X3218116Y13312747D01*
X3134724Y13187942D01*
X3077283Y13049267D01*
X3048000Y12902050D01*
X3048000Y12751950D01*
X3077283Y12604733D01*
X3134724Y12466058D01*
X3218116Y12341253D01*
X3324253Y12235116D01*
X3449058Y12151724D01*
X3587733Y12094283D01*
X3734950Y12065000D01*
X3885050Y12065000D01*
X4032267Y12094283D01*
X4170942Y12151724D01*
X4295747Y12235116D01*
X4401884Y12341253D01*
X4485276Y12466058D01*
X4542717Y12604733D01*
X4549036Y12636500D01*
X5572180Y12636500D01*
X5589790Y12634766D01*
X5571678Y12612696D01*
X5536299Y12546508D01*
X5514513Y12474689D01*
X5507157Y12400000D01*
X5507157Y12100000D01*
X5514513Y12025311D01*
X5522191Y12000000D01*
X5514513Y11974689D01*
X5507157Y11900000D01*
X5507157Y11891000D01*
X5080000Y11891000D01*
X5005671Y11883679D01*
X4934198Y11861998D01*
X4868328Y11826790D01*
X4818267Y11785707D01*
X4721253Y11720884D01*
X4615116Y11614747D01*
X4550293Y11517733D01*
X4509210Y11467672D01*
X4474002Y11401802D01*
X4452321Y11330329D01*
X4445000Y11256000D01*
X4445000Y10240000D01*
X4452321Y10165671D01*
X4474002Y10094198D01*
X4509210Y10028328D01*
X4550293Y9978267D01*
X4615116Y9881253D01*
X4721253Y9775116D01*
X4818267Y9710293D01*
X4868328Y9669210D01*
X4934198Y9634002D01*
X5005671Y9612321D01*
X5080000Y9605000D01*
X5701883Y9605000D01*
X5712471Y9497492D01*
X5765707Y9321998D01*
X5852157Y9160262D01*
X5968499Y9018499D01*
X6110262Y8902157D01*
X6271998Y8815707D01*
X6447492Y8762471D01*
X6584269Y8749000D01*
X7675731Y8749000D01*
X7812508Y8762471D01*
X7988002Y8815707D01*
X8149738Y8902157D01*
X8291501Y9018499D01*
X8407843Y9160262D01*
X8494293Y9321998D01*
X8541616Y9478000D01*
X10287000Y9478000D01*
X10361329Y9485321D01*
X10432802Y9507002D01*
X10498672Y9542210D01*
X10548733Y9583293D01*
X10645747Y9648116D01*
X10751884Y9754253D01*
X10816707Y9851267D01*
X10857790Y9901328D01*
X10892998Y9967198D01*
X10914679Y10038671D01*
X10922000Y10113000D01*
X10922000Y11129000D01*
X10914679Y11203329D01*
X10892998Y11274802D01*
X10857790Y11340672D01*
X10816707Y11390733D01*
X10751884Y11487747D01*
X10645747Y11593884D01*
X10548733Y11658707D01*
X10498672Y11699790D01*
X10432802Y11734998D01*
X10361329Y11756679D01*
X10287000Y11764000D01*
X8262056Y11764000D01*
X8265487Y11775311D01*
X8272843Y11850000D01*
X8272843Y12150000D01*
X8265487Y12224689D01*
X8243701Y12296508D01*
X8208322Y12362696D01*
X8160711Y12420711D01*
X8102696Y12468322D01*
X8043432Y12500000D01*
X8102696Y12531678D01*
X8160711Y12579289D01*
X8208322Y12637304D01*
X8243701Y12703492D01*
X8265487Y12775311D01*
X8272843Y12850000D01*
X8272843Y12992022D01*
X8275063Y12990539D01*
X8413738Y12933098D01*
X8560955Y12903815D01*
X8711055Y12903815D01*
X8858272Y12933098D01*
X8996947Y12990539D01*
X9121752Y13073931D01*
X9227889Y13180068D01*
X9311281Y13304873D01*
X9368722Y13443548D01*
X9387514Y13538025D01*
X9672473Y13538025D01*
X9681283Y13493733D01*
X9738724Y13355058D01*
X9822116Y13230253D01*
X9928253Y13124116D01*
X10053058Y13040724D01*
X10191733Y12983283D01*
X10338950Y12954000D01*
X10489050Y12954000D01*
X10636267Y12983283D01*
X10774942Y13040724D01*
X10899747Y13124116D01*
X11005884Y13230253D01*
X11033444Y13271500D01*
X11281180Y13271500D01*
X11303000Y13269351D01*
X11324820Y13271500D01*
X11324830Y13271500D01*
X11390137Y13277932D01*
X11473926Y13303349D01*
X11551145Y13344624D01*
X11618829Y13400171D01*
X11632746Y13417129D01*
X11868118Y13652500D01*
X15055883Y13652500D01*
X15113000Y13595383D01*
X15113000Y7486618D01*
X14941129Y7314746D01*
X14924171Y7300829D01*
X14910255Y7283872D01*
X14868624Y7233145D01*
X14848770Y7196000D01*
X14827349Y7155925D01*
X14801932Y7072136D01*
X14795500Y7006829D01*
X14795500Y7006820D01*
X14793351Y6985000D01*
X14795500Y6963180D01*
X14795501Y4974830D01*
X14793351Y4953000D01*
X14801933Y4865863D01*
X14827349Y4782075D01*
X14868624Y4704855D01*
X14910255Y4654128D01*
X14910259Y4654124D01*
X14913119Y4650639D01*
X7811618Y4621049D01*
X7731855Y5022046D01*
X7439297Y5728343D01*
X7014569Y6363993D01*
X6473993Y6904569D01*
X5838343Y7329297D01*
X5132046Y7621855D01*
X4382245Y7771000D01*
X3617755Y7771000D01*
X2867954Y7621855D01*
X2161657Y7329297D01*
X1526007Y6904569D01*
X985431Y6363993D01*
X560703Y5728343D01*
X508000Y5601107D01*
X508000Y8898021D01*
X661998Y8815707D01*
X837492Y8762471D01*
X974269Y8749000D01*
X2565731Y8749000D01*
X2702508Y8762471D01*
X2878002Y8815707D01*
X3039738Y8902157D01*
X3181501Y9018499D01*
X3297843Y9160262D01*
X3384293Y9321998D01*
X3437529Y9497492D01*
X3455504Y9680000D01*
X3437529Y9862508D01*
X3384293Y10038002D01*
X3297843Y10199738D01*
X3181501Y10341501D01*
X3039738Y10457843D01*
X2878002Y10544293D01*
X2702508Y10597529D01*
X2565731Y10611000D01*
X974269Y10611000D01*
X837492Y10597529D01*
X661998Y10544293D01*
X508000Y10461979D01*
X508000Y17538021D01*
X661998Y17455707D01*
X837492Y17402471D01*
X974269Y17389000D01*
X2565731Y17389000D01*
X2702508Y17402471D01*
X2878002Y17455707D01*
X3039738Y17542157D01*
X3181501Y17658499D01*
X3297843Y17800262D01*
X3384293Y17961998D01*
X3437529Y18137492D01*
X3455504Y18320000D01*
X3437529Y18502508D01*
X3384293Y18678002D01*
X3297843Y18839738D01*
X3181501Y18981501D01*
X3039738Y19097843D01*
X2878002Y19184293D01*
X2702508Y19237529D01*
X2565731Y19251000D01*
X974269Y19251000D01*
X837492Y19237529D01*
X661998Y19184293D01*
X508000Y19101979D01*
X508000Y20970766D01*
X1550206Y20969262D01*
X1550206Y20969262D01*
G37*
X1550206Y20969262D02*
X2161657Y20560703D01*
X2867954Y20268145D01*
X3617755Y20119000D01*
X4382245Y20119000D01*
X5132046Y20268145D01*
X5838343Y20560703D01*
X6439232Y20962204D01*
X10430927Y20956442D01*
X10436253Y20951116D01*
X10561058Y20867724D01*
X10699733Y20810283D01*
X10846950Y20781000D01*
X10997050Y20781000D01*
X11144267Y20810283D01*
X11282942Y20867724D01*
X11366500Y20923556D01*
X11450058Y20867724D01*
X11475002Y20857392D01*
X13589389Y18743005D01*
X10160000Y15313617D01*
X10160000Y15442050D01*
X10130717Y15589267D01*
X10073276Y15727942D01*
X9989884Y15852747D01*
X9883747Y15958884D01*
X9758942Y16042276D01*
X9620267Y16099717D01*
X9473050Y16129000D01*
X9322950Y16129000D01*
X9175733Y16099717D01*
X9037058Y16042276D01*
X8912253Y15958884D01*
X8806116Y15852747D01*
X8778556Y15811500D01*
X8405819Y15811500D01*
X8383999Y15813649D01*
X8362179Y15811500D01*
X8362170Y15811500D01*
X8296863Y15805068D01*
X8267542Y15796174D01*
X8272843Y15850000D01*
X8272843Y16150000D01*
X8265487Y16224689D01*
X8257809Y16250000D01*
X8265487Y16275311D01*
X8271625Y16337638D01*
X8329329Y16343321D01*
X8400802Y16365002D01*
X8466672Y16400210D01*
X8524408Y16447592D01*
X8901881Y16825065D01*
X8994747Y16887116D01*
X9100884Y16993253D01*
X9162935Y17086119D01*
X9301816Y17225000D01*
X9906000Y17225000D01*
X9980329Y17232321D01*
X10051802Y17254002D01*
X10117672Y17289210D01*
X10167733Y17330293D01*
X10264747Y17395116D01*
X10370884Y17501253D01*
X10435707Y17598267D01*
X10476790Y17648328D01*
X10511998Y17714198D01*
X10533679Y17785671D01*
X10541000Y17860000D01*
X10541000Y18876000D01*
X10533679Y18950329D01*
X10511998Y19021802D01*
X10476790Y19087672D01*
X10435707Y19137733D01*
X10370884Y19234747D01*
X10264747Y19340884D01*
X10167733Y19405707D01*
X10117672Y19446790D01*
X10051802Y19481998D01*
X9980329Y19503679D01*
X9906000Y19511000D01*
X8636000Y19511000D01*
X8561671Y19503679D01*
X8490198Y19481998D01*
X8424328Y19446790D01*
X8366592Y19399408D01*
X8094534Y19127350D01*
X7988002Y19184293D01*
X7812508Y19237529D01*
X7675731Y19251000D01*
X6584269Y19251000D01*
X6447492Y19237529D01*
X6271998Y19184293D01*
X6110262Y19097843D01*
X5968499Y18981501D01*
X5852157Y18839738D01*
X5765707Y18678002D01*
X5712471Y18502508D01*
X5694496Y18320000D01*
X5702277Y18241000D01*
X5080000Y18241000D01*
X5005671Y18233679D01*
X4934198Y18211998D01*
X4868328Y18176790D01*
X4818267Y18135707D01*
X4721253Y18070884D01*
X4615116Y17964747D01*
X4550293Y17867733D01*
X4509210Y17817672D01*
X4474002Y17751802D01*
X4452321Y17680329D01*
X4445000Y17606000D01*
X4445000Y16590000D01*
X4452321Y16515671D01*
X4474002Y16444198D01*
X4509210Y16378328D01*
X4550293Y16328267D01*
X4615116Y16231253D01*
X4721253Y16125116D01*
X4818267Y16060293D01*
X4868328Y16019210D01*
X4934198Y15984002D01*
X5005671Y15962321D01*
X5080000Y15955000D01*
X5461000Y15955000D01*
X5513079Y15960130D01*
X5507157Y15900000D01*
X5507157Y15600000D01*
X5514513Y15525311D01*
X5536299Y15453492D01*
X5571678Y15387304D01*
X5619289Y15329289D01*
X5677304Y15281678D01*
X5736568Y15250000D01*
X5677304Y15218322D01*
X5619289Y15170711D01*
X5571678Y15112696D01*
X5536299Y15046508D01*
X5514513Y14974689D01*
X5507157Y14900000D01*
X5507157Y14748500D01*
X4974820Y14748500D01*
X4953000Y14750649D01*
X4931180Y14748500D01*
X4931170Y14748500D01*
X4865863Y14742068D01*
X4800947Y14722376D01*
X4782074Y14716651D01*
X4704854Y14675376D01*
X4654127Y14633745D01*
X4654124Y14633742D01*
X4637171Y14619829D01*
X4623258Y14602876D01*
X4441704Y14421322D01*
X4393050Y14431000D01*
X4242950Y14431000D01*
X4095733Y14401717D01*
X3957058Y14344276D01*
X3832253Y14260884D01*
X3726116Y14154747D01*
X3642724Y14029942D01*
X3585283Y13891267D01*
X3556000Y13744050D01*
X3556000Y13593950D01*
X3564706Y13550179D01*
X3449058Y13502276D01*
X3324253Y13418884D01*
X3218116Y13312747D01*
X3134724Y13187942D01*
X3077283Y13049267D01*
X3048000Y12902050D01*
X3048000Y12751950D01*
X3077283Y12604733D01*
X3134724Y12466058D01*
X3218116Y12341253D01*
X3324253Y12235116D01*
X3449058Y12151724D01*
X3587733Y12094283D01*
X3734950Y12065000D01*
X3885050Y12065000D01*
X4032267Y12094283D01*
X4170942Y12151724D01*
X4295747Y12235116D01*
X4401884Y12341253D01*
X4485276Y12466058D01*
X4542717Y12604733D01*
X4549036Y12636500D01*
X5572180Y12636500D01*
X5589790Y12634766D01*
X5571678Y12612696D01*
X5536299Y12546508D01*
X5514513Y12474689D01*
X5507157Y12400000D01*
X5507157Y12100000D01*
X5514513Y12025311D01*
X5522191Y12000000D01*
X5514513Y11974689D01*
X5507157Y11900000D01*
X5507157Y11891000D01*
X5080000Y11891000D01*
X5005671Y11883679D01*
X4934198Y11861998D01*
X4868328Y11826790D01*
X4818267Y11785707D01*
X4721253Y11720884D01*
X4615116Y11614747D01*
X4550293Y11517733D01*
X4509210Y11467672D01*
X4474002Y11401802D01*
X4452321Y11330329D01*
X4445000Y11256000D01*
X4445000Y10240000D01*
X4452321Y10165671D01*
X4474002Y10094198D01*
X4509210Y10028328D01*
X4550293Y9978267D01*
X4615116Y9881253D01*
X4721253Y9775116D01*
X4818267Y9710293D01*
X4868328Y9669210D01*
X4934198Y9634002D01*
X5005671Y9612321D01*
X5080000Y9605000D01*
X5701883Y9605000D01*
X5712471Y9497492D01*
X5765707Y9321998D01*
X5852157Y9160262D01*
X5968499Y9018499D01*
X6110262Y8902157D01*
X6271998Y8815707D01*
X6447492Y8762471D01*
X6584269Y8749000D01*
X7675731Y8749000D01*
X7812508Y8762471D01*
X7988002Y8815707D01*
X8149738Y8902157D01*
X8291501Y9018499D01*
X8407843Y9160262D01*
X8494293Y9321998D01*
X8541616Y9478000D01*
X10287000Y9478000D01*
X10361329Y9485321D01*
X10432802Y9507002D01*
X10498672Y9542210D01*
X10548733Y9583293D01*
X10645747Y9648116D01*
X10751884Y9754253D01*
X10816707Y9851267D01*
X10857790Y9901328D01*
X10892998Y9967198D01*
X10914679Y10038671D01*
X10922000Y10113000D01*
X10922000Y11129000D01*
X10914679Y11203329D01*
X10892998Y11274802D01*
X10857790Y11340672D01*
X10816707Y11390733D01*
X10751884Y11487747D01*
X10645747Y11593884D01*
X10548733Y11658707D01*
X10498672Y11699790D01*
X10432802Y11734998D01*
X10361329Y11756679D01*
X10287000Y11764000D01*
X8262056Y11764000D01*
X8265487Y11775311D01*
X8272843Y11850000D01*
X8272843Y12150000D01*
X8265487Y12224689D01*
X8243701Y12296508D01*
X8208322Y12362696D01*
X8160711Y12420711D01*
X8102696Y12468322D01*
X8043432Y12500000D01*
X8102696Y12531678D01*
X8160711Y12579289D01*
X8208322Y12637304D01*
X8243701Y12703492D01*
X8265487Y12775311D01*
X8272843Y12850000D01*
X8272843Y12992022D01*
X8275063Y12990539D01*
X8413738Y12933098D01*
X8560955Y12903815D01*
X8711055Y12903815D01*
X8858272Y12933098D01*
X8996947Y12990539D01*
X9121752Y13073931D01*
X9227889Y13180068D01*
X9311281Y13304873D01*
X9368722Y13443548D01*
X9387514Y13538025D01*
X9672473Y13538025D01*
X9681283Y13493733D01*
X9738724Y13355058D01*
X9822116Y13230253D01*
X9928253Y13124116D01*
X10053058Y13040724D01*
X10191733Y12983283D01*
X10338950Y12954000D01*
X10489050Y12954000D01*
X10636267Y12983283D01*
X10774942Y13040724D01*
X10899747Y13124116D01*
X11005884Y13230253D01*
X11033444Y13271500D01*
X11281180Y13271500D01*
X11303000Y13269351D01*
X11324820Y13271500D01*
X11324830Y13271500D01*
X11390137Y13277932D01*
X11473926Y13303349D01*
X11551145Y13344624D01*
X11618829Y13400171D01*
X11632746Y13417129D01*
X11868118Y13652500D01*
X15055883Y13652500D01*
X15113000Y13595383D01*
X15113000Y7486618D01*
X14941129Y7314746D01*
X14924171Y7300829D01*
X14910255Y7283872D01*
X14868624Y7233145D01*
X14848770Y7196000D01*
X14827349Y7155925D01*
X14801932Y7072136D01*
X14795500Y7006829D01*
X14795500Y7006820D01*
X14793351Y6985000D01*
X14795500Y6963180D01*
X14795501Y4974830D01*
X14793351Y4953000D01*
X14801933Y4865863D01*
X14827349Y4782075D01*
X14868624Y4704855D01*
X14910255Y4654128D01*
X14910259Y4654124D01*
X14913119Y4650639D01*
X7811618Y4621049D01*
X7731855Y5022046D01*
X7439297Y5728343D01*
X7014569Y6363993D01*
X6473993Y6904569D01*
X5838343Y7329297D01*
X5132046Y7621855D01*
X4382245Y7771000D01*
X3617755Y7771000D01*
X2867954Y7621855D01*
X2161657Y7329297D01*
X1526007Y6904569D01*
X985431Y6363993D01*
X560703Y5728343D01*
X508000Y5601107D01*
X508000Y8898021D01*
X661998Y8815707D01*
X837492Y8762471D01*
X974269Y8749000D01*
X2565731Y8749000D01*
X2702508Y8762471D01*
X2878002Y8815707D01*
X3039738Y8902157D01*
X3181501Y9018499D01*
X3297843Y9160262D01*
X3384293Y9321998D01*
X3437529Y9497492D01*
X3455504Y9680000D01*
X3437529Y9862508D01*
X3384293Y10038002D01*
X3297843Y10199738D01*
X3181501Y10341501D01*
X3039738Y10457843D01*
X2878002Y10544293D01*
X2702508Y10597529D01*
X2565731Y10611000D01*
X974269Y10611000D01*
X837492Y10597529D01*
X661998Y10544293D01*
X508000Y10461979D01*
X508000Y17538021D01*
X661998Y17455707D01*
X837492Y17402471D01*
X974269Y17389000D01*
X2565731Y17389000D01*
X2702508Y17402471D01*
X2878002Y17455707D01*
X3039738Y17542157D01*
X3181501Y17658499D01*
X3297843Y17800262D01*
X3384293Y17961998D01*
X3437529Y18137492D01*
X3455504Y18320000D01*
X3437529Y18502508D01*
X3384293Y18678002D01*
X3297843Y18839738D01*
X3181501Y18981501D01*
X3039738Y19097843D01*
X2878002Y19184293D01*
X2702508Y19237529D01*
X2565731Y19251000D01*
X974269Y19251000D01*
X837492Y19237529D01*
X661998Y19184293D01*
X508000Y19101979D01*
X508000Y20970766D01*
X1550206Y20969262D01*
G36*
X6977304Y12531678D02*
G01*
X7036568Y12500000D01*
X6977304Y12468322D01*
X6966951Y12459826D01*
X6965487Y12474689D01*
X6943701Y12546508D01*
X6931563Y12569216D01*
X6977304Y12531678D01*
X6977304Y12531678D01*
G37*
X6977304Y12531678D02*
X7036568Y12500000D01*
X6977304Y12468322D01*
X6966951Y12459826D01*
X6965487Y12474689D01*
X6943701Y12546508D01*
X6931563Y12569216D01*
X6977304Y12531678D01*
G36*
X6814513Y12775311D02*
G01*
X6836299Y12703492D01*
X6848437Y12680784D01*
X6802696Y12718322D01*
X6743432Y12750000D01*
X6802696Y12781678D01*
X6813049Y12790174D01*
X6814513Y12775311D01*
X6814513Y12775311D01*
G37*
X6814513Y12775311D02*
X6836299Y12703492D01*
X6848437Y12680784D01*
X6802696Y12718322D01*
X6743432Y12750000D01*
X6802696Y12781678D01*
X6813049Y12790174D01*
X6814513Y12775311D01*
G36*
X6836299Y15296508D02*
G01*
X6814513Y15224689D01*
X6813049Y15209826D01*
X6802696Y15218322D01*
X6743432Y15250000D01*
X6802696Y15281678D01*
X6848437Y15319216D01*
X6836299Y15296508D01*
X6836299Y15296508D01*
G37*
X6836299Y15296508D02*
X6814513Y15224689D01*
X6813049Y15209826D01*
X6802696Y15218322D01*
X6743432Y15250000D01*
X6802696Y15281678D01*
X6848437Y15319216D01*
X6836299Y15296508D01*
G36*
X6977304Y15531678D02*
G01*
X7036568Y15500000D01*
X6977304Y15468322D01*
X6931563Y15430784D01*
X6943701Y15453492D01*
X6965487Y15525311D01*
X6966951Y15540174D01*
X6977304Y15531678D01*
X6977304Y15531678D01*
G37*
X6977304Y15531678D02*
X7036568Y15500000D01*
X6977304Y15468322D01*
X6931563Y15430784D01*
X6943701Y15453492D01*
X6965487Y15525311D01*
X6966951Y15540174D01*
X6977304Y15531678D01*
M02*
