M48
; DRILL file {KiCad (5.1.2)-1} date 6/3/2019 23:01:39
; FORMAT={2:4/ absolute / inch / suppress leading zeros}
; #@! TF.CreationDate,2019-06-03T23:01:39-07:00
; #@! TF.GenerationSoftware,Kicad,Pcbnew,(5.1.2)-1
FMAT,2
INCH,TZ
T1C0.0150
T2C0.0197
T3C0.0394
T4C0.0400
T5C0.1378
%
G90
G05
T1
X1500Y5050
X1700Y5381
X2050Y6881
X2050Y6581
X2050Y5381
X2050Y4381
X2050Y4081
X3350Y6881
X3399Y5730
X3400Y4331
X3400Y5380
X3550Y7381
X3550Y7081
X3700Y6050
X3700Y4331
X3700Y4031
X3850Y7381
X3850Y7081
X4000Y4331
X4000Y4031
X4100Y5400
X4300Y8831
X4300Y8481
X4350Y5650
X4650Y8831
X4650Y8481
X5000Y8831
X5000Y8481
X7350Y3250
X8000Y4900
X8050Y5450
X8300Y5750
X8400Y7050
X8650Y5900
X9950Y3750
X9950Y2750
X10050Y5450
X10200Y7650
X10350Y5700
X10500Y600
X10650Y5950
T2
X541Y9449
X844Y10180
X844Y8718
X1575Y10482
X1575Y8415
X2306Y10180
X2306Y8718
X2608Y9449
X541Y1531
X844Y2262
X844Y801
X1575Y2565
X1575Y498
X2306Y2262
X2306Y801
X2608Y1531
T3
X13000Y9031
X13000Y8031
X13000Y7031
X13000Y6031
X13000Y5031
X13000Y4031
X13000Y3031
X13000Y2031
T4
X4500Y2281
X4500Y1281
X5500Y2281
X5500Y1281
X6500Y2281
X6500Y1281
T5
X1575Y9449
X1575Y1531
T0
M30
