M48
;DRILL file {KiCad 4.0.1-stable} date 1/20/2016 02:09:18
;FORMAT={2:4/ absolute / inch / suppress leading zeros}
FMAT,2
INCH,TZ
T1C0.015
T2C0.024
T3C0.028
T4C0.040
%
G90
G05
M72
T1
X24699Y-34049
X24800Y-33350
X24868Y-34650
X24871Y-34283
X24871Y-33816
X24900Y-32950
X24950Y-35050
X26400Y-32950
X26400Y-33500
X26400Y-34541
X26400Y-35150
X26662Y-33844
X27550Y-33850
X27600Y-32700
X27650Y-34450
X28750Y-36000
X28850Y-35250
X29500Y-33900
X30000Y-33000
X30100Y-33850
X30350Y-36000
X31850Y-36900
X32000Y-34300
X32100Y-35000
X32100Y-35200
X32250Y-36000
X33000Y-37150
X34000Y-36900
X35000Y-36600
X36000Y-35400
X36050Y-33600
X36050Y-34400
T4
X23750Y-38250
X24750Y-38250
X27000Y-38250
X28000Y-38250
X28500Y-29750
X28500Y-30750
X29000Y-38250
X29500Y-29750
X29500Y-30750
X30000Y-38250
X30500Y-29750
X30500Y-30750
X31000Y-38250
X31500Y-29750
X31500Y-30750
T2
X25874Y-32299G85X25520Y-32299
G05
X25874Y-35701G85X25520Y-35701
G05
T3
X23965Y-32299G85X23453Y-32299
G05
X23965Y-35701G85X23453Y-35701
G05
X25539Y-32319G85X25539Y-32535
G05
X25539Y-35465G85X25539Y-35681
G05
T0
M30
