G04 #@! TF.FileFunction,Drawing*
%FSLAX46Y46*%
G04 Gerber Fmt 4.6, Leading zero omitted, Abs format (unit mm)*
G04 Created by KiCad (PCBNEW 4.0.6) date 03/18/17 14:34:34*
%MOMM*%
%LPD*%
G01*
G04 APERTURE LIST*
%ADD10C,0.254000*%
%ADD11C,0.203200*%
G04 APERTURE END LIST*
D10*
D11*
X40358019Y12242476D02*
X40358019Y12871428D01*
X40745067Y12532762D01*
X40745067Y12677904D01*
X40793448Y12774666D01*
X40841829Y12823047D01*
X40938590Y12871428D01*
X41180495Y12871428D01*
X41277257Y12823047D01*
X41325638Y12774666D01*
X41374019Y12677904D01*
X41374019Y12387619D01*
X41325638Y12290857D01*
X41277257Y12242476D01*
X40358019Y13210095D02*
X40358019Y13839047D01*
X40745067Y13500381D01*
X40745067Y13645523D01*
X40793448Y13742285D01*
X40841829Y13790666D01*
X40938590Y13839047D01*
X41180495Y13839047D01*
X41277257Y13790666D01*
X41325638Y13742285D01*
X41374019Y13645523D01*
X41374019Y13355238D01*
X41325638Y13258476D01*
X41277257Y13210095D01*
X41277257Y14274476D02*
X41325638Y14322857D01*
X41374019Y14274476D01*
X41325638Y14226095D01*
X41277257Y14274476D01*
X41374019Y14274476D01*
X40358019Y14951810D02*
X40358019Y15048571D01*
X40406400Y15145333D01*
X40454781Y15193714D01*
X40551543Y15242095D01*
X40745067Y15290476D01*
X40986971Y15290476D01*
X41180495Y15242095D01*
X41277257Y15193714D01*
X41325638Y15145333D01*
X41374019Y15048571D01*
X41374019Y14951810D01*
X41325638Y14855048D01*
X41277257Y14806667D01*
X41180495Y14758286D01*
X40986971Y14709905D01*
X40745067Y14709905D01*
X40551543Y14758286D01*
X40454781Y14806667D01*
X40406400Y14855048D01*
X40358019Y14951810D01*
X40358019Y15919429D02*
X40358019Y16016190D01*
X40406400Y16112952D01*
X40454781Y16161333D01*
X40551543Y16209714D01*
X40745067Y16258095D01*
X40986971Y16258095D01*
X41180495Y16209714D01*
X41277257Y16161333D01*
X41325638Y16112952D01*
X41374019Y16016190D01*
X41374019Y15919429D01*
X41325638Y15822667D01*
X41277257Y15774286D01*
X41180495Y15725905D01*
X40986971Y15677524D01*
X40745067Y15677524D01*
X40551543Y15725905D01*
X40454781Y15774286D01*
X40406400Y15822667D01*
X40358019Y15919429D01*
X40358019Y16887048D02*
X40358019Y16983809D01*
X40406400Y17080571D01*
X40454781Y17128952D01*
X40551543Y17177333D01*
X40745067Y17225714D01*
X40986971Y17225714D01*
X41180495Y17177333D01*
X41277257Y17128952D01*
X41325638Y17080571D01*
X41374019Y16983809D01*
X41374019Y16887048D01*
X41325638Y16790286D01*
X41277257Y16741905D01*
X41180495Y16693524D01*
X40986971Y16645143D01*
X40745067Y16645143D01*
X40551543Y16693524D01*
X40454781Y16741905D01*
X40406400Y16790286D01*
X40358019Y16887048D01*
X41374019Y18435238D02*
X40696686Y18435238D01*
X40793448Y18435238D02*
X40745067Y18483619D01*
X40696686Y18580381D01*
X40696686Y18725523D01*
X40745067Y18822285D01*
X40841829Y18870666D01*
X41374019Y18870666D01*
X40841829Y18870666D02*
X40745067Y18919047D01*
X40696686Y19015809D01*
X40696686Y19160952D01*
X40745067Y19257714D01*
X40841829Y19306095D01*
X41374019Y19306095D01*
X41374019Y19789905D02*
X40696686Y19789905D01*
X40793448Y19789905D02*
X40745067Y19838286D01*
X40696686Y19935048D01*
X40696686Y20080190D01*
X40745067Y20176952D01*
X40841829Y20225333D01*
X41374019Y20225333D01*
X40841829Y20225333D02*
X40745067Y20273714D01*
X40696686Y20370476D01*
X40696686Y20515619D01*
X40745067Y20612381D01*
X40841829Y20660762D01*
X41374019Y20660762D01*
X40000000Y0D02*
X40000000Y33000000D01*
X39000000Y0D02*
X41828800Y0D01*
X39000000Y33000000D02*
X41828800Y33000000D01*
X40000000Y33000000D02*
X40586421Y31873496D01*
X40000000Y33000000D02*
X39413579Y31873496D01*
X40000000Y0D02*
X40586421Y1126504D01*
X40000000Y0D02*
X39413579Y1126504D01*
X14742476Y-2358018D02*
X15371428Y-2358018D01*
X15032762Y-2745066D01*
X15177904Y-2745066D01*
X15274666Y-2793447D01*
X15323047Y-2841828D01*
X15371428Y-2938589D01*
X15371428Y-3180494D01*
X15323047Y-3277256D01*
X15274666Y-3325637D01*
X15177904Y-3374018D01*
X14887619Y-3374018D01*
X14790857Y-3325637D01*
X14742476Y-3277256D01*
X15952000Y-2793447D02*
X15855238Y-2745066D01*
X15806857Y-2696685D01*
X15758476Y-2599923D01*
X15758476Y-2551542D01*
X15806857Y-2454780D01*
X15855238Y-2406399D01*
X15952000Y-2358018D01*
X16145523Y-2358018D01*
X16242285Y-2406399D01*
X16290666Y-2454780D01*
X16339047Y-2551542D01*
X16339047Y-2599923D01*
X16290666Y-2696685D01*
X16242285Y-2745066D01*
X16145523Y-2793447D01*
X15952000Y-2793447D01*
X15855238Y-2841828D01*
X15806857Y-2890209D01*
X15758476Y-2986970D01*
X15758476Y-3180494D01*
X15806857Y-3277256D01*
X15855238Y-3325637D01*
X15952000Y-3374018D01*
X16145523Y-3374018D01*
X16242285Y-3325637D01*
X16290666Y-3277256D01*
X16339047Y-3180494D01*
X16339047Y-2986970D01*
X16290666Y-2890209D01*
X16242285Y-2841828D01*
X16145523Y-2793447D01*
X16774476Y-3277256D02*
X16822857Y-3325637D01*
X16774476Y-3374018D01*
X16726095Y-3325637D01*
X16774476Y-3277256D01*
X16774476Y-3374018D01*
X17451810Y-2358018D02*
X17548571Y-2358018D01*
X17645333Y-2406399D01*
X17693714Y-2454780D01*
X17742095Y-2551542D01*
X17790476Y-2745066D01*
X17790476Y-2986970D01*
X17742095Y-3180494D01*
X17693714Y-3277256D01*
X17645333Y-3325637D01*
X17548571Y-3374018D01*
X17451810Y-3374018D01*
X17355048Y-3325637D01*
X17306667Y-3277256D01*
X17258286Y-3180494D01*
X17209905Y-2986970D01*
X17209905Y-2745066D01*
X17258286Y-2551542D01*
X17306667Y-2454780D01*
X17355048Y-2406399D01*
X17451810Y-2358018D01*
X18419429Y-2358018D02*
X18516190Y-2358018D01*
X18612952Y-2406399D01*
X18661333Y-2454780D01*
X18709714Y-2551542D01*
X18758095Y-2745066D01*
X18758095Y-2986970D01*
X18709714Y-3180494D01*
X18661333Y-3277256D01*
X18612952Y-3325637D01*
X18516190Y-3374018D01*
X18419429Y-3374018D01*
X18322667Y-3325637D01*
X18274286Y-3277256D01*
X18225905Y-3180494D01*
X18177524Y-2986970D01*
X18177524Y-2745066D01*
X18225905Y-2551542D01*
X18274286Y-2454780D01*
X18322667Y-2406399D01*
X18419429Y-2358018D01*
X19387048Y-2358018D02*
X19483809Y-2358018D01*
X19580571Y-2406399D01*
X19628952Y-2454780D01*
X19677333Y-2551542D01*
X19725714Y-2745066D01*
X19725714Y-2986970D01*
X19677333Y-3180494D01*
X19628952Y-3277256D01*
X19580571Y-3325637D01*
X19483809Y-3374018D01*
X19387048Y-3374018D01*
X19290286Y-3325637D01*
X19241905Y-3277256D01*
X19193524Y-3180494D01*
X19145143Y-2986970D01*
X19145143Y-2745066D01*
X19193524Y-2551542D01*
X19241905Y-2454780D01*
X19290286Y-2406399D01*
X19387048Y-2358018D01*
X20935238Y-3374018D02*
X20935238Y-2696685D01*
X20935238Y-2793447D02*
X20983619Y-2745066D01*
X21080381Y-2696685D01*
X21225523Y-2696685D01*
X21322285Y-2745066D01*
X21370666Y-2841828D01*
X21370666Y-3374018D01*
X21370666Y-2841828D02*
X21419047Y-2745066D01*
X21515809Y-2696685D01*
X21660952Y-2696685D01*
X21757714Y-2745066D01*
X21806095Y-2841828D01*
X21806095Y-3374018D01*
X22289905Y-3374018D02*
X22289905Y-2696685D01*
X22289905Y-2793447D02*
X22338286Y-2745066D01*
X22435048Y-2696685D01*
X22580190Y-2696685D01*
X22676952Y-2745066D01*
X22725333Y-2841828D01*
X22725333Y-3374018D01*
X22725333Y-2841828D02*
X22773714Y-2745066D01*
X22870476Y-2696685D01*
X23015619Y-2696685D01*
X23112381Y-2745066D01*
X23160762Y-2841828D01*
X23160762Y-3374018D01*
X0Y-1999999D02*
X38000000Y-1999999D01*
X0Y-1000000D02*
X0Y-3828799D01*
X38000000Y-1000000D02*
X38000000Y-3828799D01*
X38000000Y-1999999D02*
X36873496Y-2586420D01*
X38000000Y-1999999D02*
X36873496Y-1413578D01*
X0Y-1999999D02*
X1126504Y-2586420D01*
X0Y-1999999D02*
X1126504Y-1413578D01*
M02*
