G04 #@! TF.FileFunction,Profile,NP*
%FSLAX46Y46*%
G04 Gerber Fmt 4.6, Leading zero omitted, Abs format (unit mm)*
G04 Created by KiCad (PCBNEW 4.0.6) date 03/18/17 14:34:34*
%MOMM*%
%LPD*%
G01*
G04 APERTURE LIST*
%ADD10C,0.254000*%
G04 APERTURE END LIST*
D10*
X38000000Y0D02*
X0Y0D01*
X38000000Y33000000D02*
X38000000Y0D01*
X0Y33000000D02*
X38000000Y33000000D01*
X0Y0D02*
X0Y33000000D01*
X10920000Y31900000D02*
G75*
G03X10420000Y31900000I-250000J0D01*
G01*
X10420000Y31200000D02*
G75*
G03X10920000Y31200000I250000J0D01*
G01*
X10420000Y31200000D02*
X10420000Y31900000D01*
X10920000Y31900000D02*
X10920000Y31200000D01*
X17520000Y31900000D02*
G75*
G03X17020000Y31900000I-250000J0D01*
G01*
X17020000Y31200000D02*
G75*
G03X17520000Y31200000I250000J0D01*
G01*
X17520000Y31200000D02*
X17520000Y31900000D01*
X17020000Y31900000D02*
X17020000Y31200000D01*
X1020000Y14980000D02*
G75*
G03X1020000Y14380000I0J-300000D01*
G01*
X2520000Y14380000D02*
G75*
G03X2520000Y14980000I0J300000D01*
G01*
X1020000Y14980000D02*
X2520000Y14980000D01*
X2520000Y14380000D02*
X1020000Y14380000D01*
X1020000Y23620000D02*
G75*
G03X1020000Y23020000I0J-300000D01*
G01*
X2520000Y23020000D02*
G75*
G03X2520000Y23620000I0J300000D01*
G01*
X1020000Y23020000D02*
X2520000Y23020000D01*
X2520000Y23620000D02*
X1020000Y23620000D01*
X6630000Y14980000D02*
G75*
G03X6630000Y14380000I0J-300000D01*
G01*
X7630000Y14380000D02*
G75*
G03X7630000Y14980000I0J300000D01*
G01*
X6630000Y14980000D02*
X7630000Y14980000D01*
X7630000Y14380000D02*
X6630000Y14380000D01*
X6630000Y23620000D02*
G75*
G03X6630000Y23020000I0J-300000D01*
G01*
X7630000Y23020000D02*
G75*
G03X7630000Y23620000I0J300000D01*
G01*
X6630000Y23020000D02*
X7630000Y23020000D01*
X7630000Y23620000D02*
X6630000Y23620000D01*
M02*
